<?xml version="1.0" encoding="UTF-8"?>
<!DOCTYPE svg PUBLIC "-//W3C//DTD SVG 1.1//EN" "http://www.w3.org/Graphics/SVG/1.1/DTD/svg11.dtd">
<!-- Creator: CorelDRAW X6 -->
<svg xmlns="http://www.w3.org/2000/svg" xml:space="preserve" width="27.8552mm" height="20.828mm" version="1.1" style="shape-rendering:geometricPrecision; text-rendering:geometricPrecision; image-rendering:optimizeQuality; fill-rule:evenodd; clip-rule:evenodd"
viewBox="0 0 2786 2083"
 xmlns:xlink="http://www.w3.org/1999/xlink">
 <defs>
  <style type="text/css">
   <![CDATA[
    .fil0 {fill:#D9DADA}
   ]]>
  </style>
 </defs>
 <g id="Слой_x0020_1">
  <metadata id="CorelCorpID_0Corel-Layer"/>
  <g id="_168518464">
   <g>
    <path class="fil0" d="M1358 1208l180 0 0 218c0,50 68,10 93,10 92,0 93,141 0,141 -27,0 -41,-16 -71,-16 -9,0 -22,14 -22,22l0 225 -600 0 0 -600 176 0c-4,46 -12,81 38,129 35,33 92,43 138,21 63,-30 89,-107 68,-150zm465 -93c0,-95 141,-95 141,0 0,31 -51,93 29,93l202 0 0 600 -600 0 0 -180c81,19 148,-30 159,-94 7,-42 -2,-77 -22,-103 -33,-43 -84,-58 -137,-46l0 -176 199 0c79,0 29,-62 29,-93zm-228 -388l0 -176 600 0 0 600 -180 0c3,-33 15,-65 -19,-112 -72,-100 -228,-41 -228,64l3 48 -176 0 0 -180c51,25 164,-18 164,-122 0,-64 -55,-125 -119,-125l-45 3zm-58 -205l0 247c0,18 12,26 29,26 26,0 78,-40 119,12 36,46 4,113 -55,113 -28,0 -48,-16 -67,-16 -13,0 -26,15 -26,29l0 218 -218 0c-14,0 -29,13 -29,26 0,20 16,36 16,71 0,73 -107,94 -135,23 -16,-41 10,-57 10,-93 0,-16 -10,-26 -26,-26l-247 0c-16,0 -29,13 -29,29l0 654c0,13 11,29 22,29l1322 0c16,0 26,-10 26,-26l0 -1322c0,-12 -16,-22 -29,-22l-654 0c-16,0 -29,13 -29,29z"/>
    <path class="fil0" d="M1358 647c-36,0 -96,-50 -96,29l0 199 -199 0c-79,0 -29,62 -29,93 0,66 -77,93 -118,54 -47,-45 -7,-90 -7,-118 0,-23 -22,-29 -45,-29l-202 0 0 -600 600 0 0 202c0,79 62,29 93,29 40,0 70,29 72,68 1,19 -7,38 -18,50 -10,10 -32,23 -51,23zm-751 -401l0 661c0,35 49,26 103,26 44,0 88,0 132,0 -11,46 -3,83 21,114 74,98 227,38 227,-66l-3 -48 173 0c72,0 61,2 61,-115 0,-40 0,-79 0,-119 44,4 83,12 128,-33 54,-54 47,-148 -15,-192 -31,-22 -67,-30 -112,-19l0 -193c0,-25 -2,-42 -26,-42l-661 0c-16,0 -26,10 -26,26z"/>
   </g>
  </g>
 </g>
</svg>
