<?xml version="1.0" encoding="UTF-8"?>
<!DOCTYPE svg PUBLIC "-//W3C//DTD SVG 1.1//EN" "http://www.w3.org/Graphics/SVG/1.1/DTD/svg11.dtd">
<!-- Creator: CorelDRAW X6 -->
<svg xmlns="http://www.w3.org/2000/svg" xml:space="preserve" width="23.7066mm" height="23.7066mm" version="1.1" style="shape-rendering:geometricPrecision; text-rendering:geometricPrecision; image-rendering:optimizeQuality; fill-rule:evenodd; clip-rule:evenodd"
viewBox="0 0 2371 2371"
 xmlns:xlink="http://www.w3.org/1999/xlink">
 <defs>
  <style type="text/css">
   <![CDATA[
    .str0 {stroke:#2B2A29;stroke-width:20}
    .str1 {stroke:#FEFEFE;stroke-width:67.73;stroke-opacity:0.380392}
    .fil3 {fill:none}
    .fil2 {fill:none}
    .fil0 {fill:#5B5B5B}
    .fil1 {fill:#FEFEFE}
   ]]>
  </style>
 </defs>
 <g id="Слой_x0020_1">
  <metadata id="CorelCorpID_0Corel-Layer"/>
  <rect class="fil0 str0" x="3785" y="-3226" width="3099" height="8738"/>
  <rect class="fil0 str0" x="-5931" y="-623" width="4250" height="4724"/>
  <g id="_945838624">
   <path class="fil1" d="M5688 1660c-44,0 -96,-45 -139,-77l-206 -152c-11,8 -14,12 -24,22l-71 67c-27,27 -61,73 -107,77 0,-22 3,-19 5,-37 1,-13 -1,-29 0,-41l9 -120c0,-23 4,-21 5,-41 3,-83 -5,-48 38,-91l273 -246c8,-7 15,-15 23,-23l114 -102c10,-7 15,-14 24,-22l67 -61c13,-10 15,-8 16,-29 -49,0 -76,28 -128,61 -9,6 -14,8 -23,14l-522 328c-72,41 -11,38 -171,-9 -19,-6 -28,-8 -46,-14l-126 -40c-18,-8 -23,-14 -37,-23 0,-26 -2,-33 21,-48 34,-23 455,-179 534,-210l577 -223c20,-8 67,-28 85,-28 91,0 44,135 31,199 -8,41 -19,84 -28,129 -42,209 -96,436 -137,644 -7,37 -16,97 -59,97zm-382 -1778l97 0c120,5 240,28 354,68 19,7 33,13 53,21 135,54 237,129 345,220 123,103 256,310 311,470 58,169 67,256 67,438 0,139 -47,334 -110,459 -51,102 -70,135 -137,222l-62 76c-90,107 -243,205 -369,269 -143,72 -316,107 -486,109l-18 0c-98,-1 -194,-13 -284,-35 -39,-10 -75,-21 -109,-33l-216 -105 -163 -122c-9,-8 -10,-6 -18,-14 -45,-38 -130,-141 -165,-189l-55 -87c-30,-57 -46,-80 -71,-145 -70,-179 -87,-283 -87,-483 0,-128 29,-247 67,-360 30,-89 95,-211 146,-281 83,-115 207,-242 329,-314l90 -52c46,-23 97,-48 147,-65 38,-13 69,-23 109,-33 78,-20 157,-31 237,-34z"/>
   <path class="fil2 str1" d="M5357 -191c690,0 1249,559 1249,1249 0,690 -559,1249 -1249,1249 -690,0 -1249,-559 -1249,-1249 0,-690 559,-1249 1249,-1249z"/>
  </g>
  <g id="_945839264">
   <path class="fil1" d="M5130 -1734c27,18 161,133 188,133 20,0 38,-18 50,-28l138 -106 97 91c6,6 10,10 16,16 9,8 10,6 18,14l333 310c6,6 10,10 16,16 13,11 41,25 47,49 -29,1 -40,14 -73,14l-1284 0c-34,0 -44,-13 -73,-14 6,-23 32,-36 45,-47l216 -202c6,-6 10,-11 16,-16l85 -76c11,-11 20,-22 32,-32l134 -123zm1362 -53l0 101c-6,138 -36,275 -89,405 -36,89 -74,151 -127,226 -47,68 -137,173 -202,220l-102 77c-63,42 -91,56 -158,90l-101 42c-116,39 -232,62 -348,67l-102 0c-115,-5 -231,-28 -346,-68 -79,-28 -144,-63 -216,-105 -10,-6 -14,-8 -22,-14 -78,-52 -205,-154 -261,-230 -60,-82 -90,-106 -144,-214 -9,-17 -14,-29 -23,-46 -9,-18 -14,-32 -22,-51 -23,-59 -36,-92 -53,-158 -32,-128 -34,-190 -34,-318l0 -6c0,-89 15,-177 34,-250 40,-159 111,-302 210,-432 6,-8 9,-14 16,-21l32 -37c18,-18 58,-68 87,-92 10,-8 10,-6 20,-16 8,-8 8,-9 17,-15 10,-7 10,-9 20,-17 45,-39 141,-100 195,-127 17,-9 29,-14 46,-23 54,-27 152,-60 210,-75 131,-33 193,-34 322,-34l6 0c205,0 472,89 638,215l117 94c32,27 69,74 87,92l48 58c62,82 85,121 134,219 26,54 61,154 75,210 19,77 31,156 34,234zm-913 -2c9,-13 44,-36 58,-47l423 -324 0 816 -210 -194c-12,-12 -20,-15 -32,-27l-87 -83c-27,-27 -138,-121 -153,-141zm-1004 445l0 -816 361 276c25,22 108,78 120,95l-58 56c-9,8 -8,6 -16,12l-195 181c-11,11 -19,19 -30,30l-119 110c-5,5 -8,9 -14,14l-49 42zm46 -899l1394 0 -431 335c-19,14 -254,202 -266,202 -9,0 -25,-17 -43,-30l-588 -453c-9,-7 -15,-11 -24,-18 -11,-9 -36,-26 -43,-35z"/>
   <path class="fil2 str1" d="M5318 -2983c690,0 1249,559 1249,1249 0,690 -559,1249 -1249,1249 -690,0 -1249,-559 -1249,-1249 0,-690 559,-1249 1249,-1249z"/>
  </g>
  <g id="_945838688">
   <path class="fil1" d="M5056 3794c0,74 6,66 58,135 54,72 178,192 243,243 43,34 85,76 144,76 94,0 161,-170 234,-170 28,0 113,97 136,120 20,20 125,116 125,136l0 18c0,20 -135,174 -275,174 -128,0 -254,-61 -358,-124 -80,-48 -97,-62 -164,-116 -38,-30 -145,-131 -173,-166 -11,-14 -17,-19 -28,-32 -70,-89 -129,-172 -176,-278 -40,-88 -55,-124 -55,-215 0,-68 33,-137 63,-175 26,-33 95,-114 134,-114 27,0 101,85 123,107 40,40 77,77 117,117 54,53 8,76 -46,131 -26,26 -102,90 -102,132zm276 -1050l98 0c92,3 181,15 251,36 160,48 244,82 382,178 94,65 218,188 282,283 73,107 97,157 144,278 13,34 22,68 32,105 18,63 35,167 35,245 0,236 -19,350 -110,555 -7,15 -16,33 -25,49 -74,124 -94,164 -208,278 -166,166 -317,243 -536,308 -69,20 -156,32 -245,35l-98 0c-92,-3 -181,-15 -251,-36 -89,-27 -120,-36 -206,-74 -202,-90 -404,-282 -514,-473 -45,-78 -54,-104 -89,-191 -59,-150 -67,-286 -67,-451 0,-111 33,-261 70,-356 14,-36 25,-64 40,-98 90,-202 282,-404 473,-514 78,-45 104,-54 191,-89 35,-14 67,-21 105,-32 69,-20 156,-32 245,-35z"/>
   <path class="fil2 str1" d="M5382 2668c690,0 1249,559 1249,1249 0,690 -559,1249 -1249,1249 -690,0 -1249,-559 -1249,-1249 0,-690 559,-1249 1249,-1249z"/>
  </g>
  <g id="_1002618592">
   <path class="fil1" d="M-3602 -55c0,40 10,81 26,107 39,64 57,94 19,167 -46,-4 -105,-39 -134,-78 -76,-102 -65,-304 -1,-410 52,-86 87,-126 168,-180 150,-100 363,-113 528,-48 60,23 95,48 141,85 32,26 75,86 93,127 27,63 29,110 38,187 5,44 -14,151 -26,193 -17,58 -40,108 -71,154 -77,113 -175,164 -317,164 -56,0 -104,-28 -144,-59 -15,-11 -26,-21 -45,-25 0,53 -45,211 -63,255 -16,40 -32,71 -54,105 -18,27 -52,65 -77,82 -33,-140 15,-360 45,-480 12,-49 26,-103 38,-152 23,-91 9,-53 -6,-108 -29,-111 25,-280 134,-280 61,0 110,39 110,97 0,51 -19,112 -33,153 -41,123 -92,284 94,284 149,0 234,-217 234,-362 0,-106 -11,-184 -85,-259 -115,-116 -306,-101 -437,-20 -95,59 -176,171 -176,301zm-728 150c0,285 74,486 229,693 11,15 21,25 32,39l65 72c37,35 108,93 149,121 15,10 25,17 40,27 40,27 93,52 135,72 121,59 305,95 446,97 54,1 191,-17 242,-28 63,-13 147,-41 203,-67 128,-60 229,-126 322,-220 309,-309 404,-730 266,-1147 -12,-36 -27,-66 -40,-97 -66,-162 -235,-351 -371,-441 -119,-79 -231,-134 -377,-166 -38,-8 -78,-16 -117,-19l-128 -9 -123 9c-171,14 -350,88 -492,183 -27,18 -90,66 -113,90 -28,29 -33,23 -69,68 -10,13 -22,21 -32,34 -77,97 -98,124 -161,249 -54,106 -103,282 -103,440z"/>
   <path class="fil2 str1" d="M-3236 -1045c643,0 1164,521 1164,1164 0,643 -521,1164 -1164,1164 -643,0 -1164,-521 -1164,-1164 0,-643 521,-1164 1164,-1164z"/>
  </g>
  <g id="_945939392">
   <path class="fil1" d="M1792 1339c-3,93 -41,144 -98,180 -107,69 -306,71 -401,-57 -105,-141 -63,-481 256,-465 170,9 252,125 242,303l-378 1c2,76 30,136 98,149 57,10 101,-19 120,-67 22,-57 -36,-45 161,-44zm-379 -115l227 1c-5,-69 -41,-113 -113,-114 -73,-1 -110,43 -115,113zm-467 -115c74,-9 84,-129 35,-171 -35,-30 -189,-15 -248,-17l-1 188 214 0zm-215 341c28,7 185,3 225,2 161,-4 154,-219 4,-227 -41,-2 -195,-5 -229,2l0 223zm423 -1358l63 0c79,2 158,13 233,32 95,24 110,33 197,68 61,25 113,61 168,97l145 120 121 144c77,110 134,227 168,362 31,122 32,183 32,304l0 6c0,200 -83,434 -198,592 -82,112 -126,154 -226,236 -13,10 -23,18 -37,28 -27,18 -51,36 -81,52 -29,16 -53,29 -84,44 -102,51 -272,104 -422,104l-94 0c-175,0 -380,-72 -509,-149 -201,-121 -331,-271 -437,-482 -49,-97 -101,-276 -101,-420l0 -81c0,-151 53,-329 104,-430 40,-80 48,-93 99,-166 11,-15 18,-25 29,-39l61 -72c30,-39 135,-124 177,-152 76,-51 131,-84 216,-118 17,-7 30,-10 47,-17 33,-13 68,-22 102,-30 73,-18 150,-29 227,-31zm-575 716c88,0 177,0 265,0 145,0 332,-27 339,194 3,78 -39,149 -106,156 49,10 71,18 96,50 21,27 31,74 32,115 3,259 -183,243 -340,243 -95,0 -191,0 -287,0l0 -759zm797 76l303 0 0 76 -303 -1 1 -75z"/>
   <path class="fil2 str1" d="M1185 21c643,0 1164,521 1164,1164 0,643 -521,1164 -1164,1164 -643,0 -1164,-521 -1164,-1164 0,-643 521,-1164 1164,-1164z"/>
  </g>
  <rect class="fil3 str0" x="3785" y="5580" width="3099" height="4487"/>
 </g>
</svg>
