<?xml version="1.0" encoding="UTF-8"?>
<!DOCTYPE svg PUBLIC "-//W3C//DTD SVG 1.1//EN" "http://www.w3.org/Graphics/SVG/1.1/DTD/svg11.dtd">
<!-- Creator: CorelDRAW X6 -->
<svg xmlns="http://www.w3.org/2000/svg" xml:space="preserve" width="23.7066mm" height="23.7066mm" version="1.1" style="shape-rendering:geometricPrecision; text-rendering:geometricPrecision; image-rendering:optimizeQuality; fill-rule:evenodd; clip-rule:evenodd"
viewBox="0 0 2371 2371"
 xmlns:xlink="http://www.w3.org/1999/xlink">
 <defs>
  <style type="text/css">
   <![CDATA[
    .str0 {stroke:#2B2A29;stroke-width:20}
    .str1 {stroke:#FEFEFE;stroke-width:67.73;stroke-opacity:0.380392}
    .fil3 {fill:none}
    .fil2 {fill:none}
    .fil0 {fill:#5B5B5B}
    .fil1 {fill:#FEFEFE}
   ]]>
  </style>
 </defs>
 <g id="Слой_x0020_1">
  <metadata id="CorelCorpID_0Corel-Layer"/>
  <rect class="fil0 str0" x="3785" y="-3226" width="3099" height="8738"/>
  <rect class="fil0 str0" x="-5931" y="-623" width="4250" height="4724"/>
  <g id="_1003260032">
   <path class="fil1" d="M5688 1660c-44,0 -96,-45 -139,-77l-206 -152c-11,8 -14,12 -24,22l-71 67c-27,27 -61,73 -107,77 0,-22 3,-19 5,-37 1,-13 -1,-29 0,-41l9 -120c0,-23 4,-21 5,-41 3,-83 -5,-48 38,-91l273 -246c8,-7 15,-15 23,-23l114 -102c10,-7 15,-14 24,-22l67 -61c13,-10 15,-8 16,-29 -49,0 -76,28 -128,61 -9,6 -14,8 -23,14l-522 328c-72,41 -11,38 -171,-9 -19,-6 -28,-8 -46,-14l-126 -40c-18,-8 -23,-14 -37,-23 0,-26 -2,-33 21,-48 34,-23 455,-179 534,-210l577 -223c20,-8 67,-28 85,-28 91,0 44,135 31,199 -8,41 -19,84 -28,129 -42,209 -96,436 -137,644 -7,37 -16,97 -59,97zm-382 -1778l97 0c120,5 240,28 354,68 19,7 33,13 53,21 135,54 237,129 345,220 123,103 256,310 311,470 58,169 67,256 67,438 0,139 -47,334 -110,459 -51,102 -70,135 -137,222l-62 76c-90,107 -243,205 -369,269 -143,72 -316,107 -486,109l-18 0c-98,-1 -194,-13 -284,-35 -39,-10 -75,-21 -109,-33l-216 -105 -163 -122c-9,-8 -10,-6 -18,-14 -45,-38 -130,-141 -165,-189l-55 -87c-30,-57 -46,-80 -71,-145 -70,-179 -87,-283 -87,-483 0,-128 29,-247 67,-360 30,-89 95,-211 146,-281 83,-115 207,-242 329,-314l90 -52c46,-23 97,-48 147,-65 38,-13 69,-23 109,-33 78,-20 157,-31 237,-34z"/>
   <path class="fil2 str1" d="M5357 -191c690,0 1249,559 1249,1249 0,690 -559,1249 -1249,1249 -690,0 -1249,-559 -1249,-1249 0,-690 559,-1249 1249,-1249z"/>
  </g>
  <g id="_1003258656">
   <path class="fil1" d="M1010 1185c25,17 150,124 175,124 18,0 35,-17 47,-26l128 -98 91 84c6,6 9,10 15,15 9,8 9,6 17,13l310 289c6,6 9,10 15,15 12,11 38,23 44,46 -27,1 -37,13 -68,13l-1197 0c-32,0 -41,-12 -68,-13 6,-21 30,-34 42,-44l201 -188c5,-5 9,-10 15,-15l79 -71c10,-11 19,-20 30,-30l125 -114zm1270 -50l0 94c-6,129 -34,256 -83,377 -34,83 -69,141 -118,211 -44,63 -127,161 -188,205l-95 72c-59,39 -85,52 -147,84l-94 39c-108,37 -216,58 -324,62l-95 0c-108,-5 -215,-26 -322,-64 -74,-26 -134,-59 -202,-98 -9,-5 -13,-8 -21,-13 -73,-49 -191,-144 -243,-215 -56,-77 -84,-99 -134,-200 -8,-16 -13,-27 -21,-43 -9,-17 -14,-30 -21,-48 -21,-55 -34,-86 -49,-148 -30,-120 -32,-177 -32,-296l0 -6c0,-83 14,-165 32,-233 37,-148 103,-281 196,-402 6,-7 9,-13 15,-19l30 -34c17,-17 54,-64 81,-85 9,-7 10,-6 19,-15 8,-8 8,-8 16,-14 9,-7 10,-9 18,-16 42,-36 131,-93 181,-118 16,-8 27,-13 43,-21 50,-25 142,-56 196,-70 122,-30 180,-32 300,-32l6 0c191,0 440,83 595,200l109 87c30,25 65,69 81,86l45 54c58,77 80,113 125,204 25,50 57,144 69,196 18,72 28,145 32,218zm-851 -2c9,-12 41,-34 54,-44l395 -302 0 761 -196 -181c-12,-11 -18,-14 -30,-26l-81 -77c-25,-25 -129,-113 -142,-131zm-936 415l0 -761 337 258c24,21 100,72 112,89l-54 52c-8,7 -8,5 -15,11l-182 169c-10,10 -18,18 -28,28l-111 103c-5,5 -8,9 -13,13l-46 40zm43 -838l1300 0 -402 312c-18,13 -237,188 -248,188 -8,0 -23,-16 -40,-28l-548 -422c-8,-6 -14,-10 -22,-17 -11,-8 -33,-24 -40,-33z"/>
   <path class="fil2 str1" d="M1185 21c643,0 1164,521 1164,1164 0,643 -521,1164 -1164,1164 -643,0 -1164,-521 -1164,-1164 0,-643 521,-1164 1164,-1164z"/>
  </g>
  <g id="_1003259136">
   <path class="fil1" d="M5056 3794c0,74 6,66 58,135 54,72 178,192 243,243 43,34 85,76 144,76 94,0 161,-170 234,-170 28,0 113,97 136,120 20,20 125,116 125,136l0 18c0,20 -135,174 -275,174 -128,0 -254,-61 -358,-124 -80,-48 -97,-62 -164,-116 -38,-30 -145,-131 -173,-166 -11,-14 -17,-19 -28,-32 -70,-89 -129,-172 -176,-278 -40,-88 -55,-124 -55,-215 0,-68 33,-137 63,-175 26,-33 95,-114 134,-114 27,0 101,85 123,107 40,40 77,77 117,117 54,53 8,76 -46,131 -26,26 -102,90 -102,132zm276 -1050l98 0c92,3 181,15 251,36 160,48 244,82 382,178 94,65 218,188 282,283 73,107 97,157 144,278 13,34 22,68 32,105 18,63 35,167 35,245 0,236 -19,350 -110,555 -7,15 -16,33 -25,49 -74,124 -94,164 -208,278 -166,166 -317,243 -536,308 -69,20 -156,32 -245,35l-98 0c-92,-3 -181,-15 -251,-36 -89,-27 -120,-36 -206,-74 -202,-90 -404,-282 -514,-473 -45,-78 -54,-104 -89,-191 -59,-150 -67,-286 -67,-451 0,-111 33,-261 70,-356 14,-36 25,-64 40,-98 90,-202 282,-404 473,-514 78,-45 104,-54 191,-89 35,-14 67,-21 105,-32 69,-20 156,-32 245,-35z"/>
   <path class="fil2 str1" d="M5382 2668c690,0 1249,559 1249,1249 0,690 -559,1249 -1249,1249 -690,0 -1249,-559 -1249,-1249 0,-690 559,-1249 1249,-1249z"/>
  </g>
  <g id="_189350896">
   <path class="fil1" d="M-3602 -55c0,40 10,81 26,107 39,64 57,94 19,167 -46,-4 -105,-39 -134,-78 -76,-102 -65,-304 -1,-410 52,-86 87,-126 168,-180 150,-100 363,-113 528,-48 60,23 95,48 141,85 32,26 75,86 93,127 27,63 29,110 38,187 5,44 -14,151 -26,193 -17,58 -40,108 -71,154 -77,113 -175,164 -317,164 -56,0 -104,-28 -144,-59 -15,-11 -26,-21 -45,-25 0,53 -45,211 -63,255 -16,40 -32,71 -54,105 -18,27 -52,65 -77,82 -33,-140 15,-360 45,-480 12,-49 26,-103 38,-152 23,-91 9,-53 -6,-108 -29,-111 25,-280 134,-280 61,0 110,39 110,97 0,51 -19,112 -33,153 -41,123 -92,284 94,284 149,0 234,-217 234,-362 0,-106 -11,-184 -85,-259 -115,-116 -306,-101 -437,-20 -95,59 -176,171 -176,301zm-728 150c0,285 74,486 229,693 11,15 21,25 32,39l65 72c37,35 108,93 149,121 15,10 25,17 40,27 40,27 93,52 135,72 121,59 305,95 446,97 54,1 191,-17 242,-28 63,-13 147,-41 203,-67 128,-60 229,-126 322,-220 309,-309 404,-730 266,-1147 -12,-36 -27,-66 -40,-97 -66,-162 -235,-351 -371,-441 -119,-79 -231,-134 -377,-166 -38,-8 -78,-16 -117,-19l-128 -9 -123 9c-171,14 -350,88 -492,183 -27,18 -90,66 -113,90 -28,29 -33,23 -69,68 -10,13 -22,21 -32,34 -77,97 -98,124 -161,249 -54,106 -103,282 -103,440z"/>
   <path class="fil2 str1" d="M-3236 -1045c643,0 1164,521 1164,1164 0,643 -521,1164 -1164,1164 -643,0 -1164,-521 -1164,-1164 0,-643 521,-1164 1164,-1164z"/>
  </g>
  <g id="_945975472">
   <path class="fil1" d="M-3686 2831c-3,93 -41,144 -98,180 -107,69 -306,71 -401,-57 -105,-141 -63,-481 256,-465 170,9 252,125 242,303l-378 1c2,76 30,136 98,149 57,10 101,-19 120,-67 22,-57 -36,-45 161,-44zm-379 -115l227 1c-5,-69 -41,-113 -113,-114 -73,-1 -110,43 -115,113zm-467 -115c74,-9 84,-129 35,-171 -35,-30 -189,-15 -248,-17l-1 188 214 0zm-215 341c28,7 185,3 225,2 161,-4 154,-219 4,-227 -41,-2 -195,-5 -229,2l0 223zm423 -1358l63 0c79,2 158,13 233,32 95,24 110,33 197,69 61,25 113,61 168,97l145 120 121 144c77,110 134,227 168,362 31,122 32,183 32,304l0 6c0,200 -83,434 -198,592 -82,112 -126,154 -226,236 -13,10 -23,18 -37,28 -27,18 -51,36 -81,52 -29,16 -53,29 -84,44 -102,51 -272,104 -422,104l-94 0c-175,0 -380,-72 -509,-149 -201,-121 -331,-271 -437,-482 -49,-97 -101,-276 -101,-420l0 -81c0,-151 53,-329 104,-430 40,-80 48,-93 99,-166 11,-15 18,-25 29,-39l61 -72c30,-39 135,-124 177,-152 76,-51 131,-84 216,-118 17,-7 30,-10 47,-17 33,-13 68,-22 102,-30 73,-18 150,-29 227,-31zm-575 716c88,0 177,0 265,0 145,0 332,-27 339,194 3,78 -39,149 -106,156 49,10 71,18 96,50 21,27 31,74 32,115 3,259 -183,243 -340,243 -95,0 -191,0 -287,0l0 -759zm797 76l303 0 0 76 -303 -1 1 -75z"/>
   <path class="fil2 str1" d="M-4292 1513c643,0 1164,521 1164,1164 0,643 -521,1164 -1164,1164 -643,0 -1164,-521 -1164,-1164 0,-643 521,-1164 1164,-1164z"/>
  </g>
  <rect class="fil3 str0" x="3785" y="5580" width="3099" height="4487"/>
 </g>
</svg>
