<?xml version="1.0" encoding="UTF-8"?>
<!DOCTYPE svg PUBLIC "-//W3C//DTD SVG 1.1//EN" "http://www.w3.org/Graphics/SVG/1.1/DTD/svg11.dtd">
<!-- Creator: CorelDRAW X6 -->
<svg xmlns="http://www.w3.org/2000/svg" xml:space="preserve" width="63.754mm" height="63.754mm" version="1.1" style="shape-rendering:geometricPrecision; text-rendering:geometricPrecision; image-rendering:optimizeQuality; fill-rule:evenodd; clip-rule:evenodd"
viewBox="0 0 6375 6375"
 xmlns:xlink="http://www.w3.org/1999/xlink">
 <defs>
  <style type="text/css">
   <![CDATA[
    .fil14 {fill:#BAD3EF;fill-rule:nonzero}
    .fil12 {fill:#D1E0F1;fill-rule:nonzero}
    .fil6 {fill:#2E4A70;fill-rule:nonzero}
    .fil4 {fill:#304157;fill-rule:nonzero}
    .fil9 {fill:#4E6C97;fill-rule:nonzero}
    .fil11 {fill:#667997;fill-rule:nonzero}
    .fil3 {fill:#6F90BE;fill-rule:nonzero}
    .fil10 {fill:#9DAEC8;fill-rule:nonzero}
    .fil8 {fill:#F6FAFD;fill-rule:nonzero}
    .fil5 {fill:#2659A4;fill-rule:nonzero}
    .fil2 {fill:#3AAEE3;fill-rule:nonzero}
    .fil1 {fill:#443185;fill-rule:nonzero}
    .fil7 {fill:#E7F1FB;fill-rule:nonzero}
    .fil13 {fill:#ECF3FB;fill-rule:nonzero}
    .fil0 {fill:#E7F5FD;fill-opacity:0.870588}
   ]]>
  </style>
   <clipPath id="id0">
    <rect x="2873" y="1625" width="2488" height="2356"/>
   </clipPath>
 </defs>
 <g id="Слой_x0020_1">
  <metadata id="CorelCorpID_0Corel-Layer"/>
  <path class="fil0" d="M5231 2823c543,524 382,1108 134,1574 -264,496 -1010,820 -1602,872 -636,-38 -472,-159 -1273,-36 -849,55 -1381,322 -1670,-325 -217,-576 199,-1128 588,-1463 261,-310 237,-456 263,-757 90,-1010 1414,-1405 2029,-824 309,292 356,462 749,623 263,108 522,84 782,336z"/>
  <g id="_775350880">
   <path class="fil1" d="M4656 3124c156,-335 116,-753 -100,-1053 -85,364 -65,729 64,1080l35 -26z"/>
   <path class="fil1" d="M5679 2366c296,-67 571,-296 696,-584 -281,99 -550,335 -696,584z"/>
   <path class="fil1" d="M5212 2735c230,-259 372,-594 398,-939 -290,211 -450,588 -400,943l2 -4z"/>
   <path class="fil1" d="M5122 2809c-69,-168 -128,-342 -147,-523 -19,-181 5,-370 94,-528 125,330 149,698 69,1042l-16 9z"/>
   <path class="fil1" d="M5427 2595c356,-36 633,21 910,206 -150,79 -328,102 -493,65 -165,-37 -316,-135 -417,-271z"/>
   <path class="fil1" d="M5113 3447c189,-67 328,-258 333,-458 -161,77 -305,282 -333,458z"/>
   <path class="fil1" d="M5416 3425c277,-83 599,14 785,236 -292,44 -576,-27 -785,-236z"/>
   <path class="fil1" d="M4886 3486c108,27 199,105 263,196 65,91 107,196 149,299 -209,-82 -377,-260 -447,-473l35 -22z"/>
   <path class="fil1" d="M4244 3147c-151,125 -366,193 -565,119 158,-121 371,-166 565,-119z"/>
   <path class="fil1" d="M4254 2881c-229,68 -493,5 -667,-160 -9,-8 -18,-18 -17,-30 0,-18 22,-28 39,-33 232,-59 510,25 645,222z"/>
   <path class="fil1" d="M4219 2722c-145,-59 -264,-179 -320,-325 -56,-146 -49,-315 19,-456 122,238 248,519 301,781z"/>
  </g>
  <g id="_775349376">
   <path class="fil2" d="M6194 1931c0,0 -2,2 -6,5 -4,4 -10,9 -18,16 -16,14 -39,35 -69,61 -30,27 -67,58 -110,95 -22,18 -45,38 -69,59 -25,21 -51,42 -78,65 -109,92 -242,198 -390,315 -149,116 -315,241 -491,369 -177,127 -347,246 -504,351 -157,104 -300,196 -422,270 -30,19 -59,36 -87,53 -28,16 -54,32 -78,46 -49,29 -91,54 -126,73 -34,19 -61,35 -80,45 -9,5 -16,9 -21,12 -5,3 -7,4 -7,4 0,0 3,-1 7,-3 5,-3 12,-6 21,-11 19,-10 46,-25 81,-44 35,-19 78,-43 127,-71 25,-14 51,-29 79,-45 28,-17 57,-34 87,-53 123,-73 266,-165 424,-268 157,-105 328,-223 505,-350 176,-128 342,-254 490,-370 148,-117 280,-224 389,-317 27,-23 53,-45 78,-66 24,-21 47,-41 68,-60 43,-37 80,-69 109,-96 29,-27 52,-47 68,-62 7,-7 13,-12 17,-16 4,-4 6,-6 6,-6z"/>
   <path class="fil2" d="M6000 3567c0,0 -2,-1 -6,-3 -4,-2 -10,-4 -17,-7 -15,-6 -37,-15 -66,-25 -58,-21 -143,-49 -251,-72 -108,-23 -240,-39 -386,-29 -146,8 -304,39 -468,73 -329,67 -631,110 -849,141 -109,15 -197,28 -258,36 -30,4 -53,8 -70,10 -8,1 -14,2 -18,3 -4,1 -6,1 -6,1 0,0 2,0 6,0 5,0 11,-1 18,-2 17,-2 40,-5 70,-8 62,-8 150,-19 259,-33 218,-29 520,-72 850,-139 165,-33 322,-64 467,-73 145,-10 276,5 384,27 108,22 193,49 251,69 29,10 52,18 67,24 7,3 13,5 17,6 4,1 6,2 6,2z"/>
   <path class="fil2" d="M4202 2644c0,0 0,3 2,10 2,7 4,16 7,27 2,6 3,12 5,19 2,7 3,15 5,23 4,17 8,36 11,57 2,11 4,22 6,33 1,12 3,24 4,36 4,25 4,52 6,80 1,57 -1,119 -10,184 -9,65 -26,125 -45,178 -10,26 -20,52 -31,74 -10,23 -22,43 -33,62 -10,19 -22,34 -32,48 -9,14 -19,26 -26,35 -7,9 -13,16 -17,22 -4,5 -6,8 -6,8 0,0 3,-2 7,-7 5,-6 11,-12 19,-20 8,-9 18,-20 28,-34 10,-14 23,-29 33,-48 11,-18 24,-39 35,-62 12,-22 22,-48 33,-74 20,-54 36,-115 46,-180 9,-65 11,-129 9,-186 -2,-29 -3,-56 -7,-81 -2,-13 -3,-25 -5,-36 -2,-12 -4,-23 -6,-33 -4,-21 -9,-40 -13,-57 -2,-8 -4,-16 -6,-23 -2,-7 -4,-13 -6,-19 -4,-11 -6,-19 -9,-26 -2,-6 -3,-9 -4,-9z"/>
   <path class="fil2" d="M5436 2095c-1,0 -4,8 -10,24 -7,18 -15,41 -25,68 -21,58 -49,137 -79,226 -30,88 -57,169 -76,227 -9,28 -16,51 -22,69 -5,16 -7,26 -7,26 1,0 4,-9 10,-25 7,-18 15,-41 25,-68 21,-58 49,-137 79,-226 30,-88 57,-168 76,-227 9,-28 16,-51 22,-69 5,-16 7,-26 7,-26z"/>
   <path class="fil2" d="M5083 2159c-3,0 6,146 19,326 14,180 27,326 30,326 3,0 -6,-146 -19,-326 -14,-180 -27,-326 -30,-325z"/>
   <path class="fil2" d="M5397 2591c0,1 8,3 24,6 17,4 39,9 66,15 55,12 131,31 214,56 83,25 157,51 210,71 25,9 46,17 63,23 15,6 23,8 24,8 0,-1 -8,-5 -22,-11 -14,-7 -35,-16 -62,-27 -53,-21 -126,-49 -209,-74 -83,-25 -160,-42 -215,-53 -28,-5 -51,-9 -66,-11 -16,-2 -24,-3 -25,-2z"/>
   <path class="fil2" d="M5386 3114c-1,-1 -16,19 -39,50 -23,31 -56,74 -94,119 -38,46 -74,86 -100,114 -26,29 -43,46 -42,47 1,1 19,-15 47,-42 28,-28 64,-67 102,-113 38,-46 70,-89 92,-122 22,-32 34,-53 33,-54z"/>
   <path class="fil2" d="M4876 3485c-1,1 21,21 54,55 34,34 79,82 126,137 47,56 86,109 114,148 28,39 44,64 45,63 1,0 -3,-7 -9,-19 -7,-12 -17,-28 -30,-48 -26,-40 -65,-94 -112,-151 -47,-56 -94,-103 -129,-136 -18,-16 -32,-29 -43,-38 -10,-9 -16,-13 -17,-12z"/>
   <path class="fil2" d="M3814 3243c1,3 98,-16 218,-43 120,-26 216,-50 216,-53 -1,-3 -98,16 -218,43 -120,26 -216,50 -216,53z"/>
   <path class="fil2" d="M3807 2719c0,1 25,10 65,23 40,13 96,31 157,53 61,21 116,42 156,57 40,15 64,24 65,23 0,-1 -6,-4 -16,-9 -11,-5 -26,-12 -46,-20 -39,-17 -94,-38 -155,-60 -61,-21 -117,-39 -158,-50 -20,-6 -37,-10 -49,-13 -12,-3 -18,-4 -18,-3z"/>
   <path class="fil2" d="M4591 2370c-1,0 0,11 3,32 3,22 6,51 11,86 9,73 18,173 23,284 4,111 2,212 -1,285 -2,35 -3,64 -4,86 -1,20 -1,32 -1,32 1,0 2,-11 5,-31 2,-20 5,-50 8,-86 5,-73 8,-174 4,-286 -4,-112 -15,-212 -26,-285 -5,-36 -10,-65 -14,-86 -4,-20 -6,-31 -7,-31z"/>
  </g>
  <path class="fil3" d="M4688 4830l-3308 0c-139,0 -252,-113 -252,-252l0 -133 3812 0 0 133c0,139 -113,252 -252,252z"/>
  <polygon class="fil4" points="2651,5167 3433,5167 3433,4830 2651,4830 "/>
  <g id="_775345344">
   <path class="fil5" d="M1592 3101c50,-366 310,-696 653,-832 -126,352 -340,649 -638,873l-16 -41z"/>
   <path class="fil5" d="M1141 1910c-213,-216 -320,-558 -269,-867 183,235 282,579 269,867z"/>
   <path class="fil5" d="M1334 2474c-53,-342 8,-701 173,-1005 130,334 61,738 -174,1009l0 -4z"/>
   <path class="fil5" d="M1369 2584c149,-104 293,-218 406,-360 114,-142 196,-314 207,-495 -284,210 -503,507 -621,839l8 16z"/>
   <path class="fil5" d="M1228 2239c-280,-223 -544,-324 -877,-318 83,147 221,263 380,321 159,58 339,57 497,-3z"/>
   <path class="fil5" d="M1032 3126c-123,-159 -137,-394 -32,-565 94,152 104,402 32,565z"/>
   <path class="fil5" d="M789 2943c-188,-220 -512,-312 -788,-225 222,195 499,289 788,225z"/>
   <path class="fil5" d="M1201 3281c-106,-36 -224,-19 -328,22 -104,42 -196,107 -287,171 220,44 458,-15 632,-156l-17 -37z"/>
   <path class="fil5" d="M1925 3343c60,187 203,360 411,405 -68,-187 -223,-340 -411,-405z"/>
   <path class="fil5" d="M2061 3114c156,182 412,271 647,226 12,-2 25,-6 31,-16 10,-16 -3,-35 -16,-49 -164,-175 -442,-255 -663,-162z"/>
   <path class="fil5" d="M2175 2999c154,29 319,-8 445,-101 126,-92 212,-238 230,-394 -231,135 -489,302 -675,494z"/>
  </g>
  <g id="_775343648">
   <path class="fil2" d="M942 1266c0,0 1,3 3,8 2,6 4,13 7,23 6,21 15,50 25,88 11,38 25,85 41,140 8,27 17,56 26,87 10,31 20,63 31,97 42,136 96,297 158,476 63,178 134,373 213,576 80,203 159,394 234,568 76,173 146,327 209,456 16,32 30,63 44,92 15,29 28,56 41,81 25,51 47,94 67,129 18,35 33,62 43,81 5,9 8,16 11,21 2,5 4,7 3,7 0,0 -2,-2 -4,-7 -3,-5 -7,-12 -12,-21 -10,-19 -25,-46 -45,-80 -20,-35 -42,-78 -68,-129 -13,-25 -27,-52 -42,-81 -14,-29 -29,-59 -45,-91 -64,-128 -135,-282 -211,-455 -76,-173 -155,-365 -235,-568 -79,-203 -150,-398 -213,-576 -61,-179 -115,-340 -156,-477 -10,-34 -20,-67 -30,-97 -9,-31 -17,-60 -25,-87 -16,-54 -29,-101 -39,-140 -10,-38 -18,-68 -24,-89 -3,-10 -4,-18 -6,-23 -1,-5 -2,-8 -2,-8z"/>
   <path class="fil2" d="M220 2747c0,0 2,0 6,1 5,1 11,2 18,3 16,3 39,8 70,14 60,14 147,36 250,75 103,39 223,97 340,184 118,86 234,197 355,314 241,234 471,434 637,578 83,72 150,130 198,170 23,20 41,35 54,47 6,5 10,9 14,12 3,3 5,4 4,4 0,0 -2,-1 -5,-4 -4,-3 -8,-7 -14,-12 -13,-11 -31,-26 -55,-45 -48,-40 -116,-97 -200,-168 -168,-143 -399,-341 -640,-576 -120,-117 -236,-228 -353,-314 -117,-87 -235,-146 -337,-185 -103,-40 -189,-63 -248,-78 -30,-7 -53,-13 -69,-16 -7,-2 -13,-3 -18,-4 -4,-1 -6,-2 -6,-2z"/>
   <path class="fil2" d="M2233 2943c0,0 -2,3 -7,7 -6,5 -12,11 -20,19 -5,4 -10,9 -15,13 -5,5 -11,11 -17,17 -12,12 -26,26 -40,42 -7,8 -15,16 -23,25 -7,9 -15,19 -23,28 -16,19 -32,42 -49,64 -32,47 -64,101 -91,160 -27,60 -46,119 -59,174 -6,28 -11,54 -13,79 -4,25 -5,48 -5,70 -2,21 0,41 1,58 0,17 2,32 3,44 1,11 2,20 3,28 1,6 1,10 0,10 0,0 -1,-3 -2,-9 -1,-7 -3,-16 -5,-27 -2,-12 -4,-27 -5,-44 -1,-17 -3,-37 -2,-58 0,-22 1,-45 4,-71 2,-25 7,-52 13,-80 13,-56 32,-116 59,-176 28,-60 60,-114 93,-161 17,-23 33,-45 50,-64 8,-10 16,-19 24,-28 8,-9 16,-17 23,-25 15,-16 29,-29 42,-41 6,-6 12,-11 17,-16 6,-5 11,-9 15,-13 9,-7 16,-13 22,-17 5,-4 8,-6 8,-6z"/>
   <path class="fil2" d="M1492 1814c1,0 -1,9 -4,26 -4,19 -9,42 -16,71 -14,60 -33,142 -56,233 -22,91 -43,173 -59,232 -8,28 -14,52 -19,70 -5,16 -8,25 -8,25 -1,0 1,-10 4,-26 4,-19 9,-42 16,-71 14,-60 33,-142 56,-233 22,-91 43,-173 59,-232 8,-28 14,-52 19,-70 5,-16 8,-26 8,-25z"/>
   <path class="fil2" d="M1753 2058c2,2 -84,120 -193,264 -109,144 -199,260 -201,258 -2,-2 84,-120 193,-264 109,-144 199,-260 201,-258z"/>
   <path class="fil2" d="M1256 2252c0,1 -9,-2 -24,-8 -17,-6 -38,-14 -63,-23 -53,-19 -127,-45 -210,-69 -83,-24 -159,-42 -215,-54 -26,-6 -48,-10 -66,-14 -16,-3 -24,-6 -24,-6 0,-1 9,0 25,2 16,2 38,6 66,11 56,10 133,27 216,51 83,24 157,51 210,72 26,11 48,20 62,26 14,7 22,11 22,11z"/>
   <path class="fil2" d="M982 2698c1,0 3,24 6,63 3,39 7,92 14,151 7,59 16,112 22,150 7,38 11,62 9,62 -1,0 -8,-23 -16,-61 -8,-38 -18,-91 -25,-150 -7,-59 -10,-113 -11,-152 -1,-39 0,-63 1,-63z"/>
   <path class="fil2" d="M1211 3286c0,2 -29,7 -76,17 -47,10 -111,26 -181,47 -70,22 -131,45 -176,63 -44,18 -71,30 -72,29 0,-1 6,-4 18,-11 12,-6 29,-15 51,-25 44,-20 106,-44 176,-66 70,-22 135,-36 182,-45 24,-4 43,-7 56,-9 13,-2 21,-2 21,-1z"/>
   <path class="fil2" d="M2235 3656c-2,2 -74,-67 -160,-154 -86,-87 -155,-159 -153,-161 2,-2 74,67 160,154 86,87 155,159 153,161z"/>
   <path class="fil2" d="M2524 3220c0,1 -26,-5 -67,-16 -41,-11 -98,-26 -161,-41 -63,-15 -120,-28 -162,-37 -41,-9 -67,-15 -67,-16 0,-1 7,0 19,1 12,1 29,4 50,8 42,7 100,19 163,34 63,15 120,31 160,44 20,6 37,12 48,16 11,4 17,7 17,7z"/>
   <path class="fil2" d="M2053 2502c1,0 -7,9 -20,25 -14,17 -33,39 -56,66 -47,56 -109,136 -173,227 -64,91 -117,177 -153,240 -18,31 -32,56 -43,75 -10,18 -16,27 -17,27 -1,0 4,-11 13,-29 9,-18 23,-45 40,-77 35,-64 87,-151 151,-243 64,-92 128,-171 176,-226 24,-28 44,-50 58,-64 14,-15 22,-23 23,-22z"/>
  </g>
  <path class="fil6" d="M4941 4451l-3812 0 0 -2051c0,-98 79,-177 177,-177l3459 0c98,0 177,79 177,177l0 2051z"/>
  <polygon class="fil7" points="1283,4314 4810,4314 4810,2384 1283,2384 "/>
  <path class="fil8" d="M3121 4620c0,48 -39,86 -86,86 -48,0 -86,-39 -86,-86 0,-48 39,-86 86,-86 48,0 86,39 86,86z"/>
  <path class="fil9" d="M3768 5280l-1466 0 0 0c0,-62 51,-113 113,-113l1240 0c62,0 113,51 113,113l0 0z"/>
  <path class="fil10" d="M4476 4120l-1430 0c-38,0 -69,-31 -69,-69l0 -1363c0,-38 31,-69 69,-69l1430 0c38,0 69,31 69,69l0 1363c0,38 -31,69 -69,69z"/>
  <path class="fil11" d="M2629 4120l-1021 0c-39,0 -71,-32 -71,-71l0 -700c0,-39 32,-71 71,-71l1021 0c39,0 71,32 71,71l0 700c0,39 -32,71 -71,71z"/>
  <path class="fil12" d="M2542 3874l-849 0c-13,0 -24,-11 -24,-24l0 -2c0,-13 11,-24 24,-24l849 0c13,0 24,11 24,24l0 2c0,13 -11,24 -24,24z"/>
  <path class="fil12" d="M2177 3992l-484 0c-13,0 -24,-11 -24,-24l0 -2c0,-13 11,-24 24,-24l484 0c13,0 24,11 24,24l0 2c0,13 -11,24 -24,24z"/>
  <path class="fil13" d="M1959 3535c0,88 -72,160 -160,160 -88,0 -160,-72 -160,-160 0,-88 72,-160 160,-160 88,0 160,72 160,160z"/>
  <path class="fil11" d="M2201 2841l-630 0c-13,0 -24,-11 -24,-24l0 -2c0,-13 11,-24 24,-24l630 0c13,0 24,11 24,24l0 2c0,13 -11,24 -24,24z"/>
  <path class="fil11" d="M2458 3158l-887 0c-13,0 -24,-11 -24,-24l0 -2c0,-13 11,-24 24,-24l887 0c13,0 24,11 24,24l0 2c0,13 -11,24 -24,24z"/>
  <path class="fil11" d="M2669 2999l-1098 0c-13,0 -24,-11 -24,-24l0 -2c0,-13 11,-24 24,-24l1098 0c13,0 24,11 24,24l0 2c0,13 -11,24 -24,24z"/>
  <path class="fil14" d="M4143 3315c0,83 -68,151 -151,151 -83,0 -151,-68 -151,-151 0,-83 68,-151 151,-151 83,0 151,68 151,151z"/>
  <path class="fil12" d="M3575 3736l849 0c13,0 24,11 24,24l0 2c0,13 -11,24 -24,24l-849 0c-13,0 -24,-11 -24,-24l0 -2c0,-13 11,-24 24,-24z"/>
  <path class="fil12" d="M3940 3618l484 0c13,0 24,11 24,24l0 2c0,13 -11,24 -24,24l-484 0c-13,0 -24,-11 -24,-24l0 -2c0,-13 11,-24 24,-24z"/>
  <path class="fil12" d="M3565 3967l849 0c13,0 24,11 24,24l0 2c0,13 -11,24 -24,24l-849 0c-13,0 -24,-11 -24,-24l0 -2c0,-13 11,-24 24,-24z"/>
  <path class="fil12" d="M3931 3849l484 0c13,0 24,11 24,24l0 2c0,13 -11,24 -24,24l-484 0c-13,0 -24,-11 -24,-24l0 -2c0,-13 11,-24 24,-24z"/>
  <g style="clip-path:url(#id0)">
   <image x="2873" y="1625" width="2488" height="2356" xlink:href="main-icon_Images\main-icon_ImgID1.png"/>
  </g>
 </g>
</svg>
