<?xml version="1.0" encoding="UTF-8"?>
<!DOCTYPE svg PUBLIC "-//W3C//DTD SVG 1.1//EN" "http://www.w3.org/Graphics/SVG/1.1/DTD/svg11.dtd">
<!-- Creator: CorelDRAW X6 -->
<svg xmlns="http://www.w3.org/2000/svg" xml:space="preserve" width="25.4mm" height="25.4mm" version="1.1" style="shape-rendering:geometricPrecision; text-rendering:geometricPrecision; image-rendering:optimizeQuality; fill-rule:evenodd; clip-rule:evenodd"
viewBox="0 0 2540 2540"
 xmlns:xlink="http://www.w3.org/1999/xlink">
 <defs>
  <style type="text/css">
   <![CDATA[
    .str0 {stroke:#2B2A29;stroke-width:20}
    .str1 {stroke:#FEFEFE;stroke-width:67.73;stroke-opacity:0.380392}
    .fil3 {fill:none}
    .fil2 {fill:none}
    .fil0 {fill:#5B5B5B}
    .fil1 {fill:#FEFEFE}
   ]]>
  </style>
 </defs>
 <g id="Слой_x0020_1">
  <metadata id="CorelCorpID_0Corel-Layer"/>
  <rect class="fil0 str0" x="3869" y="-3141" width="3099" height="8738"/>
  <rect class="fil0 str0" x="-5846" y="-538" width="4250" height="4724"/>
  <g id="_184956240">
   <path class="fil1" d="M5772 1745c-44,0 -96,-45 -139,-77l-206 -152c-11,8 -14,12 -24,22l-71 67c-27,27 -61,73 -107,77 0,-22 3,-19 5,-37 1,-13 -1,-29 0,-41l9 -120c0,-23 4,-21 5,-41 3,-83 -5,-48 38,-91l273 -246c8,-7 15,-15 23,-23l114 -102c10,-7 15,-14 24,-22l67 -61c13,-10 15,-8 16,-29 -49,0 -76,28 -128,61 -9,6 -14,8 -23,14l-522 328c-72,41 -11,38 -171,-9 -19,-6 -28,-8 -46,-14l-126 -40c-18,-8 -23,-14 -37,-23 0,-26 -2,-33 21,-48 34,-23 455,-179 534,-210l577 -223c20,-8 67,-28 85,-28 91,0 44,135 31,199 -8,41 -19,84 -28,129 -42,209 -96,436 -137,644 -7,37 -16,97 -59,97zm-382 -1778l97 0c120,5 240,28 354,68 19,7 33,13 53,21 135,54 237,129 345,220 123,103 256,310 311,470 58,169 67,256 67,438 0,139 -47,334 -110,459 -51,102 -70,135 -137,222l-62 76c-90,107 -243,205 -369,269 -143,72 -316,107 -486,109l-18 0c-98,-1 -194,-13 -284,-35 -39,-10 -75,-21 -109,-33l-216 -105 -163 -122c-9,-8 -10,-6 -18,-14 -45,-38 -130,-141 -165,-189l-55 -87c-30,-57 -46,-80 -71,-145 -70,-179 -87,-283 -87,-483 0,-128 29,-247 67,-360 30,-89 95,-211 146,-281 83,-115 207,-242 329,-314l90 -52c46,-23 97,-48 147,-65 38,-13 69,-23 109,-33 78,-20 157,-31 237,-34z"/>
   <path class="fil2 str1" d="M5442 -106c690,0 1249,559 1249,1249 0,690 -559,1249 -1249,1249 -690,0 -1249,-559 -1249,-1249 0,-690 559,-1249 1249,-1249z"/>
  </g>
  <g id="_186173072">
   <path class="fil1" d="M5215 -1650c27,18 161,133 188,133 20,0 38,-18 50,-28l138 -106 97 91c6,6 10,10 16,16 9,8 10,6 18,14l333 310c6,6 10,10 16,16 13,11 41,25 47,49 -29,1 -40,14 -73,14l-1284 0c-34,0 -44,-13 -73,-14 6,-23 32,-36 45,-47l216 -202c6,-6 10,-11 16,-16l85 -76c11,-11 20,-22 32,-32l134 -123zm1362 -53l0 101c-6,138 -36,275 -89,405 -36,89 -74,151 -127,226 -47,68 -137,173 -202,220l-102 77c-63,42 -91,56 -158,90l-101 42c-116,39 -232,62 -348,67l-102 0c-115,-5 -231,-28 -346,-68 -79,-28 -144,-63 -216,-105 -10,-6 -14,-8 -22,-14 -78,-52 -205,-154 -261,-230 -60,-82 -90,-106 -144,-214 -9,-17 -14,-29 -23,-46 -9,-18 -14,-32 -22,-51 -23,-59 -36,-92 -53,-158 -32,-128 -34,-190 -34,-318l0 -6c0,-89 15,-177 34,-250 40,-159 111,-302 210,-432 6,-8 9,-14 16,-21l32 -37c18,-18 58,-68 87,-92 10,-8 10,-6 20,-16 8,-8 8,-9 17,-15 10,-7 10,-9 20,-17 45,-39 141,-100 195,-127 17,-9 29,-14 46,-23 54,-27 152,-60 210,-75 131,-33 193,-34 322,-34l6 0c205,0 472,89 638,215l117 94c32,27 69,74 87,92l48 58c62,82 85,121 134,219 26,54 61,154 75,210 19,77 31,156 34,234zm-913 -2c9,-13 44,-36 58,-47l423 -324 0 816 -210 -194c-12,-12 -20,-15 -32,-27l-87 -83c-27,-27 -138,-121 -153,-141zm-1004 445l0 -816 361 276c25,22 108,78 120,95l-58 56c-9,8 -8,6 -16,12l-195 181c-11,11 -19,19 -30,30l-119 110c-5,5 -8,9 -14,14l-49 42zm46 -899l1394 0 -431 335c-19,14 -254,202 -266,202 -9,0 -25,-17 -43,-30l-588 -453c-9,-7 -15,-11 -24,-18 -11,-9 -36,-26 -43,-35z"/>
   <path class="fil2 str1" d="M5403 -2899c690,0 1249,559 1249,1249 0,690 -559,1249 -1249,1249 -690,0 -1249,-559 -1249,-1249 0,-690 559,-1249 1249,-1249z"/>
  </g>
  <g id="_186174096">
   <path class="fil1" d="M944 1146c0,74 6,66 58,135 54,72 178,192 243,243 43,34 85,76 144,76 94,0 161,-170 234,-170 28,0 113,97 136,120 20,20 125,116 125,136l0 18c0,20 -135,174 -275,174 -128,0 -254,-61 -358,-124 -80,-48 -97,-62 -164,-116 -38,-30 -145,-131 -173,-166 -11,-14 -17,-19 -28,-32 -70,-89 -129,-172 -176,-278 -40,-88 -55,-124 -55,-215 0,-68 33,-137 63,-175 26,-33 95,-114 134,-114 27,0 101,85 123,107 40,40 77,77 117,117 54,53 8,76 -46,131 -26,26 -102,90 -102,132zm276 -1050l98 0c92,3 181,15 251,36 160,48 244,82 382,178 94,65 218,188 282,283 73,107 97,157 144,278 13,34 22,68 32,105 18,63 35,167 35,245 0,236 -19,350 -110,555 -7,15 -16,33 -25,49 -74,124 -94,164 -208,278 -166,166 -317,243 -536,308 -69,20 -156,32 -245,35l-98 0c-92,-3 -181,-15 -251,-36 -89,-27 -120,-36 -206,-74 -202,-90 -404,-282 -514,-473 -45,-78 -54,-104 -89,-191 -59,-150 -67,-286 -67,-451 0,-111 33,-261 70,-356 14,-36 25,-64 40,-98 90,-202 282,-404 473,-514 78,-45 104,-54 191,-89 35,-14 67,-21 105,-32 69,-20 156,-32 245,-35z"/>
   <path class="fil2 str1" d="M1270 21c690,0 1249,559 1249,1249 0,690 -559,1249 -1249,1249 -690,0 -1249,-559 -1249,-1249 0,-690 559,-1249 1249,-1249z"/>
  </g>
  <g id="_186063200">
   <path class="fil1" d="M-3723 3076c0,9 2,18 6,24 9,15 13,21 4,38 -10,-1 -24,-9 -30,-18 -17,-23 -15,-69 0,-93 12,-19 20,-28 38,-41 34,-23 82,-25 119,-11 14,5 21,11 32,19 7,6 17,19 21,29 6,14 6,25 9,42 1,10 -3,34 -6,44 -4,13 -9,24 -16,35 -17,26 -39,37 -72,37 -13,0 -24,-6 -33,-13 -3,-2 -6,-5 -10,-6 0,12 -10,48 -14,57 -4,9 -7,16 -12,24 -4,6 -12,15 -17,19 -7,-32 3,-81 10,-108 3,-11 6,-23 9,-34 5,-20 2,-12 -1,-24 -7,-25 6,-63 30,-63 14,0 25,9 25,22 0,11 -4,25 -7,34 -9,28 -21,64 21,64 34,0 53,-49 53,-82 0,-24 -2,-42 -19,-59 -26,-26 -69,-23 -99,-4 -21,13 -40,39 -40,68zm-164 34c0,64 17,110 52,157 3,3 5,6 7,9l15 16c8,8 24,21 34,27 3,2 6,4 9,6 9,6 21,12 30,16 27,13 69,21 101,22 12,0 43,-4 55,-6 14,-3 33,-9 46,-15 29,-13 52,-29 73,-50 70,-70 91,-165 60,-259 -3,-8 -6,-15 -9,-22 -15,-37 -53,-79 -84,-99 -27,-18 -52,-30 -85,-37 -8,-2 -18,-4 -26,-4l-29 -2 -28 2c-39,3 -79,20 -111,41 -6,4 -20,15 -26,20 -6,6 -7,5 -16,15 -2,3 -5,5 -7,8 -17,22 -22,28 -36,56 -12,24 -23,64 -23,99z"/>
   <path class="fil2 str1" d="M-3641 2852c145,0 263,118 263,263 0,145 -118,263 -263,263 -145,0 -263,-118 -263,-263 0,-145 118,-263 263,-263z"/>
  </g>
  <g id="_185945424">
   <path class="fil1" d="M-4910 2086c-1,21 -9,32 -22,41 -24,15 -69,16 -90,-13 -24,-32 -14,-109 58,-105 38,2 57,28 55,68l-85 0c0,17 7,31 22,34 13,2 23,-4 27,-15 5,-13 -8,-10 36,-10zm-86 -26l51 0c-1,-16 -9,-26 -25,-26 -17,0 -25,10 -26,26zm-105 -26c17,-2 19,-29 8,-38 -8,-7 -43,-3 -56,-4l0 42 48 0zm-49 77c6,2 42,1 51,1 36,-1 35,-49 1,-51 -9,-1 -44,-1 -52,0l0 50zm95 -307l14 0c18,1 36,3 53,7 21,5 25,7 44,15 14,6 26,14 38,22l33 27 27 33c17,25 30,51 38,82 7,28 7,41 7,69l0 1c0,45 -19,98 -45,134 -18,25 -28,35 -51,53 -3,2 -5,4 -8,6 -6,4 -12,8 -18,12 -7,4 -12,6 -19,10 -23,11 -61,23 -95,23l-21 0c-40,0 -86,-16 -115,-34 -45,-27 -75,-61 -99,-109 -11,-22 -23,-62 -23,-95l0 -18c0,-34 12,-74 23,-97 9,-18 11,-21 22,-38 2,-3 4,-6 7,-9l14 -16c7,-9 30,-28 40,-34 17,-11 29,-19 49,-27 4,-2 7,-2 11,-4 7,-3 15,-5 23,-7 17,-4 34,-6 51,-7zm-130 162c20,0 40,0 60,0 33,0 75,-6 77,44 1,18 -9,34 -24,35 11,2 16,4 22,11 5,6 7,17 7,26 1,58 -41,55 -77,55 -22,0 -43,0 -65,0l0 -171zm180 17l68 0 0 17 -68 0 0 -17z"/>
   <path class="fil2 str1" d="M-5046 1789c145,0 263,118 263,263 0,145 -118,263 -263,263 -145,0 -263,-118 -263,-263 0,-145 118,-263 263,-263z"/>
  </g>
  <rect class="fil3 str0" x="3869" y="5664" width="3099" height="4487"/>
 </g>
</svg>
