<?xml version="1.0" encoding="UTF-8"?>
<!DOCTYPE svg PUBLIC "-//W3C//DTD SVG 1.1//EN" "http://www.w3.org/Graphics/SVG/1.1/DTD/svg11.dtd">
<!-- Creator: CorelDRAW X6 -->
<svg xmlns="http://www.w3.org/2000/svg" xml:space="preserve" width="23.7066mm" height="23.7066mm" version="1.1" style="shape-rendering:geometricPrecision; text-rendering:geometricPrecision; image-rendering:optimizeQuality; fill-rule:evenodd; clip-rule:evenodd"
viewBox="0 0 2371 2371"
 xmlns:xlink="http://www.w3.org/1999/xlink">
 <defs>
  <style type="text/css">
   <![CDATA[
    .str0 {stroke:#2B2A29;stroke-width:20}
    .str1 {stroke:#FEFEFE;stroke-width:67.73;stroke-opacity:0.380392}
    .fil3 {fill:none}
    .fil2 {fill:none}
    .fil0 {fill:#5B5B5B}
    .fil1 {fill:#FEFEFE}
   ]]>
  </style>
 </defs>
 <g id="Слой_x0020_1">
  <metadata id="CorelCorpID_0Corel-Layer"/>
  <rect class="fil0 str0" x="3785" y="-3226" width="3099" height="8738"/>
  <rect class="fil0 str0" x="-5931" y="-623" width="4250" height="4724"/>
  <g id="_1006736096">
   <path class="fil1" d="M5692 1739c-41,0 -90,-42 -129,-72l-192 -142c-11,7 -13,11 -22,20l-66 62c-25,25 -57,68 -100,72 0,-21 3,-18 4,-34 1,-12 -1,-27 0,-39l8 -111c0,-21 4,-19 5,-38 3,-77 -5,-44 35,-85l255 -229c8,-7 14,-14 21,-21l107 -95c9,-7 14,-13 22,-21l63 -57c12,-9 14,-8 15,-27 -46,0 -71,26 -119,57 -8,5 -13,7 -22,13l-486 306c-68,39 -10,36 -160,-9 -17,-5 -26,-7 -43,-13l-117 -37c-17,-7 -21,-13 -34,-22 0,-25 -2,-31 20,-45 32,-21 424,-167 498,-196l538 -208c19,-7 62,-26 80,-26 84,0 41,126 29,186 -8,38 -17,78 -26,120 -39,195 -90,407 -128,600 -7,35 -15,90 -55,90zm-356 -1657l91 0c112,5 223,26 330,64 17,6 31,12 49,19 126,50 221,120 322,205 114,96 239,289 290,438 54,158 63,239 63,409 0,130 -44,311 -103,428 -48,95 -65,125 -127,207l-58 71c-84,100 -226,191 -344,251 -134,67 -294,100 -453,101l-17 0c-91,-1 -181,-12 -265,-33 -36,-9 -70,-20 -102,-31l-201 -98 -152 -113c-9,-8 -9,-6 -17,-13 -42,-35 -121,-132 -154,-176l-52 -81c-28,-53 -43,-75 -66,-135 -65,-167 -81,-264 -81,-450 0,-119 27,-231 63,-336 28,-83 89,-197 136,-262 78,-107 193,-226 307,-293l84 -49c43,-22 90,-44 137,-60 35,-12 64,-22 102,-31 73,-18 147,-29 221,-32z"/>
   <path class="fil2 str1" d="M5384 13c643,0 1164,521 1164,1164 0,643 -521,1164 -1164,1164 -643,0 -1164,-521 -1164,-1164 0,-643 521,-1164 1164,-1164z"/>
  </g>
  <g id="_1006735936">
   <path class="fil1" d="M5114 -1524c25,17 150,124 175,124 18,0 35,-17 47,-26l128 -98 91 84c6,6 9,10 15,15 9,8 9,6 17,13l310 289c6,6 9,10 15,15 12,11 38,23 44,46 -27,1 -37,13 -68,13l-1197 0c-32,0 -41,-12 -68,-13 6,-21 30,-34 42,-44l201 -188c5,-5 9,-10 15,-15l79 -71c10,-11 19,-20 30,-30l125 -114zm1270 -50l0 94c-6,129 -34,256 -83,377 -34,83 -69,141 -118,211 -44,63 -127,161 -188,205l-95 72c-59,39 -85,52 -147,84l-94 39c-108,37 -216,58 -324,62l-95 0c-108,-5 -215,-26 -322,-64 -74,-26 -134,-59 -202,-98 -9,-5 -13,-8 -21,-13 -73,-49 -191,-144 -243,-215 -56,-77 -84,-99 -134,-200 -8,-16 -13,-27 -21,-43 -9,-17 -14,-30 -21,-48 -21,-55 -34,-86 -49,-148 -30,-120 -32,-177 -32,-296l0 -6c0,-83 14,-165 32,-233 37,-148 104,-281 196,-402 6,-7 9,-13 15,-19l30 -34c17,-17 54,-64 81,-85 9,-7 10,-6 19,-15 8,-8 8,-8 16,-14 9,-7 10,-9 18,-16 42,-36 131,-93 181,-118 16,-8 27,-13 43,-21 50,-25 142,-56 196,-70 122,-30 180,-32 300,-32l6 0c191,0 440,83 595,200l109 87c30,25 65,69 81,86l45 54c58,77 80,113 125,204 25,50 57,144 69,196 18,72 28,145 32,218zm-851 -2c9,-12 41,-34 54,-44l395 -302 0 761 -196 -181c-12,-11 -18,-14 -30,-26l-81 -77c-25,-25 -129,-113 -142,-131zm-936 415l0 -761 337 258c24,21 100,72 112,89l-54 52c-8,7 -8,5 -15,11l-182 169c-10,10 -18,18 -28,28l-111 103c-5,5 -8,9 -13,13l-46 40zm43 -838l1300 0 -402 312c-18,13 -237,188 -248,188 -8,0 -23,-16 -40,-28l-548 -422c-8,-6 -14,-10 -22,-17 -11,-8 -33,-24 -40,-33z"/>
   <path class="fil2 str1" d="M5289 -2688c643,0 1164,521 1164,1164 0,643 -521,1164 -1164,1164 -643,0 -1164,-521 -1164,-1164 0,-643 521,-1164 1164,-1164z"/>
  </g>
  <g id="_1006734272">
   <path class="fil1" d="M5183 4118c0,69 6,62 54,126 51,67 166,179 227,227 40,31 79,71 134,71 87,0 150,-158 218,-158 26,0 106,91 127,112 18,18 117,108 117,127l0 17c0,19 -126,162 -257,162 -119,0 -237,-57 -334,-115 -74,-44 -90,-58 -153,-108 -36,-28 -135,-122 -161,-155 -10,-13 -16,-17 -26,-30 -65,-83 -120,-161 -164,-259 -37,-82 -51,-115 -51,-201 0,-64 31,-127 59,-163 24,-30 89,-106 125,-106 25,0 94,79 114,99 37,37 71,72 109,109 50,49 8,71 -43,122 -24,24 -95,84 -95,123zm257 -979l91 0c86,3 168,14 234,34 149,45 227,76 356,166 88,61 203,175 263,263 68,100 91,147 135,259 13,32 20,64 30,98 17,59 33,156 33,228 0,220 -18,326 -103,517 -6,14 -15,31 -23,45 -69,116 -87,153 -194,259 -155,155 -295,227 -500,287 -64,19 -145,30 -229,33l-91 0c-86,-3 -168,-14 -234,-34 -83,-25 -112,-34 -192,-69 -188,-84 -377,-263 -479,-441 -42,-72 -51,-97 -83,-178 -55,-140 -63,-267 -63,-420 0,-103 31,-243 65,-332 13,-34 23,-60 37,-91 84,-188 263,-377 441,-479 72,-42 97,-51 178,-83 33,-13 62,-20 98,-30 64,-19 145,-30 229,-33z"/>
   <path class="fil2 str1" d="M5486 3069c643,0 1164,521 1164,1164 0,643 -521,1164 -1164,1164 -643,0 -1164,-521 -1164,-1164 0,-643 521,-1164 1164,-1164z"/>
  </g>
  <g id="_1006733984">
   <path class="fil1" d="M819 1011c0,40 10,81 26,107 39,64 57,94 19,167 -46,-4 -105,-39 -134,-78 -76,-102 -65,-304 -1,-410 52,-86 87,-126 168,-180 150,-100 363,-113 528,-48 60,23 95,48 141,85 32,26 75,86 93,127 27,63 29,110 38,187 5,44 -14,151 -26,193 -17,58 -40,108 -71,154 -77,113 -175,164 -317,164 -56,0 -104,-28 -144,-59 -15,-11 -26,-21 -45,-25 0,53 -45,211 -63,255 -16,40 -32,71 -54,105 -18,27 -52,65 -77,82 -33,-140 15,-360 45,-480 12,-49 26,-103 38,-152 23,-91 9,-53 -6,-108 -29,-111 25,-280 134,-280 61,0 110,39 110,97 0,51 -19,112 -33,153 -41,123 -92,284 94,284 149,0 234,-217 234,-362 0,-106 -11,-184 -85,-259 -115,-116 -306,-101 -437,-20 -95,59 -176,171 -176,301zm-728 150c0,285 74,486 229,693 11,15 21,25 32,39l65 72c37,35 108,93 149,121 15,10 25,17 40,27 40,27 93,52 135,72 121,59 305,95 446,97 54,1 191,-17 242,-28 63,-13 147,-41 203,-67 128,-60 229,-126 322,-220 309,-309 404,-730 266,-1147 -12,-36 -27,-66 -40,-97 -66,-162 -235,-351 -371,-441 -119,-79 -231,-134 -377,-166 -38,-8 -78,-16 -117,-19l-128 -9 -123 9c-171,14 -350,88 -492,183 -27,18 -90,66 -113,90 -28,29 -33,23 -69,68 -10,13 -22,21 -32,34 -77,97 -98,124 -161,249 -54,106 -103,282 -103,440z"/>
   <path class="fil2 str1" d="M1185 21c643,0 1164,521 1164,1164 0,643 -521,1164 -1164,1164 -643,0 -1164,-521 -1164,-1164 0,-643 521,-1164 1164,-1164z"/>
  </g>
  <g id="_1006735200">
   <path class="fil1" d="M-3686 2831c-3,93 -41,144 -98,180 -107,69 -306,71 -401,-57 -105,-141 -63,-481 256,-465 170,9 252,125 242,303l-378 1c2,76 30,136 98,149 57,10 101,-19 120,-67 22,-57 -36,-45 161,-44zm-379 -115l227 1c-5,-69 -41,-113 -113,-114 -73,-1 -110,43 -115,113zm-467 -115c74,-9 84,-129 35,-171 -35,-30 -189,-15 -248,-17l-1 188 214 0zm-215 341c28,7 185,3 225,2 161,-4 154,-219 4,-227 -41,-2 -195,-5 -229,2l0 223zm423 -1358l63 0c79,2 158,13 233,32 95,24 110,33 197,69 61,25 113,61 168,97l145 120 121 144c77,110 134,227 168,362 31,122 32,183 32,304l0 6c0,200 -83,434 -198,592 -82,112 -126,154 -226,236 -13,10 -23,18 -37,28 -27,18 -51,36 -81,52 -29,16 -53,29 -84,44 -102,51 -272,104 -422,104l-94 0c-175,0 -380,-72 -509,-149 -201,-121 -331,-271 -437,-482 -49,-97 -101,-276 -101,-420l0 -81c0,-151 53,-329 104,-430 40,-80 48,-93 99,-166 11,-15 18,-25 29,-39l61 -72c30,-39 135,-124 177,-152 76,-51 131,-84 216,-118 17,-7 30,-10 47,-17 33,-13 68,-22 102,-30 73,-18 150,-29 227,-31zm-575 716c88,0 177,0 265,0 145,0 332,-27 339,194 3,78 -39,149 -106,156 49,10 71,18 96,50 21,27 31,74 32,115 3,259 -183,243 -340,243 -95,0 -191,0 -287,0l0 -759zm797 76l303 0 0 76 -303 -1 1 -75z"/>
   <path class="fil2 str1" d="M-4292 1513c643,0 1164,521 1164,1164 0,643 -521,1164 -1164,1164 -643,0 -1164,-521 -1164,-1164 0,-643 521,-1164 1164,-1164z"/>
  </g>
  <rect class="fil3 str0" x="3785" y="5580" width="3099" height="4487"/>
 </g>
</svg>
