<?xml version="1.0" encoding="UTF-8"?>
<!DOCTYPE svg PUBLIC "-//W3C//DTD SVG 1.1//EN" "http://www.w3.org/Graphics/SVG/1.1/DTD/svg11.dtd">
<!-- Creator: CorelDRAW X6 -->
<svg xmlns="http://www.w3.org/2000/svg" xml:space="preserve" width="18.2032mm" height="20.32mm" version="1.1" style="shape-rendering:geometricPrecision; text-rendering:geometricPrecision; image-rendering:optimizeQuality; fill-rule:evenodd; clip-rule:evenodd"
viewBox="0 0 1820 2032"
 xmlns:xlink="http://www.w3.org/1999/xlink">
 <defs>
  <style type="text/css">
   <![CDATA[
    .fil1 {fill:#9D9E9E}
    .fil0 {fill:#B2B3B3}
    .fil2 {fill:#FEFEFE}
   ]]>
  </style>
 </defs>
 <g id="Слой_x0020_1">
  <metadata id="CorelCorpID_0Corel-Layer"/>
  <path class="fil0" d="M-1797 -460l-9 1 -2 1 -2 0 -2 1 -3 0 -2 1 -1 0 -2 1 -5 1 -2 1 -6 3c0,1 0,1 -1,1l0 0c0,1 0,1 -1,1 0,1 0,1 -1,1 -3,2 -4,3 -6,6 0,1 0,1 -1,1 0,1 0,1 -1,1l0 0c0,2 0,1 -1,1l0 0c0,2 1,1 -1,1l0 0 -1 1 0 1 -1 2 0 1 -1 2 0 1 -1 3 0 8 1 2 0 1 1 2 4 8c1,0 1,0 1,1l1 2c1,0 1,0 1,1 1,0 1,0 1,1 1,0 1,0 1,1l1 1c1,0 1,0 1,1l1 1c1,0 1,0 1,1 1,0 1,0 1,1 1,0 1,0 1,1 1,0 1,0 1,1l2 2c1,0 1,0 1,1 1,0 1,0 1,1l2 1c1,0 1,0 1,1l2 1c2,0 1,0 1,1l3 2c2,0 1,0 1,1l0 0c2,0 1,0 1,1l1 0c2,0 1,-1 1,1l0 0c2,0 1,-1 1,1l1 0c2,0 1,-1 1,1l0 0c2,0 1,-1 1,1l0 0c2,0 1,-1 1,1l0 0c2,0 1,-1 1,1l2 1c2,0 1,-1 1,1l0 0c2,0 1,-1 1,1l0 0c2,0 1,-1 1,1l0 0c2,0 1,-1 1,1l0 0c2,0 1,-1 1,1l0 0 1 1 0 0c2,0 1,-1 1,1l0 0 2 1 1 0c2,0 2,-1 2,1l0 0c2,0 1,-1 1,1l1 0c2,0 1,-1 1,1l0 0 1 1 5 2c2,0 1,-1 1,1l0 0 1 1 3 1c2,0 2,-1 2,1l1 0 1 1 1 0 1 1 1 0 1 1 1 0 2 1 1 0 2 1 1 0 2 1 1 0 2 1 1 0 2 1 1 0 2 1 1 0 2 1 1 0 2 1 1 0 2 1 1 0 2 1 1 0c2,0 2,-1 2,1l3 1c2,0 2,-1 2,1l0 0 2 1 1 0c2,0 2,-1 2,1l0 0 1 1 3 1c2,0 1,-1 1,1l1 0 1 1 3 1c2,0 1,-1 1,1l0 0c2,0 1,-1 1,1l1 0 1 1 0 0c2,0 2,-1 2,1l3 1c2,0 1,-1 1,1l1 0c2,0 1,-1 1,1l0 0c2,0 1,-1 1,1l0 0c2,0 1,-1 1,1l0 0c2,0 1,-1 1,1l0 0c2,0 1,-1 1,1l0 0c2,0 1,-1 1,1l0 0c2,0 1,-1 1,1l0 0c2,0 1,-1 1,1l0 0c2,0 1,0 1,1l0 0c2,0 1,0 1,1l0 0c2,0 1,-1 1,1l0 0c2,0 1,-1 1,1l5 2c2,0 1,0 1,1l0 0c2,0 1,0 1,1l1 0c2,0 1,0 1,1l0 0c2,0 1,0 1,1l2 1 1 1 1 0c2,0 1,0 1,1l0 0c2,0 1,0 1,1l3 2c2,0 1,0 1,1l0 0c2,0 1,0 1,1l2 1c2,0 1,0 1,1l0 0c2,0 1,0 1,1l1 1c2,0 1,0 1,1l0 0c2,0 1,0 1,1l1 1c2,0 1,0 1,1l2 1c2,0 1,0 1,1l4 3c1,0 1,0 1,1l1 1c1,0 1,0 1,1 1,0 1,0 1,1l1 1c1,0 1,0 1,1l2 2c1,0 1,0 1,1 1,0 1,0 1,1l3 2c1,0 1,0 1,1 1,0 1,0 1,1 1,0 1,0 1,1 1,0 1,0 1,1 4,4 7,7 11,11 1,0 1,0 1,1 1,0 1,0 1,1 1,0 1,0 1,1l2 3c1,0 1,0 1,1 1,0 1,0 1,1l2 2c1,0 1,0 1,1 1,0 1,0 1,1l1 1c1,0 1,0 1,1l2 3c1,0 1,0 1,1l1 2c1,0 1,0 1,1l0 0 1 1 1 2c1,0 1,0 1,1l1 2c1,0 1,0 1,1l0 1c1,0 1,0 1,1l0 0c1,0 1,0 1,1l0 1 1 1 0 0c1,0 1,0 1,1l0 0 1 1 0 0c2,0 1,0 1,2l1 3c1,0 1,0 1,2l1 3 1 2 0 1 1 2 0 1 1 2 0 1 1 2 0 2 1 2 1 4 1 2 0 2 1 2 0 2 1 2 0 3 1 2 0 3 1 3 0 6 1 4 0 27c0,3 0,3 -1,6l0 7 -1 3 0 2 -1 3 0 1 -1 3 0 3 -1 2 0 1 -1 2 0 1 -1 2 0 1 -1 2 0 1 -1 2 0 1 -1 2 0 1 -1 2 0 1 -1 2 0 1 -1 2 0 1 -1 2 0 1 -1 2 0 1c0,2 1,2 -1,2l0 0c0,2 1,1 -1,1l0 0c0,2 1,2 -1,2l-4 9 -1 1 0 0c0,2 0,1 -1,1l0 1c0,2 0,1 -1,1l-2 3c0,2 0,1 -1,1l-1 2c0,2 0,1 -1,1l0 1c0,2 0,1 -1,1l-1 1c0,1 0,1 -1,1 0,1 0,1 -1,1l-1 1c0,1 0,1 -1,1l-2 2c0,1 0,1 -1,1 0,1 0,1 -1,1l-2 2c0,1 0,1 -1,1 0,1 0,1 -1,1 0,1 0,1 -1,1l-3 4c0,1 0,1 -1,1 0,1 0,1 -1,1 0,1 0,1 -1,1 0,1 0,1 -1,1 0,1 0,1 -1,1 0,1 0,1 -1,1 0,1 0,1 -1,1 0,1 0,1 -1,1 0,1 0,1 -1,1 0,1 0,1 -1,1 0,1 0,1 -1,1 0,1 0,1 -1,1 0,1 0,1 -1,1 0,1 0,1 -1,1l-4 3c0,1 0,1 -1,1 0,1 0,1 -1,1 0,1 0,1 -1,1l-2 2c0,1 0,1 -1,1 0,1 0,1 -1,1l-2 1c0,1 0,1 -1,1 0,1 0,1 -1,1l-2 1c0,1 0,1 -1,1l-1 1c0,1 0,1 -1,1 0,1 0,1 -1,1l0 0c0,1 0,1 -1,1l-1 1c0,1 0,1 -1,1l-1 1c0,1 0,1 -1,1l0 0c0,1 0,1 -1,1 0,1 0,1 -1,1l-1 0c0,1 0,1 -1,1l0 0 -1 1 -5 3c0,1 0,1 -1,1l-1 0c0,1 0,1 -1,1l0 0c0,1 0,1 -1,1l-5 2 -2 1 0 0c0,1 0,1 -2,1l0 0c0,1 0,1 -1,1l-1 0 -1 1 0 0c0,1 0,1 -2,1l-1 0 -2 1 -1 0 -1 1 -1 0 -2 1 -1 0c0,1 0,1 -2,1l-1 0 -2 1 -1 0 -2 1 -1 0 -2 1 -1 0 -2 1 -1 0 -2 1 -1 0 -2 1 -1 0 -2 1 -1 0 -2 1 -5 1 -2 1 -1 0 -2 1 -2 0 -2 1 -2 0 -2 1 -2 0 -2 1 -2 0 -2 1 -2 0 -3 1 -3 0 -3 1 -4 0 -3 1 -4 0c-2,1 -2,1 -5,1l-2 0c0,2 -3,1 -4,1l-7 0 -7 1 -11 0 -4 1c-7,1 -31,1 -35,-1l-7 0 -5 -1 -8 0 -4 -1 -7 0 -3 -1 -5 0c-3,0 -3,0 -5,-1l-3 0 -3 -1 -9 -1 -3 -1 -3 0 -3 -1 -3 0 -2 -1 -2 0 -3 -1 -3 0 -2 -1 -2 0 -2 -1 -3 0 -2 -1 -2 0 -2 -1 -5 -1 -2 -1 -1 0 -2 -1 -2 0 -2 -1 -4 -1 -2 -1 -1 0 -2 -1 -1 0 -2 -1 -1 0 -2 -1 -1 0 -2 -1 -1 0 -2 -1 -1 0 -2 -1 -1 0 -2 -1 -1 0 -2 -1 -1 0 -2 -1 -1 0 -2 -1 -3 -1 -1 -1 -3 -1c-2,0 -1,1 -1,-1l-1 0c-2,0 -1,1 -1,-1l0 0 -2 -1 -4 -2c-1,0 -1,0 -1,-1 -2,-2 -4,-3 -5,-6l-1 -2 0 -140c0,-2 -1,-2 1,-2l1 -1c0,-1 0,-1 1,-1l1 0c1,-1 0,-1 2,-1 3,0 1,0 2,1l2 1c2,0 1,0 1,1l0 0c2,0 1,0 1,1l3 2c2,0 1,0 1,1l0 0c2,0 1,0 1,1l0 0c2,0 1,-1 1,1l0 0c2,0 1,-1 1,1l7 3 1 1 1 0 1 1 3 1c2,0 1,-1 1,1l0 0c2,0 1,-1 1,1l0 0c2,0 1,-1 1,1l0 0c2,0 2,-1 2,1l0 0 1 1 1 0 2 1 1 0 2 1 3 1c2,0 2,-1 2,1l1 0 2 1 1 0 2 1 1 0 2 1 1 0 2 1 1 0c2,0 2,-1 2,1l1 0c2,0 2,-1 2,1l1 0 2 1 1 0 2 1 4 1 2 1 2 0 2 1 4 1 2 1 4 1 2 1 5 1 2 1 1 0 2 1 2 0 2 1 1 0 3 1 2 0 3 1 6 1 2 1 3 0 3 1 1 0 2 1 10 1 3 1 12 1 6 1 5 0c2,0 3,0 5,0 1,0 2,0 3,0 2,0 1,0 3,1l25 0c1,-1 1,-1 3,-1 2,0 3,0 5,0l4 0 5 -1 8 -1 3 -1 2 0 2 -1 2 0 2 -1 2 0 2 -1 1 0 2 -1 1 0 2 -1 0 0c0,-1 0,-1 2,-1l3 -1 1 -1 1 0c0,-1 0,-1 1,-1l0 0c0,-1 0,-1 1,-1l2 -1c0,-1 0,-1 1,-1 3,-2 4,-3 6,-6 0,-1 0,-1 1,-1 0,-1 0,-1 1,-1l1 -2c0,-2 0,-1 1,-1l0 -1 1 -1 0 0 1 -2 0 -1 1 -2 0 -1 1 -2 0 -2 1 -2 -1 -10 -1 -2 0 0c-1,0 -1,0 -1,-2l-2 -4c-1,0 -1,0 -1,-1l-3 -5c-1,0 -1,0 -1,-1 -1,0 -1,0 -1,-1 -1,0 -1,0 -1,-1 -1,0 -1,0 -1,-1 -1,0 -1,0 -1,-1 -1,0 -1,0 -1,-1 -1,0 -1,0 -1,-1 -1,0 -1,0 -1,-1l-2 -2c-1,0 -1,0 -1,-1 -1,0 -1,0 -1,-1l-1 -1c-1,0 -1,0 -1,-1 -1,0 -1,0 -1,-1l0 0c-2,0 -1,0 -1,-1l-1 -1c-2,0 -1,0 -1,-1l0 0c-2,0 -1,1 -1,-1l-3 -2 -1 -1 -1 0c-2,0 -1,0 -1,-1l0 0c-2,0 -1,0 -1,-1l-1 0c-2,0 -1,0 -1,-1l0 0c-2,0 -1,0 -1,-1l-1 0c-2,0 -1,0 -1,-1l0 0c-2,0 -1,0 -1,-1l-1 0 -1 -1 -5 -2c-2,0 -1,1 -1,-1l-1 0 -1 -1 0 0 -2 -1 -3 -1c-2,0 -2,1 -2,-1l0 0 -1 -1 -1 0c-2,0 -2,1 -2,-1l0 0c-2,0 -1,1 -1,-1l0 0 -2 -1 -1 0c-2,0 -1,1 -1,-1l-1 0 -2 -1 -1 0c-2,0 -1,1 -1,-1l0 0c-2,0 -2,1 -2,-1l-3 -1 -2 -1 -1 0c-2,0 -2,1 -2,-1l-1 0 -2 -1 -1 0c-2,0 -2,1 -2,-1l-1 0 -2 -1 -1 0 -2 -1 -1 0c-2,0 -2,1 -2,-1l0 0 -2 -1 -1 0 -2 -1 -2 -1 -3 -1 -2 -1 -3 -1c-2,0 -2,1 -2,-1l0 0 -1 -1 -1 0c-2,0 -2,1 -2,-1l0 0 -1 -1 -3 -1c-2,0 -1,1 -1,-1l0 0c-2,0 -2,1 -2,-1l0 0 -1 -1 -1 0 -1 -1 -1 0c-2,0 -1,1 -1,-1l0 0c-2,0 -2,1 -2,-1l0 0c-2,0 -1,1 -1,-1l0 0c-2,0 -1,1 -1,-1l0 0 -1 -1 0 0c-2,0 -1,0 -1,-1l0 0 -1 -1 -1 0 -1 -1 0 0 -1 -1 -2 -1 -1 -1 -1 0 -1 -1 0 0c-2,0 -1,0 -1,-1l-1 0c-2,0 -1,0 -1,-1l0 0c-2,0 -1,0 -1,-1l-1 0c-2,0 -1,0 -1,-1l-3 -2c-2,0 -1,0 -1,-1l0 0c-2,0 -1,0 -1,-1l0 0c-2,0 -1,0 -1,-1l-2 -1c-2,0 -1,0 -1,-1l0 0c-2,0 -1,0 -1,-1l0 0c-2,0 -1,1 -1,-1l-2 -1c-2,0 -1,0 -1,-1l-3 -2c-2,0 -1,0 -1,-1l-1 -1c-2,0 -1,0 -1,-1l0 0c-2,0 -1,0 -1,-1l-2 -1c-2,0 -1,0 -1,-1l-2 -1c-1,0 -1,0 -1,-1l-2 -1c-1,0 -1,0 -1,-1l-2 -1c-1,0 -1,0 -1,-1l-2 -1 -1 -1 -1 -1 -1 -1c-1,0 -1,0 -1,-1l-1 -1c-1,0 -1,0 -1,-1l-2 -2c-1,0 -1,0 -1,-1 -1,0 -1,0 -1,-1l-3 -2c-1,0 -1,0 -1,-1 -1,0 -1,0 -1,-1l-6 -5c-1,0 -1,0 -1,-1l-1 -1c-1,0 -1,0 -1,-1 -1,0 -1,0 -1,-1 -1,0 -1,0 -1,-1l-1 -1c-1,0 -1,0 -1,-1l-5 -6c-1,0 -1,0 -1,-1 -1,0 -1,0 -1,-1l-2 -3c-1,0 -1,0 -1,-1l-1 -1 -2 -2c-1,0 -1,0 -1,-1 -1,0 -1,0 -1,-1l-1 -2c-1,0 -1,0 -1,-1l-2 -3c-1,0 -1,0 -1,-1l-1 -1c-1,0 -1,0 -1,-1l-1 -2c-1,0 -1,0 -1,-1l-1 -2c-1,0 -1,0 -1,-1l0 0c-1,0 -1,0 -1,-1l-1 -2c-2,0 -1,0 -1,-1l0 0c-1,0 -1,0 -1,-1l-2 -3c-2,0 -1,0 -1,-1l-1 -3 -1 -2 0 0 -1 -1 0 0c-2,0 -1,0 -1,-2l0 -1 -1 -2 0 -1 -1 -2 0 -1 -1 -2 0 -1 -1 -2 0 -1 -1 -2 -1 -4 -1 -2 -1 -5 -1 -2 0 -2c-1,-1 -1,0 -2,-3l0 -2 -1 -2 -1 -7c-1,-2 -1,-2 -1,-5l0 -4c-2,-3 -2,-21 0,-24l0 -7 1 -5 0 -5 1 -2 0 -3 1 -3 0 -2 1 -2 0 -2 1 -2 0 -2 1 -2 0 -1 1 -2 0 -1 1 -2 0 -1 1 -2 0 -1 1 -2 0 -1 1 -2 0 -1 1 -2 1 -3c0,-2 -1,-2 1,-2l1 -3c0,-2 -1,-2 1,-2l0 0 1 -1 2 -5c0,-2 -1,-1 1,-1l1 -2c0,-2 -1,-1 1,-1l2 -3 1 -1 0 -1c0,-2 0,-1 1,-1l0 0c0,-2 0,-1 1,-1l1 -2c0,-1 0,-1 1,-1l0 -1c0,-1 0,-1 1,-1 0,-1 0,-1 1,-1l0 -1c0,-2 0,-1 1,-1l1 -1c0,-1 0,-1 1,-1 0,-1 0,-1 1,-1l1 -1c0,-2 0,-1 1,-1l2 -2c0,-1 0,-1 1,-1 0,-1 0,-1 1,-1l2 -2c0,-1 0,-1 1,-1 0,-1 0,-1 1,-1l2 -3c0,-1 0,-1 1,-1 0,-1 0,-1 1,-1 0,-1 0,-1 1,-1 0,-1 0,-1 1,-1 0,-1 0,-1 1,-1 0,-1 0,-1 1,-1l1 -1c0,-1 0,-1 1,-1l1 -1c0,-1 0,-1 1,-1l1 -1c0,-2 0,-1 1,-1l1 -1c0,-1 0,-1 1,-1 0,-1 0,-1 1,-1 0,-1 0,-1 1,-1 0,-1 0,-1 1,-1l4 -3c0,-1 0,-1 1,-1 0,-1 0,-1 1,-1l2 -2c0,-1 0,-1 1,-1 0,-1 0,-1 1,-1l2 -1c0,-1 0,-1 1,-1 0,-1 0,-1 1,-1l2 -1c0,-1 0,-1 1,-1l1 -1 1 -1 4 -3c0,-1 0,-1 1,-1l2 -1c0,-1 0,-1 1,-1l1 0c0,-1 0,-1 1,-1l1 -1c0,-1 0,-1 1,-1l0 0c0,-1 0,-1 1,-1l17 -8c0,-1 0,-1 1,-1l0 0 1 -1 0 0c0,-1 0,-1 1,-1l0 0c0,-1 0,-1 2,-1l3 -1 1 -1 1 0 1 -1 1 0 2 -1 3 -1 2 -1 4 -1 2 -1 1 0 2 -1 1 0 2 -1 1 0 2 -1 1 0 2 -1 2 0 2 -1 1 0 2 -1 2 0 2 -1 2 0 2 -1 3 0 2 -1 2 0 4 -1 2 0 3 -1 2 0c2,-2 0,-1 3,-1l5 0 4 -1 3 0c2,-1 2,-1 4,-1l7 0 5 -1 51 0c4,0 10,0 12,1l3 -1c2,0 4,0 6,0 1,0 2,0 3,0 2,0 1,0 2,1l5 0 5 1 4 0c3,0 4,0 6,1l4 0 3 1 5 0c2,0 3,0 4,1l2 0 3 1 9 1 3 1 3 0 3 1 6 1 3 2 1 0 2 1 2 0 2 1 1 0 2 1 1 0 2 1 2 0 2 1 1 0 2 1 4 1 2 1 1 0 2 1 1 0 2 1 1 0 2 1 1 0c2,0 2,-1 2,1l0 0 2 1 1 0 2 1 1 0 2 1 1 0c2,0 1,0 1,1 3,2 2,2 4,4 2,0 1,0 1,1l0 2 1 2 0 1c2,2 1,56 1,64 0,4 1,61 -1,65l0 1c0,2 1,1 -1,1 -2,3 0,1 -3,2l-3 1 -1 0c-2,2 -5,2 -7,0l-1 0c-2,0 -2,1 -2,-1l0 0c-2,0 -1,0 -1,-1l0 0c-2,0 -1,1 -1,-1l0 0c-2,0 -1,1 -1,-1l-1 0c-2,0 -1,1 -1,-1l0 0c-2,0 -1,1 -1,-1l-1 0c-2,0 -1,1 -1,-1l0 0 -1 -1 -5 -2c-2,0 -2,1 -2,-1l0 0 -2 -1 -1 0c-2,0 -2,1 -2,-1l0 0 -2 -1 -1 0c-2,0 -2,1 -2,-1l0 0 -2 -1 -1 0 -2 -1 -1 0 -2 -1 -1 0 -2 -1 -1 0 -2 -1 -1 0 -2 -1 -1 0 -2 -1 -1 0 -2 -1 -1 0 -2 -1 -1 0 -2 -1 -1 0 -2 -1 -1 0 -2 -1 -2 0 -2 -1 -2 0 -2 -1 -2 0 -3 -1 -2 0 -2 -1 -7 -1 -2 -1 -2 0 -3 -1 -3 0 -3 -1 -9 -1 -3 -1 -3 0 -4 -1 -2 0c-3,0 -5,0 -7,-2l-6 0 -4 -1c-5,0 -14,0 -20,0 -7,0 -14,1 -20,0l-3 1zm-292 -32c0,3 0,6 -1,8l0 5 -1 4 0 5 -1 3 0 3c0,3 0,2 -1,4l-1 7 -1 2 0 3 -1 2 -1 6 -1 2 -1 5 -1 2 0 2 -1 2 0 2 -1 2 -2 7 -1 2 0 1 -1 2 0 1 -1 2 0 1 -1 2 0 1c0,2 1,2 -1,2l0 0 -1 2 0 1c0,2 1,2 -1,2l0 1 -1 2 0 1c0,2 1,2 -1,2l0 0c0,2 1,2 -1,2l-1 3c0,2 1,2 -1,2l0 0c0,2 1,1 -1,1l0 0c0,2 1,1 -1,1l0 0c0,2 0,1 -1,1l0 0c0,2 1,1 -1,1l0 0c0,2 1,1 -1,1l0 0c0,2 1,1 -1,1l0 0c0,2 0,1 -1,1l0 0c0,2 1,1 -1,1l-2 3c0,2 0,1 -1,1l0 1c0,2 0,1 -1,1l-1 2c0,2 0,1 -1,1l-2 3c0,2 0,1 -1,1l-1 2c0,2 0,1 -1,1l-1 1c0,2 0,1 -1,1l-1 2c0,2 0,1 -1,1l-2 2c0,2 0,1 -1,1l-2 2c0,1 0,1 -1,1l-2 2c0,1 0,1 -1,1 0,1 0,1 -1,1l-2 3 -1 1c0,1 0,1 -1,1l-3 3c0,1 0,1 -1,1 0,1 0,1 -1,1 0,1 0,1 -1,1 0,1 0,1 -1,1 0,1 0,1 -1,1 -4,5 -9,9 -14,14 0,1 0,1 -1,1 0,1 0,1 -1,1 0,1 0,1 -1,1 0,1 0,1 -1,1l-3 3c0,1 0,1 -1,1 0,1 0,1 -1,1 0,1 0,1 -1,1l-2 2c0,1 0,1 -1,1 0,1 0,1 -1,1l-2 2c0,1 0,1 -1,1 0,1 0,1 -1,1l-1 1c0,1 0,1 -1,1 0,1 0,1 -1,1l-1 1c0,1 0,1 -1,1l-2 1c0,1 0,1 -1,1l-1 1c0,1 0,1 -1,1 0,1 0,1 -1,1l-1 0c0,1 0,1 -1,1 0,1 0,1 -1,1l-1 0c0,1 0,1 -1,1l-2 1c0,1 0,1 -1,1l-1 1c0,1 0,1 -1,1l0 0c0,1 0,1 -1,1l-2 1c0,2 0,1 -1,1l0 0c0,1 0,1 -1,1l0 0c0,1 0,1 -1,1l-2 1c0,2 0,1 -1,1l0 0c0,1 0,1 -1,1l0 0c0,1 0,1 -1,1l0 0c0,1 0,1 -1,1l0 0c0,1 0,1 -1,1l0 0c0,1 0,1 -1,1l0 0c0,1 0,1 -1,1l0 0c0,1 0,1 -1,1l0 0c0,1 0,1 -1,1l-3 1 -2 1 0 0 -1 1 -1 0c0,1 0,1 -1,1l-3 1 -2 1 -3 1c0,1 0,1 -2,1l-1 0 -2 1 -1 0c0,1 0,1 -2,1l-1 0c0,2 0,1 -2,1l-1 0 -2 1 -1 0 -2 1 -1 0 -2 1 -1 0 -2 1 -1 0 -2 1 -4 1 -2 1 -1 0 -2 1 -1 0 -2 1 -2 0 -2 1 -1 0 -2 1 -2 0 -2 1 -1 0 -2 1 -2 0 -2 1 -2 0 -2 1 -2 0 -2 1 -3 0 -2 1 -2 0 -3 1 -2 0 -3 1 -4 0c-2,2 -1,1 -4,1l-2 0 -3 1 -3 0 -3 1 -13 1c-2,1 -2,1 -6,1l-2 0c-1,1 0,1 -3,1 -2,0 -1,0 -3,0l-9 0 -6 1 -68 1c-4,0 -5,0 -8,-1l-34 -1c-2,17 0,45 0,63 0,21 1,179 -1,186 0,2 0,1 -1,1l-2 2c0,1 0,1 -1,1l-1 0 -2 1 -149 0 -2 -1 -1 0c-2,0 -1,1 -1,-1 -1,0 -1,0 -1,-1 -1,0 -1,0 -1,-1l0 -1 -1 -2c-3,-5 -1,-642 -1,-775 0,-2 0,-4 0,-6 0,-3 0,-3 1,-5l0 -1c0,-2 -1,-1 1,-1l2 -2c0,-1 0,-1 1,-1l47 -1c3,-1 4,-1 8,-1l16 0c3,-1 15,-1 18,-1l22 0c3,-1 10,-1 15,-1l67 -1c5,-2 65,-2 69,0l12 0c2,0 2,0 4,0l2 1c0,0 0,0 1,0l5 0 4 1 8 0c2,0 1,0 3,0 0,0 1,1 1,0 0,0 0,0 1,0l3 0 3 1 5 0c3,0 2,0 4,1l3 0 3 1 2 0 3 1 3 0 3 1 2 0 2 1 3 0 2 1 2 0 2 1 1 0c3,1 2,0 3,2l2 0 2 1 10 2 2 1 1 0 2 1 1 0 2 1 1 0 2 1 7 2 2 1 4 1 2 1 1 0 2 1 1 0c2,0 2,-1 2,1l1 0c2,0 2,-1 2,1l1 0 2 1 1 0 2 1 1 0c2,0 2,-1 2,1l3 1c2,0 2,-1 2,1l3 1c2,0 2,-1 2,1l0 0 1 1 5 2c2,0 1,-1 1,1l0 0c2,0 1,-1 1,1l1 0c2,0 1,0 1,1l0 0c2,0 1,-1 1,1l1 0 1 1 0 0c2,0 1,0 1,1l1 0c2,0 1,0 1,1l0 0c2,0 1,0 1,1l1 0c2,0 1,0 1,1l3 2c2,0 1,0 1,1l0 0c2,0 1,0 1,1l0 0c2,0 1,-1 1,1l2 1c2,0 1,0 1,1l0 0c2,0 1,0 1,1l1 1c2,0 1,0 1,1l1 1c2,0 1,0 1,1l1 0c2,0 1,0 1,1 1,0 1,0 1,1l1 1c1,0 1,0 1,1l1 0c1,0 1,0 1,1 1,0 1,0 1,1l1 1c1,0 1,0 1,1l3 2c1,0 1,0 1,1l1 1c1,0 1,0 1,1 1,0 1,0 1,1l2 2c1,0 1,0 1,1 1,0 1,0 1,1l2 2c1,0 1,0 1,1 1,0 1,0 1,1l3 2c1,0 1,0 1,1 1,0 1,0 1,1 1,0 1,0 1,1 1,0 1,0 1,1l8 7c1,0 1,0 1,1l7 8c1,0 1,0 1,1 1,0 1,0 1,1 1,0 1,0 1,1 1,0 1,0 1,1l2 3c1,0 1,0 1,1 1,0 1,0 1,1l2 2c1,0 1,0 1,1l2 2c1,0 1,0 1,1 1,0 1,0 1,1l1 2c1,0 1,0 1,1 1,0 1,0 1,1l1 1c1,0 1,0 1,1l1 1c1,0 1,0 1,1l1 1c1,0 1,0 1,1l1 1c1,0 1,0 1,1l1 1c1,0 1,0 1,1l0 1c1,0 1,0 1,1l1 2c1,0 1,0 1,1l0 0c1,0 1,0 1,1l2 3c1,0 1,0 1,1l0 0c1,0 1,0 1,1l0 1c1,0 1,0 1,1l0 0c1,0 1,0 1,1l0 1 1 1 0 0c1,0 1,0 1,1l0 0 1 1 0 0c1,0 1,0 1,1l0 0c1,0 1,0 1,1l0 0c2,0 1,0 1,2l0 0c1,0 1,0 1,1l0 1 1 1 0 1 1 2 0 0c2,0 1,0 1,2l0 1 1 1 0 1 1 2 0 1 1 1 0 1 1 2 1 4 1 2 2 7 1 2 0 1 1 2 0 1 1 2 0 1 1 2 0 1 1 2 0 2 1 2 0 1 1 3 0 2 1 2 0 2 1 3 0 2 1 3 0 2 1 4 0 2 1 3 1 12 1 6 0 5c2,4 2,28 0,32l0 5zm-982 -434l0 1154c0,43 14,89 31,126 10,22 30,52 46,71 2,2 2,3 5,5l35 34c55,45 128,74 199,74l1188 0c12,0 25,-1 36,-3 51,-7 100,-25 141,-55l22 -17c13,-10 29,-26 39,-39 3,-4 6,-7 9,-11 14,-18 28,-39 37,-60 8,-18 15,-37 21,-57 5,-19 10,-44 10,-68l0 -1154c0,-43 -14,-89 -31,-126 -4,-9 -9,-17 -13,-25 -1,-3 -2,-4 -4,-6 -9,-15 -17,-26 -29,-39l-19 -21c-55,-56 -141,-93 -220,-93l-1188 0c-41,0 -91,12 -127,29 -30,14 -48,26 -72,45 -7,6 -24,21 -30,29 -4,5 -11,12 -18,21 -3,4 -5,7 -8,11 -34,46 -60,119 -60,175zm575 292c-1,7 0,176 0,191 0,13 -2,54 1,64l6 0c3,0 3,0 6,1l8 0 60 0 8 0 5 -1 19 -2 2 -1 2 0 2 -1 4 0 2 -1 2 0 2 -1 2 0 2 -1 1 0 2 -1 3 0 2 -1 1 0 2 -1 1 0 2 -1 2 0 2 -1 1 0 2 -1 1 0 2 -1 4 -1 2 -1 1 0 2 -1 1 0 2 -1 1 0 2 -1 1 0 2 -1 0 0c0,-1 0,-1 2,-1l7 -4c0,-1 0,-1 1,-1l1 0c0,-1 0,-1 1,-1l0 0 1 -1 1 -1c0,-1 0,-1 1,-1l1 -1c0,-1 0,-1 1,-1l2 -1c0,-1 0,-1 1,-1l2 -1c0,-1 0,-1 1,-1l3 -2c0,-1 0,-1 1,-1 0,-1 0,-1 1,-1l2 -2c0,-1 0,-1 1,-1 0,-1 0,-1 1,-1 0,-1 0,-1 1,-1 0,-1 0,-1 1,-1 0,-1 0,-1 1,-1 0,-1 0,-1 1,-1l5 -5c0,-1 0,-1 1,-1 0,-1 0,-1 1,-1 0,-1 0,-1 1,-1 0,-1 0,-1 1,-1 0,-1 0,-1 1,-1 0,-1 0,-1 1,-1l1 -1c0,-1 0,-1 1,-1 0,-1 0,-1 1,-1l1 -1c0,-2 0,-1 1,-1l1 -2c0,-1 0,-1 1,-1l0 0c0,-2 0,-1 1,-1l1 -2c0,-2 0,-1 1,-1l0 0 1 -1 0 0c0,-2 0,-1 1,-1l1 -3 1 -1 0 -1 1 -2 0 -1 1 -2 0 -1 1 -2 0 -1 1 -2 0 -1 1 -2 0 -2 1 -2 0 -1 1 -2 0 -2 1 -3 0 -3 1 -3 1 -14 0 -23 0 -3c-1,-2 -1,-2 -1,-5l0 -3 -1 -2 0 -1c-1,-1 -1,1 -1,-2l0 -2 -1 -2 0 -1 -1 -2 0 -1 -1 -2 0 -1 -1 -2 0 -1 -1 -2 0 -1 -1 -2 0 -1 -1 -2 -1 -3 -1 -1 0 0c-1,0 -1,0 -1,-1l0 0c-1,0 -1,0 -1,-1l0 -1c-1,0 -1,0 -1,-1l0 0c-1,0 -1,0 -1,-1l0 -1c-1,0 -1,0 -1,-1l-2 -3c-1,0 -1,0 -1,-1l-1 -1c-1,0 -1,0 -1,-1l-2 -3c-1,0 -1,0 -1,-1 -1,0 -1,0 -1,-1l-2 -2c-1,0 -1,0 -1,-1 -1,0 -1,0 -1,-1 -1,0 -1,0 -1,-1l-9 -9c-1,0 -1,0 -1,-1 -1,0 -1,0 -1,-1 -1,0 -1,0 -1,-1l-2 -2c-1,0 -1,0 -1,-1l-3 -2c-1,0 -1,0 -1,-1l-1 -1c-2,0 -1,0 -1,-1l-1 -1c-2,0 -1,0 -1,-1l-3 -2c-2,0 -1,0 -1,-1l0 0c-2,0 -1,0 -1,-1l0 0c-2,0 -1,1 -1,-1l0 0c-2,0 -1,0 -1,-1l0 0c-2,0 -2,1 -2,-1l0 0 -1 -1 -1 0 -2 -1 -1 0 -2 -1 -1 0c-2,0 -2,1 -2,-1l0 0 -2 -1 -1 0 -2 -1 -1 0 -2 -1 -3 -1 -2 -1 -2 0 -2 -1 -1 0 -2 -1 -1 0 -2 -1 -3 0 -2 -1 -1 0 -2 -1 -7 -1 -2 -1 -9 -1 -4 -1 -2 0c-1,0 -2,0 -3,0 -3,0 -2,0 -4,-1l-6 0 -58 0c-11,-1 -33,-1 -44,1z"/>
  <path class="fil1" d="M-2128 1247c42,-2 128,-5 167,2 6,72 1,477 1,581 0,22 1,22 -22,22 -45,0 -102,4 -146,-2 -7,-51 -3,-497 -3,-585l2 -18zm-826 603c-7,-20 53,-170 64,-202l138 -399c11,-31 45,-124 49,-153 4,-27 -6,-44 20,-44l191 1c11,15 192,534 214,597 10,30 70,183 66,201 -34,3 -115,1 -154,1 -28,0 -24,-12 -33,-38l-52 -151 -282 0c-10,40 -34,107 -49,153 -7,23 -5,36 -32,36 -37,0 -106,2 -140,-2zm896 -857c132,-20 144,176 28,189 -132,15 -148,-170 -28,-189zm-1275 -90l0 1166c0,86 45,160 99,214 48,48 127,92 221,92l1180 0c129,0 239,-81 288,-181 15,-30 32,-80 32,-125l0 -1166c0,-154 -147,-306 -320,-306l-1180 0c-129,0 -239,81 -288,181 -15,30 -32,80 -32,125zm644 606l190 1 -93 -311 -97 310z"/>
  <path class="fil2" d="M307 253l1220 0c165,0 300,135 300,300l0 1174c0,165 -135,300 -300,300l-1220 0c-165,0 -300,-135 -300,-300l0 -1174c0,-165 135,-300 300,-300zm510 1536l34 135 162 0 31 -137 -227 2zm84 -95l6 19 4 8 39 0 5 -2 6 -13c24,-62 87,-326 100,-393 36,-183 62,-369 49,-556 -5,-71 -18,-149 -45,-215 -20,-51 -50,-109 -104,-131 -58,-24 -114,35 -139,83 -132,255 -48,695 14,956l21 89c14,52 29,98 43,155l0 0zm-17 13l-23 -19c-275,-258 -652,-1126 -58,-1286 24,-7 19,-5 43,-6 -467,201 -152,985 38,1311l0 0zm99 0l23 -19c275,-258 652,-1126 58,-1286 -24,-7 -19,-5 -43,-6 467,201 152,985 -38,1311l0 0zm-372 -1242c-117,54 -207,173 -226,301l-5 54 1 44 6 48 3 23c46,253 256,585 442,761 -256,-342 -643,-882 -221,-1231l0 0zm644 0c117,54 207,173 226,301l5 54 -1 44 -6 48 -3 23c-46,253 -256,585 -442,761 256,-342 643,-882 221,-1231l0 0z"/>
  <path class="fil0" d="M3521 2059c23,0 95,-2 112,2 31,6 53,27 64,50 21,42 6,94 -32,119 -10,7 -23,12 -36,14l-5 1c0,0 0,0 -1,0 10,2 17,3 27,7 8,3 16,8 21,12 11,9 22,21 29,38 30,75 -42,152 -121,121 -16,-6 -31,-18 -38,-29 -16,-22 -14,-26 -20,-48l0 84c0,27 0,53 0,80 0,28 -3,46 -16,65 -10,14 -25,28 -45,35 -66,24 -137,-32 -124,-104 4,-23 16,-41 28,-52 28,-25 49,-22 56,-25 -103,-13 -110,-138 -36,-175 14,-7 18,-7 34,-11l-4 -1c-9,-2 -10,-1 -20,-5 -86,-33 -77,-159 14,-178 16,-3 38,-2 55,-2 19,0 38,0 57,0zm-235 -96c-28,3 -51,11 -71,24 -40,26 -67,67 -72,117 -2,14 -1,75 -1,94 0,63 0,126 0,189 0,32 0,63 0,95 0,17 -1,82 1,94 6,57 37,96 71,118 19,12 42,22 70,25 15,2 74,1 94,1l284 0c18,0 82,1 94,-1 80,-9 135,-69 143,-141 2,-15 1,-75 1,-94l0 -331c0,-15 1,-33 -1,-47 -9,-81 -69,-134 -141,-143 -18,-2 -269,-1 -283,-1 -19,0 -174,-1 -188,1z"/>
  <path class="fil0" d="M3521 2328c1,-5 2,-11 4,-17 8,-26 25,-46 48,-57 13,-6 19,-6 33,-9l-86 0 0 84z"/>
 </g>
</svg>
