<?xml version="1.0" encoding="UTF-8"?>
<!DOCTYPE svg PUBLIC "-//W3C//DTD SVG 1.1//EN" "http://www.w3.org/Graphics/SVG/1.1/DTD/svg11.dtd">
<!-- Creator: CorelDRAW X6 -->
<svg xmlns="http://www.w3.org/2000/svg" xml:space="preserve" width="18mm" height="18mm" version="1.1" style="shape-rendering:geometricPrecision; text-rendering:geometricPrecision; image-rendering:optimizeQuality; fill-rule:evenodd; clip-rule:evenodd"
viewBox="0 0 1800 1800"
 xmlns:xlink="http://www.w3.org/1999/xlink">
 <defs>
  <style type="text/css">
   <![CDATA[
    .str0 {stroke:#2B2A29;stroke-width:20}
    .str1 {stroke:#FEFEFE;stroke-width:67.73;stroke-opacity:0.380392}
    .fil2 {fill:none}
    .fil0 {fill:#5B5B5B}
    .fil1 {fill:#FEFEFE}
   ]]>
  </style>
 </defs>
 <g id="Слой_x0020_1">
  <metadata id="CorelCorpID_0Corel-Layer"/>
  <rect class="fil0 str0" x="2183" y="-4676" width="4250" height="4724"/>
  <rect class="fil0 str0" x="2238" y="692" width="666" height="1877"/>
  <path class="fil1" d="M2646 1742c-9,0 -21,-10 -30,-17l-44 -33c-2,2 -3,3 -5,5l-15 14c-6,6 -13,16 -23,17 0,-5 1,-4 1,-8 0,-3 0,-6 0,-9l2 -26c0,-5 1,-5 1,-9 1,-18 -1,-10 8,-20l59 -53c2,-2 3,-3 5,-5l24 -22c2,-2 3,-3 5,-5l14 -13c3,-2 3,-2 3,-6 -11,0 -16,6 -27,13 -2,1 -3,2 -5,3l-112 70c-15,9 -2,8 -37,-2 -4,-1 -6,-2 -10,-3l-27 -9c-4,-2 -5,-3 -8,-5 0,-6 0,-7 5,-10 7,-5 98,-38 115,-45l124 -48c4,-2 14,-6 18,-6 20,0 9,29 7,43 -2,9 -4,18 -6,28 -9,45 -21,94 -29,138 -2,8 -3,21 -13,21l0 0zm-82 -382l21 0c26,1 52,6 76,15 4,2 7,3 11,5 29,12 51,28 74,47 26,22 55,67 67,101 12,36 14,55 14,94 0,30 -10,72 -24,99 -11,22 -15,29 -29,48l-13 16c-19,23 -52,44 -79,58 -31,15 -68,23 -104,23l-4 0c-21,0 -42,-3 -61,-8 -8,-2 -16,-5 -23,-7l-46 -23 -35 -26c-2,-2 -2,-1 -4,-3 -10,-8 -28,-30 -35,-41l-12 -19c-6,-12 -10,-17 -15,-31 -15,-38 -19,-61 -19,-104 0,-27 6,-53 14,-77 6,-19 20,-45 31,-60 18,-25 44,-52 71,-67l19 -11c10,-5 21,-10 32,-14 8,-3 15,-5 23,-7 17,-4 34,-7 51,-7l0 0z"/>
  <path class="fil2 str1" d="M2575 1344c148,0 268,120 268,268 0,148 -120,268 -268,268 -148,0 -268,-120 -268,-268 0,-148 120,-268 268,-268z"/>
  <path class="fil1" d="M2527 1012c6,4 35,29 40,29 4,0 8,-4 11,-6l30 -23 21 20c1,1 2,2 3,3 2,2 2,1 4,3l72 67c1,1 2,2 3,3 3,2 9,5 10,11 -6,0 -9,3 -16,3l-276 0c-7,0 -9,-3 -16,-3 1,-5 7,-8 10,-10l46 -43c1,-1 2,-2 3,-3l18 -16c2,-2 4,-5 7,-7l29 -26 0 0zm293 -11l0 22c-1,30 -8,59 -19,87 -8,19 -16,32 -27,49 -10,15 -29,37 -43,47l-22 17c-14,9 -20,12 -34,19l-22 9c-25,8 -50,13 -75,14l-22 0c-25,-1 -50,-6 -74,-15 -17,-6 -31,-14 -46,-23 -2,-1 -3,-2 -5,-3 -17,-11 -44,-33 -56,-49 -13,-18 -19,-23 -31,-46 -2,-4 -3,-6 -5,-10 -2,-4 -3,-7 -5,-11 -5,-13 -8,-20 -11,-34 -7,-27 -7,-41 -7,-68l0 -1c0,-19 3,-38 7,-54 9,-34 24,-65 45,-93 1,-2 2,-3 3,-5l7 -8c4,-4 12,-15 19,-20 2,-2 2,-1 4,-3 2,-2 2,-2 4,-3 2,-2 2,-2 4,-4 10,-8 30,-21 42,-27 4,-2 6,-3 10,-5 12,-6 33,-13 45,-16 28,-7 41,-7 69,-7l1 0c44,0 101,19 137,46l25 20c7,6 15,16 19,20l10 12c13,18 18,26 29,47 6,12 13,33 16,45 4,17 7,34 7,50l0 0zm-196 0c2,-3 9,-8 12,-10l91 -70 0 175 -45 -42c-3,-3 -4,-3 -7,-6l-19 -18c-6,-6 -30,-26 -33,-30l0 0zm-216 96l0 -175 78 59c5,5 23,17 26,20l-12 12c-2,2 -2,1 -3,3l-42 39c-2,2 -4,4 -6,6l-26 24c-1,1 -2,2 -3,3l-11 9zm10 -193l299 0 -93 72c-4,3 -55,43 -57,43 -2,0 -5,-4 -9,-6l-126 -97c-2,-2 -3,-2 -5,-4 -2,-2 -8,-6 -9,-8l0 0z"/>
  <path class="fil2 str1" d="M2567 744c148,0 268,120 268,268 0,148 -120,268 -268,268 -148,0 -268,-120 -268,-268 0,-148 120,-268 268,-268z"/>
  <path class="fil1" d="M8188 -2895c0,74 6,66 58,135 54,72 178,192 243,243 43,34 85,76 144,76 94,0 161,-170 234,-170 28,0 113,97 136,120 20,20 125,116 125,136l0 18c0,20 -135,174 -275,174 -128,0 -254,-61 -358,-124 -80,-48 -97,-62 -164,-116 -38,-30 -145,-131 -173,-166 -11,-14 -17,-19 -28,-32 -70,-89 -129,-172 -176,-278 -40,-88 -55,-124 -55,-215 0,-68 33,-137 63,-175 26,-33 95,-114 134,-114 27,0 101,85 123,107 40,40 77,77 117,117 54,53 8,76 -46,131 -26,26 -102,90 -102,132l0 1zm276 -1050l98 0c92,3 181,15 251,36 160,48 244,82 382,178 94,65 218,188 282,283 73,107 97,157 144,278 13,34 22,68 32,105 18,63 35,167 35,245 0,236 -19,350 -110,555 -7,15 -16,33 -25,49 -74,124 -94,164 -208,278 -166,166 -317,243 -536,308 -69,20 -156,32 -245,35l-98 0c-92,-3 -181,-15 -251,-36 -89,-27 -120,-36 -206,-74 -202,-90 -404,-282 -514,-473 -45,-78 -54,-104 -89,-191 -59,-150 -67,-286 -67,-451 0,-111 33,-261 70,-356 14,-36 25,-64 40,-98 90,-202 282,-404 473,-514 78,-45 104,-54 191,-89 35,-14 67,-21 105,-32 69,-20 156,-32 245,-35l1 -1z"/>
  <path class="fil2 str1" d="M8514 -4020c690,0 1249,559 1249,1249 0,690 -559,1249 -1249,1249 -690,0 -1249,-559 -1249,-1249 0,-690 559,-1249 1249,-1249z"/>
  <path class="fil1" d="M3521 -965c0,9 2,18 6,24 9,15 13,21 4,38 -10,-1 -24,-9 -30,-18 -17,-23 -15,-69 0,-93 12,-19 20,-28 38,-41 34,-23 82,-25 119,-11 14,5 21,11 32,19 7,6 17,19 21,29 6,14 6,25 9,42 1,10 -3,34 -6,44 -4,13 -9,24 -16,35 -17,26 -39,37 -72,37 -13,0 -24,-6 -33,-13 -3,-2 -6,-5 -10,-6 0,12 -10,48 -14,57 -4,9 -7,16 -12,24 -4,6 -12,15 -17,19 -7,-32 3,-81 10,-108 3,-11 6,-23 9,-34 5,-20 2,-12 -1,-24 -7,-25 6,-63 30,-63 14,0 25,9 25,22 0,11 -4,25 -7,34 -9,28 -21,64 21,64 34,0 53,-49 53,-82 0,-24 -2,-42 -19,-59 -26,-26 -69,-23 -99,-4 -21,13 -40,39 -40,68l-1 0zm-164 34c0,64 17,110 52,157 3,3 5,6 7,9l15 16c8,8 24,21 34,27 3,2 6,4 9,6 9,6 21,12 30,16 27,13 69,21 101,22 12,0 43,-4 55,-6 14,-3 33,-9 46,-15 29,-13 52,-29 73,-50 70,-70 91,-165 60,-259 -3,-8 -6,-15 -9,-22 -15,-37 -53,-79 -84,-99 -27,-18 -52,-30 -85,-37 -8,-2 -18,-4 -26,-4l-29 -2 -28 2c-39,3 -79,20 -111,41 -6,4 -20,15 -26,20 -6,6 -7,5 -16,15 -2,3 -5,5 -7,8 -17,22 -22,28 -36,56 -12,24 -23,64 -23,99l-2 0z"/>
  <path class="fil2 str1" d="M3603 -1189c145,0 263,118 263,263 0,145 -118,263 -263,263 -145,0 -263,-118 -263,-263 0,-145 118,-263 263,-263z"/>
  <g id="_754354992">
   <path class="fil1" d="M1288 997c-3,60 -26,91 -63,117 -68,43 -197,46 -257,-37 -68,-91 -40,-311 165,-299 108,6 163,80 157,194l-242 0c0,48 20,88 63,97 37,6 66,-11 77,-43 14,-37 -23,-29 103,-29l-3 0zm-245 -74l145 0c-3,-46 -26,-74 -71,-74 -48,0 -71,29 -74,74zm-299 -74c48,-6 54,-83 23,-108 -23,-20 -123,-9 -160,-11l0 120 137 0zm-140 220c17,6 120,3 145,3 103,-3 100,-140 3,-145 -26,-3 -125,-3 -148,0l0 143zm271 -875l40 0c51,3 103,9 151,20 60,14 71,20 125,43 40,17 74,40 108,63l94 77 77 94c48,71 86,145 108,234 20,80 20,117 20,197l0 3c0,128 -54,279 -128,382 -51,71 -80,100 -145,151 -9,6 -14,11 -23,17 -17,11 -34,23 -51,34 -20,11 -34,17 -54,29 -66,31 -174,66 -271,66l-60 0c-114,0 -245,-46 -328,-97 -128,-77 -214,-174 -282,-311 -31,-63 -66,-177 -66,-271l0 -51c0,-97 34,-211 66,-277 26,-51 31,-60 63,-108 6,-9 11,-17 20,-26l40 -46c20,-26 86,-80 114,-97 48,-31 83,-54 140,-77 11,-6 20,-6 31,-11 20,-9 43,-14 66,-20 48,-11 97,-17 145,-20l0 3zm-371 462c57,0 114,0 171,0 94,0 214,-17 220,125 3,51 -26,97 -68,100 31,6 46,11 63,31 14,17 20,48 20,74 3,165 -117,157 -220,157 -63,0 -123,0 -185,0l0 -488zm513 48l194 0 0 48 -194 0 0 -48z"/>
   <path class="fil2 str1" d="M900 150c414,0 750,336 750,750 0,414 -336,750 -750,750 -414,0 -750,-337 -750,-750 0,-414 337,-750 750,-750z"/>
  </g>
 </g>
</svg>
