<?xml version="1.0" encoding="UTF-8"?>
<!DOCTYPE svg PUBLIC "-//W3C//DTD SVG 1.1//EN" "http://www.w3.org/Graphics/SVG/1.1/DTD/svg11.dtd">
<!-- Creator: CorelDRAW X6 -->
<svg xmlns="http://www.w3.org/2000/svg" xml:space="preserve" width="16.764mm" height="19.4732mm" version="1.1" style="shape-rendering:geometricPrecision; text-rendering:geometricPrecision; image-rendering:optimizeQuality; fill-rule:evenodd; clip-rule:evenodd"
viewBox="0 0 1676 1947"
 xmlns:xlink="http://www.w3.org/1999/xlink">
 <defs>
  <style type="text/css">
   <![CDATA[
    .fil1 {fill:#5B5B5B}
    .fil0 {fill:#FEFEFE}
   ]]>
  </style>
 </defs>
 <g id="Слой_x0020_1">
  <metadata id="CorelCorpID_0Corel-Layer"/>
  <g id="_751920080">
   <path class="fil0" d="M4710 -465l-9 1 -2 1 -2 0 -2 1 -3 0 -2 1 -1 0 -2 1 -4 1 -1 1 -5 2c0,1 0,1 -1,1l0 0c0,1 0,1 -1,1 0,1 0,1 -1,1 -3,2 -4,3 -6,6 0,1 0,1 -1,1 0,1 0,1 -1,1l0 0c0,2 0,1 -1,1l0 0c0,2 1,1 -1,1l0 0 -1 1 0 1 -1 2 0 1 -1 2 0 1 -1 3 0 8 1 2 0 1 1 2 3 7c1,0 1,0 1,1l1 2c1,0 1,0 1,1 1,0 1,0 1,1 1,0 1,0 1,1l1 1c1,0 1,0 1,1l1 1c1,0 1,0 1,1 1,0 1,0 1,1 1,0 1,0 1,1 1,0 1,0 1,1l2 1c1,0 1,0 1,1 1,0 1,0 1,1l1 1c1,0 1,0 1,1l1 1c1,0 1,0 1,1l3 2c1,0 1,0 1,1l0 0c1,0 1,0 1,1l1 0c2,0 1,-1 1,1l0 0c2,0 1,-1 1,1l0 0c2,0 1,-1 1,1l0 0c2,0 1,-1 1,1l0 0c2,0 1,-1 1,1l0 0c2,0 1,-1 1,1l2 1c2,0 1,-1 1,1l0 0c2,0 1,-1 1,1l0 0c2,0 1,-1 1,1l0 0c2,0 1,-1 1,1l0 0c2,0 1,-1 1,1l0 0 1 1 0 0c2,0 1,0 1,1l0 0 1 1 1 0c2,0 1,-1 1,1l0 0c2,0 1,-1 1,1l0 0c2,0 1,-1 1,1l0 0 1 1 5 2c2,0 1,-1 1,1l0 0 1 1 3 1c2,0 1,-1 1,1l0 0 1 1 1 0 1 1 1 0 1 1 1 0 2 1 1 0 2 1 1 0 2 1 1 0 1 1 1 0 2 1 1 0 1 1 1 0 1 1 1 0 1 1 1 0 1 1 1 0 1 1 1 0c2,0 2,-1 2,1l3 1c2,0 1,-1 1,1l0 0 1 1 1 0c2,0 1,-1 1,1l0 0 1 1 3 1c2,0 1,-1 1,1l1 0 1 1 3 1c2,0 1,-1 1,1l0 0c2,0 1,-1 1,1l1 0 1 1 0 0c2,0 1,-1 1,1l3 1c2,0 1,-1 1,1l0 0c2,0 1,-1 1,1l0 0c2,0 1,-1 1,1l0 0c2,0 1,0 1,1l0 0c2,0 1,-1 1,1l0 0c2,0 1,0 1,1l0 0c2,0 1,0 1,1l0 0c2,0 1,0 1,1l0 0c2,0 1,0 1,1l0 0c2,0 1,0 1,1l0 0c2,0 1,0 1,1l0 0c2,0 1,0 1,1l0 0c2,0 1,-1 1,1l5 2c1,0 1,0 1,1l0 0c2,0 1,0 1,1l0 0c1,0 1,0 1,1l0 0c1,0 1,0 1,1l1 1 1 1 1 0c1,0 1,0 1,1l0 0c1,0 1,0 1,1l3 2c1,0 1,0 1,1l0 0c1,0 1,0 1,1l1 1c1,0 1,0 1,1l0 0c1,0 1,0 1,1l1 1c1,0 1,0 1,1l0 0c2,0 1,0 1,1l1 1c1,0 1,0 1,1l1 1c1,0 1,0 1,1l4 2c1,0 1,0 1,1l1 1c1,0 1,0 1,1 1,0 1,0 1,1l1 1c1,0 1,0 1,1l2 1c1,0 1,0 1,1 1,0 1,0 1,1l3 2c1,0 1,0 1,1 1,0 1,0 1,1 1,0 1,0 1,1 1,0 1,0 1,1 4,3 7,7 11,10 1,0 1,0 1,1 1,0 1,0 1,1 1,0 1,0 1,1l2 3c1,0 1,0 1,1 1,0 1,0 1,1l1 2c1,0 1,0 1,1 1,0 1,0 1,1l1 1c1,0 1,0 1,1l1 2c1,0 1,0 1,1l1 1c1,0 1,0 1,1l0 0 1 1 1 1c1,0 1,0 1,1l1 1c1,0 1,0 1,1l0 0c1,0 1,0 1,1l0 0c1,0 1,0 1,1l0 0 1 1 0 0c1,0 1,0 1,1l0 0 1 1 0 0c1,0 1,0 1,1l1 3c1,0 1,0 1,1l1 3 1 2 0 1 1 1 0 1 1 2 0 1 1 2 0 1 1 2 1 3 1 2 0 2 1 2 0 2 1 2 0 3 1 2 0 2 1 3 0 5 1 4 0 25c0,3 0,3 -1,5l0 6 -1 3 0 2 -1 3 0 1 -1 2 0 3 -1 2 0 1 -1 2 0 1 -1 2 0 1 -1 2 0 1 -1 2 0 1 -1 2 0 1 -1 1 0 1 -1 2 0 1 -1 1 0 1 -1 1 0 1 -1 1 0 1c0,2 1,1 -1,1l0 0c0,2 1,1 -1,1l0 0c0,2 1,1 -1,1l-4 9 -1 1 0 0c0,1 0,1 -1,1l0 1c0,1 0,1 -1,1l-2 3c0,1 0,1 -1,1l-1 1c0,1 0,1 -1,1l0 0c0,1 0,1 -1,1l-1 1c0,1 0,1 -1,1 0,1 0,1 -1,1l-1 1c0,1 0,1 -1,1l-1 2c0,1 0,1 -1,1 0,1 0,1 -1,1l-1 2c0,1 0,1 -1,1 0,1 0,1 -1,1 0,1 0,1 -1,1l-3 4c0,1 0,1 -1,1 0,1 0,1 -1,1 0,1 0,1 -1,1 0,1 0,1 -1,1 0,1 0,1 -1,1 0,1 0,1 -1,1 0,1 0,1 -1,1 0,1 0,1 -1,1 0,1 0,1 -1,1 0,1 0,1 -1,1 0,1 0,1 -1,1 0,1 0,1 -1,1 0,1 0,1 -1,1 0,1 0,1 -1,1l-4 3c0,1 0,1 -1,1 0,1 0,1 -1,1 0,1 0,1 -1,1l-2 2c0,1 0,1 -1,1 0,1 0,1 -1,1l-1 1c0,1 0,1 -1,1 0,1 0,1 -1,1l-1 1c0,1 0,1 -1,1l-1 1c0,1 0,1 -1,1 0,1 0,1 -1,1l0 0c0,1 0,1 -1,1l-1 1c0,1 0,1 -1,1l-1 1c0,1 0,1 -1,1l0 0c0,1 0,1 -1,1 0,1 0,1 -1,1l0 0c0,1 0,1 -1,1l0 0 -1 1 -5 2c0,1 0,1 -1,1l-1 0c0,1 0,1 -1,1l0 0c0,1 0,1 -1,1l-4 2 -1 1 0 0c0,1 0,1 -1,1l0 0c0,1 0,1 -1,1l-1 0 -1 1 0 0c0,1 0,1 -1,1l-1 0 -1 1 -1 0 -1 1 -1 0 -1 1 -1 0c0,1 0,1 -1,1l-1 0 -2 1 -1 0 -2 1 -1 0 -2 1 -1 0 -2 1 -1 0 -2 1 -1 0 -2 1 -1 0 -2 1 -1 0 -2 1 -5 1 -2 1 -1 0 -2 1 -2 0 -2 1 -2 0 -2 1 -2 0 -2 1 -2 0 -2 1 -2 0 -3 1 -2 0 -2 1 -4 0 -2 1 -3 0c-2,1 -2,1 -5,1l-2 0c0,1 -3,1 -4,1l-6 0 -6 1 -10 0 -4 1c-7,1 -29,1 -32,-1l-6 0 -5 -1 -8 0 -4 -1 -7 0 -3 -1 -5 0c-3,0 -3,0 -5,-1l-3 0 -2 -1 -8 -1 -2 -1 -3 0 -2 -1 -3 0 -2 -1 -2 0 -2 -1 -3 0 -2 -1 -2 0 -2 -1 -3 0 -2 -1 -2 0 -2 -1 -5 -1 -2 -1 -1 0 -2 -1 -2 0 -2 -1 -4 -1 -2 -1 -1 0 -2 -1 -1 0 -2 -1 -1 0 -2 -1 -1 0 -2 -1 -1 0 -2 -1 -1 0 -1 -1 -1 0 -2 -1 -1 0 -1 -1 -1 0 -1 -1 -1 0 -1 -1 -3 -1 -1 -1 -3 -1c-2,0 -1,1 -1,-1l-1 0c-2,0 -1,1 -1,-1l0 0 -1 -1 -4 -2c-1,0 -1,0 -1,-1 -2,-2 -4,-3 -5,-6l-1 -2 0 -129c0,-2 -1,-1 1,-1l1 -1c0,-1 0,-1 1,-1l1 0c1,-1 0,-1 2,-1 3,0 1,0 2,1l2 1c1,0 1,0 1,1l0 0c2,0 1,0 1,1l3 1c1,0 1,0 1,1l0 0c1,0 1,0 1,1l0 0c1,0 1,0 1,1l0 0c2,0 1,-1 1,1l6 3 1 1 1 0 1 1 3 1c2,0 1,-1 1,1l0 0c2,0 1,-1 1,1l0 0c2,0 1,-1 1,1l0 0c2,0 1,-1 1,1l0 0 1 1 1 0 1 1 1 0 1 1 3 1c2,0 1,-1 1,1l1 0 1 1 1 0 1 1 1 0 2 1 1 0 1 1 1 0c2,0 2,-1 2,1l1 0c2,0 1,-1 1,1l1 0 2 1 1 0 2 1 3 1 2 1 2 0 2 1 4 1 2 1 4 1 2 1 5 1 2 1 1 0 2 1 2 0 2 1 1 0 2 1 2 0 2 1 6 1 2 1 3 0 2 1 1 0 2 1 9 1 3 1 11 1 6 1 4 0c2,0 3,0 5,0 0,0 2,0 3,0 2,0 1,0 3,1l23 0c1,-1 1,-1 3,-1 2,0 3,0 4,0l4 0 5 -1 8 -1 2 -1 2 0 2 -1 2 0 2 -1 1 0 2 -1 1 0 1 -1 1 0 2 -1 0 0c0,-1 0,-1 1,-1l3 -1 1 -1 0 0c0,-1 0,-1 1,-1l0 0c0,-1 0,-1 1,-1l1 -1c0,-1 0,-1 1,-1 3,-2 4,-3 6,-6 0,-1 0,-1 1,-1 0,-1 0,-1 1,-1l1 -1c0,-1 0,-1 1,-1l0 -1 1 -1 0 0 1 -1 0 -1 1 -2 0 -1 1 -2 0 -2 1 -2 -1 -9 -1 -2 0 0c-1,0 -1,0 -1,-1l-2 -4c-1,0 -1,0 -1,-1l-3 -5c-1,0 -1,0 -1,-1 -1,0 -1,0 -1,-1 -1,0 -1,0 -1,-1 -1,0 -1,0 -1,-1 -1,0 -1,0 -1,-1 -1,0 -1,0 -1,-1 -1,0 -1,0 -1,-1 -1,0 -1,0 -1,-1l-2 -2c-1,0 -1,0 -1,-1 -1,0 -1,0 -1,-1l-1 -1c-1,0 -1,0 -1,-1 -1,0 -1,0 -1,-1l0 0c-1,0 -1,0 -1,-1l-1 -1c-1,0 -1,0 -1,-1l0 0c-1,0 -1,0 -1,-1l-3 -1 -1 -1 -1 0c-1,0 -1,0 -1,-1l0 0c-2,0 -1,0 -1,-1l-1 0c-2,0 -1,0 -1,-1l0 0c-2,0 -1,0 -1,-1l-1 0c-2,0 -1,0 -1,-1l0 0c-2,0 -1,0 -1,-1l-1 0 -1 -1 -4 -2c-2,0 -1,1 -1,-1l-1 0 -1 -1 0 0 -1 -1 -3 -1c-2,0 -1,1 -1,-1l0 0 -1 -1 -1 0c-2,0 -1,1 -1,-1l0 0c-2,0 -1,1 -1,-1l0 0 -1 -1 -1 0c-2,0 -1,1 -1,-1l-1 0 -1 -1 -1 0c-2,0 -1,1 -1,-1l0 0c-2,0 -1,1 -1,-1l-3 -1 -1 -1 -1 0c-2,0 -1,1 -1,-1l0 0 -1 -1 -1 0c-2,0 -1,1 -1,-1l-1 0 -1 -1 -1 0 -1 -1 -1 0c-2,0 -2,1 -2,-1l0 0 -2 -1 -1 0 -2 -1 -2 -1 -3 -1 -1 -1 -3 -1c-2,0 -1,1 -1,-1l0 0 -1 -1 -1 0c-2,0 -1,1 -1,-1l0 0 -1 -1 -3 -1c-2,0 -1,1 -1,-1l0 0c-2,0 -1,1 -1,-1l0 0 -1 -1 -1 0 -1 -1 -1 0c-2,0 -1,1 -1,-1l0 0c-2,0 -1,1 -1,-1l0 0c-2,0 -1,0 -1,-1l0 0c-2,0 -1,0 -1,-1l0 0 -1 -1 0 0c-2,0 -1,0 -1,-1l0 0 -1 -1 0 0 -1 -1 0 0 -1 -1 -2 -1 -1 -1 -1 0 -1 -1 0 0c-1,0 -1,0 -1,-1l-1 0c-1,0 -1,0 -1,-1l0 0c-1,0 -1,0 -1,-1l-1 0c-2,0 -1,0 -1,-1l-3 -1c-1,0 -1,0 -1,-1l0 0c-1,0 -1,0 -1,-1l0 0c-2,0 -1,0 -1,-1l-1 -1c-1,0 -1,0 -1,-1l0 0c-2,0 -1,0 -1,-1l0 0c-2,0 -1,0 -1,-1l-1 -1c-1,0 -1,0 -1,-1l-3 -2c-1,0 -1,0 -1,-1l-1 -1c-1,0 -1,0 -1,-1l0 0c-1,0 -1,0 -1,-1l-1 -1c-1,0 -1,0 -1,-1l-1 -1c-1,0 -1,0 -1,-1l-1 -1c-1,0 -1,0 -1,-1l-1 -1c-1,0 -1,0 -1,-1l-1 -1 -1 -1 -1 -1 -1 -1c-1,0 -1,0 -1,-1l-1 -1c-1,0 -1,0 -1,-1l-2 -1c-1,0 -1,0 -1,-1 -1,0 -1,0 -1,-1l-3 -2c-1,0 -1,0 -1,-1 -1,0 -1,0 -1,-1l-6 -5c-1,0 -1,0 -1,-1l-1 -1c-1,0 -1,0 -1,-1 -1,0 -1,0 -1,-1 -1,0 -1,0 -1,-1l-1 -1c-1,0 -1,0 -1,-1l-5 -6c-1,0 -1,0 -1,-1 -1,0 -1,0 -1,-1l-2 -3c-1,0 -1,0 -1,-1l-1 -1 -1 -2c-1,0 -1,0 -1,-1 -1,0 -1,0 -1,-1l-1 -1c-1,0 -1,0 -1,-1l-1 -2c-1,0 -1,0 -1,-1l-1 -1c-1,0 -1,0 -1,-1l-1 -1c-1,0 -1,0 -1,-1l-1 -1c-1,0 -1,0 -1,-1l0 0c-1,0 -1,0 -1,-1l-1 -1c-1,0 -1,0 -1,-1l0 0c-1,0 -1,0 -1,-1l-1 -3c-1,0 -1,0 -1,-1l-1 -3 -1 -1 0 0 -1 -1 0 0c-1,0 -1,0 -1,-1l0 -1 -1 -1 0 -1 -1 -1 0 -1 -1 -1 0 -1 -1 -2 0 -1 -1 -1 -1 -4 -1 -2 -1 -5 -1 -2 0 -2c-1,-1 -1,0 -1,-3l0 -2 -1 -2 -1 -7c-1,-2 -1,-2 -1,-5l0 -4c-2,-3 -2,-19 0,-22l0 -6 1 -4 0 -4 1 -2 0 -3 1 -2 0 -2 1 -2 0 -2 1 -2 0 -2 1 -2 0 -1 1 -2 0 -1 1 -2 0 -1 1 -2 0 -1 1 -2 0 -1 1 -2 0 -1 1 -2 1 -3c0,-2 -1,-2 1,-2l1 -3c0,-2 -1,-1 1,-1l0 0 1 -1 2 -4c0,-2 -1,-1 1,-1l1 -2c0,-2 -1,-1 1,-1l1 -3 1 -1 0 -1c0,-1 0,-1 1,-1l0 0c0,-1 0,-1 1,-1l1 -1c0,-1 0,-1 1,-1l0 -1c0,-1 0,-1 1,-1 0,-1 0,-1 1,-1l0 -1c0,-1 0,-1 1,-1l1 -1c0,-1 0,-1 1,-1 0,-1 0,-1 1,-1l1 -1c0,-1 0,-1 1,-1l1 -2c0,-1 0,-1 1,-1 0,-1 0,-1 1,-1l1 -2c0,-1 0,-1 1,-1 0,-1 0,-1 1,-1l2 -3c0,-1 0,-1 1,-1 0,-1 0,-1 1,-1 0,-1 0,-1 1,-1 0,-1 0,-1 1,-1 0,-1 0,-1 1,-1 0,-1 0,-1 1,-1l1 -1c0,-1 0,-1 1,-1l1 -1c0,-1 0,-1 1,-1l1 -1c0,-1 0,-1 1,-1l1 -1c0,-1 0,-1 1,-1 0,-1 0,-1 1,-1 0,-1 0,-1 1,-1 0,-1 0,-1 1,-1l4 -3c0,-1 0,-1 1,-1 0,-1 0,-1 1,-1l2 -1c0,-1 0,-1 1,-1 0,-1 0,-1 1,-1l1 -1c0,-1 0,-1 1,-1 0,-1 0,-1 1,-1l1 -1c0,-1 0,-1 1,-1l1 -1 1 -1 4 -2c0,-1 0,-1 1,-1l1 -1c0,-1 0,-1 1,-1l0 0c0,-1 0,-1 1,-1l1 -1c0,-1 0,-1 1,-1l0 0c0,-1 0,-1 1,-1l15 -7c0,-1 0,-1 1,-1l0 0 1 -1 0 0c0,-1 0,-1 1,-1l0 0c0,-1 0,-1 1,-1l3 -1 1 -1 1 0 1 -1 1 0 1 -1 3 -1 2 -1 3 -1 2 -1 1 0 2 -1 1 0 2 -1 1 0 2 -1 1 0 2 -1 1 0 2 -1 1 0 2 -1 2 0 2 -1 1 0 2 -1 3 0 2 -1 2 0 3 -1 2 0 3 -1 2 0c2,-1 0,-1 3,-1l5 0 4 -1 3 0c1,-1 1,-1 4,-1l7 0 5 -1 47 0c3,0 9,0 11,1l3 0c2,0 4,0 6,0 1,0 2,0 2,0 2,0 1,0 2,1l4 0 4 1 3 0c3,0 4,0 6,1l4 0 3 1 5 0c2,0 3,0 4,1l2 0 3 1 9 1 2 1 3 0 2 1 6 1 3 1 1 0 2 1 2 0 2 1 1 0 2 1 1 0 2 1 2 0 2 1 1 0 2 1 3 1 2 1 1 0 2 1 1 0 1 1 1 0 2 1 1 0c2,0 1,-1 1,1l0 0 2 1 1 0 1 1 1 0 2 1 1 0c2,0 1,0 1,1 2,2 2,2 4,4 1,0 1,0 1,1l0 2 1 2 0 1c2,2 1,52 1,59 0,4 1,56 -1,60l0 1c0,2 1,1 -1,1 -1,2 0,1 -2,2l-2 1 -1 0c-2,2 -5,2 -7,0l-1 0c-2,0 -1,1 -1,-1l0 0c-2,0 -1,0 -1,-1l0 0c-2,0 -1,0 -1,-1l0 0c-2,0 -1,0 -1,-1l0 0c-2,0 -1,0 -1,-1l0 0c-2,0 -1,0 -1,-1l0 0c-2,0 -1,1 -1,-1l0 0 -1 -1 -4 -2c-2,0 -1,1 -1,-1l0 0 -1 -1 -1 0c-2,0 -1,1 -1,-1l0 0 -1 -1 -1 0c-2,0 -2,1 -2,-1l0 0 -2 -1 -1 0 -1 -1 -1 0 -2 -1 -1 0 -2 -1 -1 0 -2 -1 -1 0 -2 -1 -1 0 -2 -1 -1 0 -2 -1 -1 0 -2 -1 -1 0 -2 -1 -1 0 -2 -1 -1 0 -2 -1 -1 0 -2 -1 -2 0 -2 -1 -2 0 -3 -1 -2 0 -2 -1 -6 -1 -2 -1 -2 0 -3 -1 -2 0 -3 -1 -8 -1 -2 -1 -3 0 -4 -1 -2 0c-3,0 -4,0 -6,-1l-6 0 -4 -1c-5,0 -13,0 -19,0 -6,0 -13,1 -19,0l-3 1zm-269 -30c0,3 0,5 -1,7l0 5 -1 4 0 4 -1 3 0 3c0,3 0,2 -1,4l-1 6 -1 2 0 3 -1 2 -1 6 -1 2 -1 5 -1 2 0 1 -1 2 0 2 -1 2 -2 7 -1 2 0 1 -1 2 0 1 -1 1 0 1 -1 2 0 1c0,2 1,1 -1,1l0 0 -1 2 0 1c0,2 1,1 -1,1l0 1 -1 1 0 1c0,2 1,1 -1,1l0 0c0,2 1,1 -1,1l-1 3c0,2 1,1 -1,1l0 0c0,2 1,1 -1,1l0 0c0,2 0,1 -1,1l0 0c0,2 0,1 -1,1l0 0c0,2 0,1 -1,1l0 0c0,2 0,1 -1,1l0 0c0,2 0,1 -1,1l0 0c0,2 0,1 -1,1l0 0c0,2 0,1 -1,1l-1 3c0,1 0,1 -1,1l0 1c0,1 0,1 -1,1l-1 1c0,1 0,1 -1,1l-2 3c0,1 0,1 -1,1l-1 1c0,1 0,1 -1,1l-1 1c0,1 0,1 -1,1l-1 1c0,1 0,1 -1,1l-1 2c0,1 0,1 -1,1l-1 2c0,1 0,1 -1,1l-1 2c0,1 0,1 -1,1 0,1 0,1 -1,1l-2 3 -1 1c0,1 0,1 -1,1l-2 3c0,1 0,1 -1,1 0,1 0,1 -1,1 0,1 0,1 -1,1 0,1 0,1 -1,1 0,1 0,1 -1,1 -4,5 -8,9 -13,13 0,1 0,1 -1,1 0,1 0,1 -1,1 0,1 0,1 -1,1 0,1 0,1 -1,1l-3 2c0,1 0,1 -1,1 0,1 0,1 -1,1 0,1 0,1 -1,1l-2 1c0,1 0,1 -1,1 0,1 0,1 -1,1l-2 1c0,1 0,1 -1,1 0,1 0,1 -1,1l-1 1c0,1 0,1 -1,1 0,1 0,1 -1,1l-1 1c0,1 0,1 -1,1l-1 1c0,1 0,1 -1,1l-1 1c0,1 0,1 -1,1 0,1 0,1 -1,1l-1 0c0,1 0,1 -1,1 0,1 0,1 -1,1l-1 0c0,1 0,1 -1,1l-1 1c0,1 0,1 -1,1l-1 1c0,1 0,1 -1,1l0 0c0,1 0,1 -1,1l-1 1c0,1 0,1 -1,1l0 0c0,1 0,1 -1,1l0 0c0,1 0,1 -1,1l-2 1c0,1 0,1 -1,1l0 0c0,1 0,1 -1,1l0 0c0,1 0,1 -1,1l0 0c0,1 0,1 -1,1l0 0c0,1 0,1 -1,1l0 0c0,1 0,1 -1,1l0 0c0,1 0,1 -1,1l0 0c0,1 0,1 -1,1l0 0c0,1 0,1 -1,1l-3 1 -1 1 0 0 -1 1 -1 0c0,1 0,1 -1,1l-3 1 -1 1 -3 1c0,1 0,1 -1,1l-1 0 -1 1 -1 0c0,1 0,1 -1,1l-1 0c0,1 0,1 -2,1l-1 0 -2 1 0 0 -2 1 -1 0 -2 1 0 0 -2 1 -1 0 -2 1 -4 1 -2 1 -1 0 -2 1 -1 0 -2 1 -1 0 -2 1 -1 0 -2 1 -1 0 -2 1 -1 0 -2 1 -1 0 -2 1 -2 0 -2 1 -2 0 -2 1 -3 0 -2 1 -2 0 -2 1 -2 0 -2 1 -3 0c-2,1 -1,1 -4,1l-2 0 -3 1 -3 0 -2 1 -12 1c-2,1 -2,1 -5,1l-1 0c-1,1 0,1 -3,1 -2,0 -1,0 -3,0l-9 0 -6 1 -63 1c-3,0 -5,0 -7,-1l-31 -1c-2,16 0,41 0,58 0,20 1,164 -1,171 0,2 0,1 -1,1l-2 2c0,1 0,1 -1,1l-1 0 -2 1 -137 0 -2 -1 -1 0c-1,0 -1,1 -1,-1 -1,0 -1,0 -1,-1 -1,0 -1,0 -1,-1l0 -1 -1 -2c-2,-4 -1,-590 -1,-713 0,-2 0,-4 0,-6 0,-3 0,-3 1,-5l0 -1c0,-2 -1,-1 1,-1l1 -2c0,-1 0,-1 1,-1l43 -1c3,-1 4,-1 7,-1l15 0c3,-1 14,-1 16,-1l20 0c3,-1 9,-1 14,-1l61 -1c5,-2 60,-2 64,0l11 0c2,0 2,0 4,0l2 1c0,0 0,0 1,0l5 0 4 1 7 0c2,0 1,0 3,0 0,0 1,0 1,0 0,0 0,0 1,0l3 0 3 1 4 0c3,0 2,0 4,1l3 0 3 1 2 0 3 1 3 0 2 1 2 0 2 1 3 0 2 1 2 0 2 1 1 0c3,1 2,0 3,1l2 0 2 1 9 2 2 1 1 0 2 1 1 0 2 1 1 0 2 1 6 2 2 1 3 1 2 1 1 0 1 1 1 0c2,0 2,-1 2,1l1 0c2,0 1,-1 1,1l1 0 2 1 1 0 1 1 1 0c2,0 2,-1 2,1l3 1c2,0 1,-1 1,1l3 1c2,0 1,-1 1,1l0 0 1 1 4 2c2,0 1,-1 1,1l0 0c2,0 1,0 1,1l1 0c2,0 1,0 1,1l0 0c2,0 1,0 1,1l1 0 1 1 0 0c2,0 1,0 1,1l0 0c2,0 1,0 1,1l0 0c2,0 1,0 1,1l1 0c2,0 1,0 1,1l3 1c2,0 1,0 1,1l0 0c1,0 1,0 1,1l0 0c2,0 1,0 1,1l1 1c1,0 1,0 1,1l0 0c1,0 1,0 1,1l1 1c1,0 1,0 1,1l1 1c1,0 1,0 1,1l0 0c1,0 1,0 1,1 1,0 1,0 1,1l1 1c1,0 1,0 1,1l1 0c1,0 1,0 1,1 1,0 1,0 1,1l1 1c1,0 1,0 1,1l2 1c1,0 1,0 1,1l1 1c1,0 1,0 1,1 1,0 1,0 1,1l2 1c1,0 1,0 1,1 1,0 1,0 1,1l2 1c1,0 1,0 1,1 1,0 1,0 1,1l3 2c1,0 1,0 1,1 1,0 1,0 1,1 1,0 1,0 1,1 1,0 1,0 1,1l7 6c1,0 1,0 1,1l6 7c1,0 1,0 1,1 1,0 1,0 1,1 1,0 1,0 1,1 1,0 1,0 1,1l2 3c1,0 1,0 1,1 1,0 1,0 1,1l1 2c1,0 1,0 1,1l1 2c1,0 1,0 1,1 1,0 1,0 1,1l1 1c1,0 1,0 1,1 1,0 1,0 1,1l1 1c1,0 1,0 1,1l1 1c1,0 1,0 1,1l1 1c1,0 1,0 1,1l1 1c1,0 1,0 1,1l1 1c1,0 1,0 1,1l0 1c1,0 1,0 1,1l1 2c1,0 1,0 1,1l0 0c1,0 1,0 1,1l2 3c1,0 1,0 1,1l0 0c1,0 1,0 1,1l0 0c1,0 1,0 1,1l0 0c1,0 1,0 1,1l0 0 1 1 0 0c1,0 1,0 1,1l0 0 1 1 0 0c1,0 1,0 1,1l0 0c1,0 1,0 1,1l0 0c1,0 1,0 1,1l0 0c1,0 1,0 1,1l0 1 1 1 0 1 1 1 0 0c1,0 1,0 1,1l0 1 1 1 0 1 1 1 0 1 1 1 0 1 1 2 1 3 1 2 2 6 1 2 0 1 1 2 0 1 1 2 0 1 1 2 0 1 1 2 0 1 1 2 0 1 1 2 0 2 1 2 0 2 1 3 0 2 1 2 0 2 1 3 0 2 1 3 1 11 1 6 0 4c2,4 2,26 0,30l0 4zm-903 -399l0 1062c0,40 13,81 28,116 9,21 28,48 42,65 2,2 2,3 4,5l32 31c51,41 117,68 184,68l1093 0c11,0 23,-1 33,-3 47,-7 92,-23 130,-50l20 -15c12,-9 27,-24 36,-36 3,-4 6,-6 8,-10 13,-17 26,-36 34,-56 7,-17 14,-34 19,-53 4,-18 9,-41 9,-63l0 -1062c0,-40 -13,-81 -28,-116 -4,-8 -8,-16 -12,-23 -1,-2 -2,-3 -3,-6 -9,-14 -15,-24 -26,-36l-17 -19c-51,-51 -130,-85 -202,-85l-1093 0c-38,0 -84,11 -117,27 -27,13 -44,24 -66,41 -7,5 -22,20 -27,26 -4,5 -11,11 -17,19 -3,4 -5,7 -8,10 -31,42 -55,109 -55,161z"/>
   <path class="fil0" d="M4067 -625c-1,6 0,162 0,176 0,12 -2,49 0,58l6 0c3,0 3,0 6,1l7 0 55 0 7 0 5 -1 18 -2 2 -1 2 0 2 -1 3 0 2 -1 2 0 2 -1 2 0 2 -1 1 0 2 -1 2 0 2 -1 1 0 2 -1 1 0 2 -1 2 0 2 -1 1 0 2 -1 1 0 2 -1 4 -1 2 -1 1 0 2 -1 1 0 1 -1 1 0 1 -1 1 0 1 -1 0 0c0,-1 0,-1 1,-1l7 -3c0,-1 0,-1 1,-1l0 0c0,-1 0,-1 1,-1l0 0 1 -1 1 -1c0,-1 0,-1 1,-1l1 -1c0,-1 0,-1 1,-1l1 -1c0,-1 0,-1 1,-1l1 -1c0,-1 0,-1 1,-1l2 -1c0,-1 0,-1 1,-1 0,-1 0,-1 1,-1l2 -2c0,-1 0,-1 1,-1 0,-1 0,-1 1,-1 0,-1 0,-1 1,-1 0,-1 0,-1 1,-1 0,-1 0,-1 1,-1 0,-1 0,-1 1,-1l5 -5c0,-1 0,-1 1,-1 0,-1 0,-1 1,-1 0,-1 0,-1 1,-1 0,-1 0,-1 1,-1 0,-1 0,-1 1,-1 0,-1 0,-1 1,-1l1 -1c0,-1 0,-1 1,-1 0,-1 0,-1 1,-1l1 -1c0,-1 0,-1 1,-1l1 -1c0,-1 0,-1 1,-1l0 0c0,-1 0,-1 1,-1l1 -1c0,-2 0,-1 1,-1l0 0 1 -1 0 0c0,-2 0,-1 1,-1l1 -2 1 -1 0 -1 1 -1 0 -1 1 -1 0 -1 1 -2 0 -1 1 -2 0 -1 1 -2 0 -2 1 -2 0 -1 1 -2 0 -2 1 -3 0 -3 1 -3 1 -13 0 -22 0 -3c-1,-2 -1,-2 -1,-5l0 -3 -1 -2 0 -1c-1,-1 -1,1 -1,-2l0 -2 -1 -2 0 -1 -1 -2 0 -1 -1 -2 0 -1 -1 -2 0 -1 -1 -1 0 -1 -1 -2 0 -1 -1 -1 -1 -3 -1 -1 0 0c-1,0 -1,0 -1,-1l0 0c-1,0 -1,0 -1,-1l0 0c-1,0 -1,0 -1,-1l0 0c-1,0 -1,0 -1,-1l0 -1c-1,0 -1,0 -1,-1l-2 -3c-1,0 -1,0 -1,-1l-1 -1c-1,0 -1,0 -1,-1l-1 -2c-1,0 -1,0 -1,-1 -1,0 -1,0 -1,-1l-1 -2c-1,0 -1,0 -1,-1 -1,0 -1,0 -1,-1 -1,0 -1,0 -1,-1l-8 -8c-1,0 -1,0 -1,-1 -1,0 -1,0 -1,-1 -1,0 -1,0 -1,-1l-2 -1c-1,0 -1,0 -1,-1l-2 -1c-1,0 -1,0 -1,-1l-1 -1c-1,0 -1,0 -1,-1l-1 -1c-1,0 -1,0 -1,-1l-3 -2c-2,0 -1,0 -1,-1l0 0c-2,0 -1,0 -1,-1l0 0c-2,0 -1,0 -1,-1l0 0c-2,0 -1,0 -1,-1l0 0c-2,0 -1,1 -1,-1l0 0 -1 -1 -1 0 -1 -1 0 0 -1 -1 -1 0c-2,0 -2,1 -2,-1l0 0 -2 -1 -1 0 -2 -1 -1 0 -1 -1 -3 -1 -2 -1 -2 0 -2 -1 -1 0 -2 -1 -1 0 -2 -1 -2 0 -2 -1 -1 0 -2 -1 -6 -1 -2 -1 -8 -1 -4 -1 -2 0c-1,0 -2,0 -3,0 -3,0 -2,0 -3,-1l-5 0 -53 0c-10,-1 -31,-1 -40,1z"/>
  </g>
  <g id="_751919952">
   <path class="fil0" d="M1113 899c39,-2 118,-5 153,2 5,66 1,438 1,534 0,21 1,21 -20,21 -41,0 -94,3 -134,-2 -6,-47 -2,-457 -3,-538l2 -17zm-759 554c-6,-18 48,-156 59,-186l127 -366c10,-29 42,-114 45,-140 3,-25 -6,-41 18,-41l175 1c10,14 176,490 196,548 10,28 65,168 61,184 -31,3 -106,1 -142,1 -26,0 -22,-11 -30,-35l-48 -138 -260 0c-9,37 -32,98 -45,140 -7,21 -4,33 -29,33 -34,0 -98,2 -129,-2zm824 -788c121,-18 132,162 26,173 -122,14 -136,-157 -26,-173zm-1172 -83l0 1072c0,79 41,147 91,197 44,44 117,84 203,84l1085 0c118,0 220,-75 265,-167 13,-27 29,-74 29,-114l0 -1072c0,-142 -135,-281 -294,-281l-1085 0c-118,0 -220,75 -265,167 -13,27 -29,74 -29,114z"/>
   <polygon class="fil0" points="597,1139 772,1140 686,853 "/>
  </g>
  <path class="fil1" d="M-1038 881l500 0c68,0 123,55 123,123l0 482c0,68 -55,123 -123,123l-500 0c-68,0 -123,-55 -123,-123l0 -482c0,-68 55,-123 123,-123zm209 630l14 55 66 0 13 -56 -93 1zm35 -39l3 8 2 3 16 0 2 -1 2 -5c10,-25 36,-134 41,-161 15,-75 26,-151 20,-228 -2,-29 -7,-61 -18,-88 -8,-21 -21,-45 -43,-54 -24,-10 -47,14 -57,34 -54,105 -20,285 6,392l9 37c6,21 12,40 18,64l0 0zm-7 5l-9 -8c-113,-106 -267,-462 -24,-528 10,-3 8,-2 18,-3 -192,83 -62,404 16,538l0 0zm41 0l9 -8c113,-106 267,-462 24,-528 -10,-3 -8,-2 -18,-3 192,83 62,404 -16,538l0 0zm-153 -510c-48,22 -85,71 -93,123l-2 22 0 18 3 20 1 9c19,104 105,240 181,312 -105,-140 -264,-362 -91,-505l0 0zm264 0c48,22 85,71 93,123l2 22 0 18 -3 20 -1 9c-19,104 -105,240 -181,312 105,-140 264,-362 91,-505l0 0z"/>
  <path class="fil1" d="M-793 2144c23,0 95,-2 112,2 31,6 53,27 64,50 21,42 6,94 -32,119 -10,7 -23,12 -36,14l-5 1c0,0 0,0 -1,0 10,2 17,3 27,7 8,3 16,8 21,12 11,9 22,21 29,38 30,75 -42,152 -121,121 -16,-6 -31,-18 -38,-29 -16,-22 -14,-26 -20,-48l0 84c0,27 0,53 0,80 0,28 -3,46 -16,65 -10,14 -25,28 -45,35 -66,24 -137,-32 -124,-104 4,-23 16,-41 28,-52 28,-25 49,-22 56,-25 -103,-13 -110,-138 -36,-175 14,-7 18,-7 34,-11l-4 -1c-9,-2 -10,-1 -20,-5 -86,-33 -77,-159 14,-178 16,-3 38,-2 55,-2 19,0 38,0 57,0zm-235 -96c-28,3 -51,11 -71,24 -40,26 -67,67 -72,117 -2,14 -1,75 -1,94 0,63 0,126 0,189 0,32 0,63 0,95 0,17 -1,82 1,94 6,57 37,96 71,118 19,12 42,22 70,25 15,2 74,1 94,1l284 0c18,0 82,1 94,-1 80,-9 135,-69 143,-141 2,-15 1,-75 1,-94l0 -331c0,-15 1,-33 -1,-47 -9,-81 -69,-134 -141,-143 -18,-2 -269,-1 -283,-1 -19,0 -174,-1 -188,1z"/>
  <path class="fil1" d="M-793 2413c1,-5 2,-11 4,-17 8,-26 25,-46 48,-57 13,-6 19,-6 33,-9l-86 0 0 84z"/>
 </g>
</svg>
