<?xml version="1.0" encoding="UTF-8"?>
<!DOCTYPE svg PUBLIC "-//W3C//DTD SVG 1.1//EN" "http://www.w3.org/Graphics/SVG/1.1/DTD/svg11.dtd">
<!-- Creator: CorelDRAW X6 -->
<svg xmlns="http://www.w3.org/2000/svg" xml:space="preserve" width="16.764mm" height="19.4732mm" version="1.1" style="shape-rendering:geometricPrecision; text-rendering:geometricPrecision; image-rendering:optimizeQuality; fill-rule:evenodd; clip-rule:evenodd"
viewBox="0 0 1676 1947"
 xmlns:xlink="http://www.w3.org/1999/xlink">
 <defs>
  <style type="text/css">
   <![CDATA[
    .fil0 {fill:#FEFEFE}
   ]]>
  </style>
 </defs>
 <g id="Слой_x0020_1">
  <metadata id="CorelCorpID_0Corel-Layer"/>
  <g id="_753380624">
   <path class="fil0" d="M4710 -465l-9 1 -2 1 -2 0 -2 1 -3 0 -2 1 -1 0 -2 1 -4 1 -1 1 -5 2c0,1 0,1 -1,1l0 0c0,1 0,1 -1,1 0,1 0,1 -1,1 -3,2 -4,3 -6,6 0,1 0,1 -1,1 0,1 0,1 -1,1l0 0c0,2 0,1 -1,1l0 0c0,2 1,1 -1,1l0 0 -1 1 0 1 -1 2 0 1 -1 2 0 1 -1 3 0 8 1 2 0 1 1 2 3 7c1,0 1,0 1,1l1 2c1,0 1,0 1,1 1,0 1,0 1,1 1,0 1,0 1,1l1 1c1,0 1,0 1,1l1 1c1,0 1,0 1,1 1,0 1,0 1,1 1,0 1,0 1,1 1,0 1,0 1,1l2 1c1,0 1,0 1,1 1,0 1,0 1,1l1 1c1,0 1,0 1,1l1 1c1,0 1,0 1,1l3 2c1,0 1,0 1,1l0 0c1,0 1,0 1,1l1 0c2,0 1,-1 1,1l0 0c2,0 1,-1 1,1l0 0c2,0 1,-1 1,1l0 0c2,0 1,-1 1,1l0 0c2,0 1,-1 1,1l0 0c2,0 1,-1 1,1l2 1c2,0 1,-1 1,1l0 0c2,0 1,-1 1,1l0 0c2,0 1,-1 1,1l0 0c2,0 1,-1 1,1l0 0c2,0 1,-1 1,1l0 0 1 1 0 0c2,0 1,0 1,1l0 0 1 1 1 0c2,0 1,-1 1,1l0 0c2,0 1,-1 1,1l0 0c2,0 1,-1 1,1l0 0 1 1 5 2c2,0 1,-1 1,1l0 0 1 1 3 1c2,0 1,-1 1,1l0 0 1 1 1 0 1 1 1 0 1 1 1 0 2 1 1 0 2 1 1 0 2 1 1 0 1 1 1 0 2 1 1 0 1 1 1 0 1 1 1 0 1 1 1 0 1 1 1 0 1 1 1 0c2,0 2,-1 2,1l3 1c2,0 1,-1 1,1l0 0 1 1 1 0c2,0 1,-1 1,1l0 0 1 1 3 1c2,0 1,-1 1,1l1 0 1 1 3 1c2,0 1,-1 1,1l0 0c2,0 1,-1 1,1l1 0 1 1 0 0c2,0 1,-1 1,1l3 1c2,0 1,-1 1,1l0 0c2,0 1,-1 1,1l0 0c2,0 1,-1 1,1l0 0c2,0 1,0 1,1l0 0c2,0 1,-1 1,1l0 0c2,0 1,0 1,1l0 0c2,0 1,0 1,1l0 0c2,0 1,0 1,1l0 0c2,0 1,0 1,1l0 0c2,0 1,0 1,1l0 0c2,0 1,0 1,1l0 0c2,0 1,0 1,1l0 0c2,0 1,-1 1,1l5 2c1,0 1,0 1,1l0 0c2,0 1,0 1,1l0 0c1,0 1,0 1,1l0 0c1,0 1,0 1,1l1 1 1 1 1 0c1,0 1,0 1,1l0 0c1,0 1,0 1,1l3 2c1,0 1,0 1,1l0 0c1,0 1,0 1,1l1 1c1,0 1,0 1,1l0 0c1,0 1,0 1,1l1 1c1,0 1,0 1,1l0 0c2,0 1,0 1,1l1 1c1,0 1,0 1,1l1 1c1,0 1,0 1,1l4 2c1,0 1,0 1,1l1 1c1,0 1,0 1,1 1,0 1,0 1,1l1 1c1,0 1,0 1,1l2 1c1,0 1,0 1,1 1,0 1,0 1,1l3 2c1,0 1,0 1,1 1,0 1,0 1,1 1,0 1,0 1,1 1,0 1,0 1,1 4,3 7,7 11,10 1,0 1,0 1,1 1,0 1,0 1,1 1,0 1,0 1,1l2 3c1,0 1,0 1,1 1,0 1,0 1,1l1 2c1,0 1,0 1,1 1,0 1,0 1,1l1 1c1,0 1,0 1,1l1 2c1,0 1,0 1,1l1 1c1,0 1,0 1,1l0 0 1 1 1 1c1,0 1,0 1,1l1 1c1,0 1,0 1,1l0 0c1,0 1,0 1,1l0 0c1,0 1,0 1,1l0 0 1 1 0 0c1,0 1,0 1,1l0 0 1 1 0 0c1,0 1,0 1,1l1 3c1,0 1,0 1,1l1 3 1 2 0 1 1 1 0 1 1 2 0 1 1 2 0 1 1 2 1 3 1 2 0 2 1 2 0 2 1 2 0 3 1 2 0 2 1 3 0 5 1 4 0 25c0,3 0,3 -1,5l0 6 -1 3 0 2 -1 3 0 1 -1 2 0 3 -1 2 0 1 -1 2 0 1 -1 2 0 1 -1 2 0 1 -1 2 0 1 -1 2 0 1 -1 1 0 1 -1 2 0 1 -1 1 0 1 -1 1 0 1 -1 1 0 1c0,2 1,1 -1,1l0 0c0,2 1,1 -1,1l0 0c0,2 1,1 -1,1l-4 9 -1 1 0 0c0,1 0,1 -1,1l0 1c0,1 0,1 -1,1l-2 3c0,1 0,1 -1,1l-1 1c0,1 0,1 -1,1l0 0c0,1 0,1 -1,1l-1 1c0,1 0,1 -1,1 0,1 0,1 -1,1l-1 1c0,1 0,1 -1,1l-1 2c0,1 0,1 -1,1 0,1 0,1 -1,1l-1 2c0,1 0,1 -1,1 0,1 0,1 -1,1 0,1 0,1 -1,1l-3 4c0,1 0,1 -1,1 0,1 0,1 -1,1 0,1 0,1 -1,1 0,1 0,1 -1,1 0,1 0,1 -1,1 0,1 0,1 -1,1 0,1 0,1 -1,1 0,1 0,1 -1,1 0,1 0,1 -1,1 0,1 0,1 -1,1 0,1 0,1 -1,1 0,1 0,1 -1,1 0,1 0,1 -1,1 0,1 0,1 -1,1l-4 3c0,1 0,1 -1,1 0,1 0,1 -1,1 0,1 0,1 -1,1l-2 2c0,1 0,1 -1,1 0,1 0,1 -1,1l-1 1c0,1 0,1 -1,1 0,1 0,1 -1,1l-1 1c0,1 0,1 -1,1l-1 1c0,1 0,1 -1,1 0,1 0,1 -1,1l0 0c0,1 0,1 -1,1l-1 1c0,1 0,1 -1,1l-1 1c0,1 0,1 -1,1l0 0c0,1 0,1 -1,1 0,1 0,1 -1,1l0 0c0,1 0,1 -1,1l0 0 -1 1 -5 2c0,1 0,1 -1,1l-1 0c0,1 0,1 -1,1l0 0c0,1 0,1 -1,1l-4 2 -1 1 0 0c0,1 0,1 -1,1l0 0c0,1 0,1 -1,1l-1 0 -1 1 0 0c0,1 0,1 -1,1l-1 0 -1 1 -1 0 -1 1 -1 0 -1 1 -1 0c0,1 0,1 -1,1l-1 0 -2 1 -1 0 -2 1 -1 0 -2 1 -1 0 -2 1 -1 0 -2 1 -1 0 -2 1 -1 0 -2 1 -1 0 -2 1 -5 1 -2 1 -1 0 -2 1 -2 0 -2 1 -2 0 -2 1 -2 0 -2 1 -2 0 -2 1 -2 0 -3 1 -2 0 -2 1 -4 0 -2 1 -3 0c-2,1 -2,1 -5,1l-2 0c0,1 -3,1 -4,1l-6 0 -6 1 -10 0 -4 1c-7,1 -29,1 -32,-1l-6 0 -5 -1 -8 0 -4 -1 -7 0 -3 -1 -5 0c-3,0 -3,0 -5,-1l-3 0 -2 -1 -8 -1 -2 -1 -3 0 -2 -1 -3 0 -2 -1 -2 0 -2 -1 -3 0 -2 -1 -2 0 -2 -1 -3 0 -2 -1 -2 0 -2 -1 -5 -1 -2 -1 -1 0 -2 -1 -2 0 -2 -1 -4 -1 -2 -1 -1 0 -2 -1 -1 0 -2 -1 -1 0 -2 -1 -1 0 -2 -1 -1 0 -2 -1 -1 0 -1 -1 -1 0 -2 -1 -1 0 -1 -1 -1 0 -1 -1 -1 0 -1 -1 -3 -1 -1 -1 -3 -1c-2,0 -1,1 -1,-1l-1 0c-2,0 -1,1 -1,-1l0 0 -1 -1 -4 -2c-1,0 -1,0 -1,-1 -2,-2 -4,-3 -5,-6l-1 -2 0 -129c0,-2 -1,-1 1,-1l1 -1c0,-1 0,-1 1,-1l1 0c1,-1 0,-1 2,-1 3,0 1,0 2,1l2 1c1,0 1,0 1,1l0 0c2,0 1,0 1,1l3 1c1,0 1,0 1,1l0 0c1,0 1,0 1,1l0 0c1,0 1,0 1,1l0 0c2,0 1,-1 1,1l6 3 1 1 1 0 1 1 3 1c2,0 1,-1 1,1l0 0c2,0 1,-1 1,1l0 0c2,0 1,-1 1,1l0 0c2,0 1,-1 1,1l0 0 1 1 1 0 1 1 1 0 1 1 3 1c2,0 1,-1 1,1l1 0 1 1 1 0 1 1 1 0 2 1 1 0 1 1 1 0c2,0 2,-1 2,1l1 0c2,0 1,-1 1,1l1 0 2 1 1 0 2 1 3 1 2 1 2 0 2 1 4 1 2 1 4 1 2 1 5 1 2 1 1 0 2 1 2 0 2 1 1 0 2 1 2 0 2 1 6 1 2 1 3 0 2 1 1 0 2 1 9 1 3 1 11 1 6 1 4 0c2,0 3,0 5,0 0,0 2,0 3,0 2,0 1,0 3,1l23 0c1,-1 1,-1 3,-1 2,0 3,0 4,0l4 0 5 -1 8 -1 2 -1 2 0 2 -1 2 0 2 -1 1 0 2 -1 1 0 1 -1 1 0 2 -1 0 0c0,-1 0,-1 1,-1l3 -1 1 -1 0 0c0,-1 0,-1 1,-1l0 0c0,-1 0,-1 1,-1l1 -1c0,-1 0,-1 1,-1 3,-2 4,-3 6,-6 0,-1 0,-1 1,-1 0,-1 0,-1 1,-1l1 -1c0,-1 0,-1 1,-1l0 -1 1 -1 0 0 1 -1 0 -1 1 -2 0 -1 1 -2 0 -2 1 -2 -1 -9 -1 -2 0 0c-1,0 -1,0 -1,-1l-2 -4c-1,0 -1,0 -1,-1l-3 -5c-1,0 -1,0 -1,-1 -1,0 -1,0 -1,-1 -1,0 -1,0 -1,-1 -1,0 -1,0 -1,-1 -1,0 -1,0 -1,-1 -1,0 -1,0 -1,-1 -1,0 -1,0 -1,-1 -1,0 -1,0 -1,-1l-2 -2c-1,0 -1,0 -1,-1 -1,0 -1,0 -1,-1l-1 -1c-1,0 -1,0 -1,-1 -1,0 -1,0 -1,-1l0 0c-1,0 -1,0 -1,-1l-1 -1c-1,0 -1,0 -1,-1l0 0c-1,0 -1,0 -1,-1l-3 -1 -1 -1 -1 0c-1,0 -1,0 -1,-1l0 0c-2,0 -1,0 -1,-1l-1 0c-2,0 -1,0 -1,-1l0 0c-2,0 -1,0 -1,-1l-1 0c-2,0 -1,0 -1,-1l0 0c-2,0 -1,0 -1,-1l-1 0 -1 -1 -4 -2c-2,0 -1,1 -1,-1l-1 0 -1 -1 0 0 -1 -1 -3 -1c-2,0 -1,1 -1,-1l0 0 -1 -1 -1 0c-2,0 -1,1 -1,-1l0 0c-2,0 -1,1 -1,-1l0 0 -1 -1 -1 0c-2,0 -1,1 -1,-1l-1 0 -1 -1 -1 0c-2,0 -1,1 -1,-1l0 0c-2,0 -1,1 -1,-1l-3 -1 -1 -1 -1 0c-2,0 -1,1 -1,-1l0 0 -1 -1 -1 0c-2,0 -1,1 -1,-1l-1 0 -1 -1 -1 0 -1 -1 -1 0c-2,0 -2,1 -2,-1l0 0 -2 -1 -1 0 -2 -1 -2 -1 -3 -1 -1 -1 -3 -1c-2,0 -1,1 -1,-1l0 0 -1 -1 -1 0c-2,0 -1,1 -1,-1l0 0 -1 -1 -3 -1c-2,0 -1,1 -1,-1l0 0c-2,0 -1,1 -1,-1l0 0 -1 -1 -1 0 -1 -1 -1 0c-2,0 -1,1 -1,-1l0 0c-2,0 -1,1 -1,-1l0 0c-2,0 -1,0 -1,-1l0 0c-2,0 -1,0 -1,-1l0 0 -1 -1 0 0c-2,0 -1,0 -1,-1l0 0 -1 -1 0 0 -1 -1 0 0 -1 -1 -2 -1 -1 -1 -1 0 -1 -1 0 0c-1,0 -1,0 -1,-1l-1 0c-1,0 -1,0 -1,-1l0 0c-1,0 -1,0 -1,-1l-1 0c-2,0 -1,0 -1,-1l-3 -1c-1,0 -1,0 -1,-1l0 0c-1,0 -1,0 -1,-1l0 0c-2,0 -1,0 -1,-1l-1 -1c-1,0 -1,0 -1,-1l0 0c-2,0 -1,0 -1,-1l0 0c-2,0 -1,0 -1,-1l-1 -1c-1,0 -1,0 -1,-1l-3 -2c-1,0 -1,0 -1,-1l-1 -1c-1,0 -1,0 -1,-1l0 0c-1,0 -1,0 -1,-1l-1 -1c-1,0 -1,0 -1,-1l-1 -1c-1,0 -1,0 -1,-1l-1 -1c-1,0 -1,0 -1,-1l-1 -1c-1,0 -1,0 -1,-1l-1 -1 -1 -1 -1 -1 -1 -1c-1,0 -1,0 -1,-1l-1 -1c-1,0 -1,0 -1,-1l-2 -1c-1,0 -1,0 -1,-1 -1,0 -1,0 -1,-1l-3 -2c-1,0 -1,0 -1,-1 -1,0 -1,0 -1,-1l-6 -5c-1,0 -1,0 -1,-1l-1 -1c-1,0 -1,0 -1,-1 -1,0 -1,0 -1,-1 -1,0 -1,0 -1,-1l-1 -1c-1,0 -1,0 -1,-1l-5 -6c-1,0 -1,0 -1,-1 -1,0 -1,0 -1,-1l-2 -3c-1,0 -1,0 -1,-1l-1 -1 -1 -2c-1,0 -1,0 -1,-1 -1,0 -1,0 -1,-1l-1 -1c-1,0 -1,0 -1,-1l-1 -2c-1,0 -1,0 -1,-1l-1 -1c-1,0 -1,0 -1,-1l-1 -1c-1,0 -1,0 -1,-1l-1 -1c-1,0 -1,0 -1,-1l0 0c-1,0 -1,0 -1,-1l-1 -1c-1,0 -1,0 -1,-1l0 0c-1,0 -1,0 -1,-1l-1 -3c-1,0 -1,0 -1,-1l-1 -3 -1 -1 0 0 -1 -1 0 0c-1,0 -1,0 -1,-1l0 -1 -1 -1 0 -1 -1 -1 0 -1 -1 -1 0 -1 -1 -2 0 -1 -1 -1 -1 -4 -1 -2 -1 -5 -1 -2 0 -2c-1,-1 -1,0 -1,-3l0 -2 -1 -2 -1 -7c-1,-2 -1,-2 -1,-5l0 -4c-2,-3 -2,-19 0,-22l0 -6 1 -4 0 -4 1 -2 0 -3 1 -2 0 -2 1 -2 0 -2 1 -2 0 -2 1 -2 0 -1 1 -2 0 -1 1 -2 0 -1 1 -2 0 -1 1 -2 0 -1 1 -2 0 -1 1 -2 1 -3c0,-2 -1,-2 1,-2l1 -3c0,-2 -1,-1 1,-1l0 0 1 -1 2 -4c0,-2 -1,-1 1,-1l1 -2c0,-2 -1,-1 1,-1l1 -3 1 -1 0 -1c0,-1 0,-1 1,-1l0 0c0,-1 0,-1 1,-1l1 -1c0,-1 0,-1 1,-1l0 -1c0,-1 0,-1 1,-1 0,-1 0,-1 1,-1l0 -1c0,-1 0,-1 1,-1l1 -1c0,-1 0,-1 1,-1 0,-1 0,-1 1,-1l1 -1c0,-1 0,-1 1,-1l1 -2c0,-1 0,-1 1,-1 0,-1 0,-1 1,-1l1 -2c0,-1 0,-1 1,-1 0,-1 0,-1 1,-1l2 -3c0,-1 0,-1 1,-1 0,-1 0,-1 1,-1 0,-1 0,-1 1,-1 0,-1 0,-1 1,-1 0,-1 0,-1 1,-1 0,-1 0,-1 1,-1l1 -1c0,-1 0,-1 1,-1l1 -1c0,-1 0,-1 1,-1l1 -1c0,-1 0,-1 1,-1l1 -1c0,-1 0,-1 1,-1 0,-1 0,-1 1,-1 0,-1 0,-1 1,-1 0,-1 0,-1 1,-1l4 -3c0,-1 0,-1 1,-1 0,-1 0,-1 1,-1l2 -1c0,-1 0,-1 1,-1 0,-1 0,-1 1,-1l1 -1c0,-1 0,-1 1,-1 0,-1 0,-1 1,-1l1 -1c0,-1 0,-1 1,-1l1 -1 1 -1 4 -2c0,-1 0,-1 1,-1l1 -1c0,-1 0,-1 1,-1l0 0c0,-1 0,-1 1,-1l1 -1c0,-1 0,-1 1,-1l0 0c0,-1 0,-1 1,-1l15 -7c0,-1 0,-1 1,-1l0 0 1 -1 0 0c0,-1 0,-1 1,-1l0 0c0,-1 0,-1 1,-1l3 -1 1 -1 1 0 1 -1 1 0 1 -1 3 -1 2 -1 3 -1 2 -1 1 0 2 -1 1 0 2 -1 1 0 2 -1 1 0 2 -1 1 0 2 -1 1 0 2 -1 2 0 2 -1 1 0 2 -1 3 0 2 -1 2 0 3 -1 2 0 3 -1 2 0c2,-1 0,-1 3,-1l5 0 4 -1 3 0c1,-1 1,-1 4,-1l7 0 5 -1 47 0c3,0 9,0 11,1l3 0c2,0 4,0 6,0 1,0 2,0 2,0 2,0 1,0 2,1l4 0 4 1 3 0c3,0 4,0 6,1l4 0 3 1 5 0c2,0 3,0 4,1l2 0 3 1 9 1 2 1 3 0 2 1 6 1 3 1 1 0 2 1 2 0 2 1 1 0 2 1 1 0 2 1 2 0 2 1 1 0 2 1 3 1 2 1 1 0 2 1 1 0 1 1 1 0 2 1 1 0c2,0 1,-1 1,1l0 0 2 1 1 0 1 1 1 0 2 1 1 0c2,0 1,0 1,1 2,2 2,2 4,4 1,0 1,0 1,1l0 2 1 2 0 1c2,2 1,52 1,59 0,4 1,56 -1,60l0 1c0,2 1,1 -1,1 -1,2 0,1 -2,2l-2 1 -1 0c-2,2 -5,2 -7,0l-1 0c-2,0 -1,1 -1,-1l0 0c-2,0 -1,0 -1,-1l0 0c-2,0 -1,0 -1,-1l0 0c-2,0 -1,0 -1,-1l0 0c-2,0 -1,0 -1,-1l0 0c-2,0 -1,0 -1,-1l0 0c-2,0 -1,1 -1,-1l0 0 -1 -1 -4 -2c-2,0 -1,1 -1,-1l0 0 -1 -1 -1 0c-2,0 -1,1 -1,-1l0 0 -1 -1 -1 0c-2,0 -2,1 -2,-1l0 0 -2 -1 -1 0 -1 -1 -1 0 -2 -1 -1 0 -2 -1 -1 0 -2 -1 -1 0 -2 -1 -1 0 -2 -1 -1 0 -2 -1 -1 0 -2 -1 -1 0 -2 -1 -1 0 -2 -1 -1 0 -2 -1 -1 0 -2 -1 -2 0 -2 -1 -2 0 -3 -1 -2 0 -2 -1 -6 -1 -2 -1 -2 0 -3 -1 -2 0 -3 -1 -8 -1 -2 -1 -3 0 -4 -1 -2 0c-3,0 -4,0 -6,-1l-6 0 -4 -1c-5,0 -13,0 -19,0 -6,0 -13,1 -19,0l-3 1zm-269 -30c0,3 0,5 -1,7l0 5 -1 4 0 4 -1 3 0 3c0,3 0,2 -1,4l-1 6 -1 2 0 3 -1 2 -1 6 -1 2 -1 5 -1 2 0 1 -1 2 0 2 -1 2 -2 7 -1 2 0 1 -1 2 0 1 -1 1 0 1 -1 2 0 1c0,2 1,1 -1,1l0 0 -1 2 0 1c0,2 1,1 -1,1l0 1 -1 1 0 1c0,2 1,1 -1,1l0 0c0,2 1,1 -1,1l-1 3c0,2 1,1 -1,1l0 0c0,2 1,1 -1,1l0 0c0,2 0,1 -1,1l0 0c0,2 0,1 -1,1l0 0c0,2 0,1 -1,1l0 0c0,2 0,1 -1,1l0 0c0,2 0,1 -1,1l0 0c0,2 0,1 -1,1l0 0c0,2 0,1 -1,1l-1 3c0,1 0,1 -1,1l0 1c0,1 0,1 -1,1l-1 1c0,1 0,1 -1,1l-2 3c0,1 0,1 -1,1l-1 1c0,1 0,1 -1,1l-1 1c0,1 0,1 -1,1l-1 1c0,1 0,1 -1,1l-1 2c0,1 0,1 -1,1l-1 2c0,1 0,1 -1,1l-1 2c0,1 0,1 -1,1 0,1 0,1 -1,1l-2 3 -1 1c0,1 0,1 -1,1l-2 3c0,1 0,1 -1,1 0,1 0,1 -1,1 0,1 0,1 -1,1 0,1 0,1 -1,1 0,1 0,1 -1,1 -4,5 -8,9 -13,13 0,1 0,1 -1,1 0,1 0,1 -1,1 0,1 0,1 -1,1 0,1 0,1 -1,1l-3 2c0,1 0,1 -1,1 0,1 0,1 -1,1 0,1 0,1 -1,1l-2 1c0,1 0,1 -1,1 0,1 0,1 -1,1l-2 1c0,1 0,1 -1,1 0,1 0,1 -1,1l-1 1c0,1 0,1 -1,1 0,1 0,1 -1,1l-1 1c0,1 0,1 -1,1l-1 1c0,1 0,1 -1,1l-1 1c0,1 0,1 -1,1 0,1 0,1 -1,1l-1 0c0,1 0,1 -1,1 0,1 0,1 -1,1l-1 0c0,1 0,1 -1,1l-1 1c0,1 0,1 -1,1l-1 1c0,1 0,1 -1,1l0 0c0,1 0,1 -1,1l-1 1c0,1 0,1 -1,1l0 0c0,1 0,1 -1,1l0 0c0,1 0,1 -1,1l-2 1c0,1 0,1 -1,1l0 0c0,1 0,1 -1,1l0 0c0,1 0,1 -1,1l0 0c0,1 0,1 -1,1l0 0c0,1 0,1 -1,1l0 0c0,1 0,1 -1,1l0 0c0,1 0,1 -1,1l0 0c0,1 0,1 -1,1l0 0c0,1 0,1 -1,1l-3 1 -1 1 0 0 -1 1 -1 0c0,1 0,1 -1,1l-3 1 -1 1 -3 1c0,1 0,1 -1,1l-1 0 -1 1 -1 0c0,1 0,1 -1,1l-1 0c0,1 0,1 -2,1l-1 0 -2 1 0 0 -2 1 -1 0 -2 1 0 0 -2 1 -1 0 -2 1 -4 1 -2 1 -1 0 -2 1 -1 0 -2 1 -1 0 -2 1 -1 0 -2 1 -1 0 -2 1 -1 0 -2 1 -1 0 -2 1 -2 0 -2 1 -2 0 -2 1 -3 0 -2 1 -2 0 -2 1 -2 0 -2 1 -3 0c-2,1 -1,1 -4,1l-2 0 -3 1 -3 0 -2 1 -12 1c-2,1 -2,1 -5,1l-1 0c-1,1 0,1 -3,1 -2,0 -1,0 -3,0l-9 0 -6 1 -63 1c-3,0 -5,0 -7,-1l-31 -1c-2,16 0,41 0,58 0,20 1,164 -1,171 0,2 0,1 -1,1l-2 2c0,1 0,1 -1,1l-1 0 -2 1 -137 0 -2 -1 -1 0c-1,0 -1,1 -1,-1 -1,0 -1,0 -1,-1 -1,0 -1,0 -1,-1l0 -1 -1 -2c-2,-4 -1,-590 -1,-713 0,-2 0,-4 0,-6 0,-3 0,-3 1,-5l0 -1c0,-2 -1,-1 1,-1l1 -2c0,-1 0,-1 1,-1l43 -1c3,-1 4,-1 7,-1l15 0c3,-1 14,-1 16,-1l20 0c3,-1 9,-1 14,-1l61 -1c5,-2 60,-2 64,0l11 0c2,0 2,0 4,0l2 1c0,0 0,0 1,0l5 0 4 1 7 0c2,0 1,0 3,0 0,0 1,0 1,0 0,0 0,0 1,0l3 0 3 1 4 0c3,0 2,0 4,1l3 0 3 1 2 0 3 1 3 0 2 1 2 0 2 1 3 0 2 1 2 0 2 1 1 0c3,1 2,0 3,1l2 0 2 1 9 2 2 1 1 0 2 1 1 0 2 1 1 0 2 1 6 2 2 1 3 1 2 1 1 0 1 1 1 0c2,0 2,-1 2,1l1 0c2,0 1,-1 1,1l1 0 2 1 1 0 1 1 1 0c2,0 2,-1 2,1l3 1c2,0 1,-1 1,1l3 1c2,0 1,-1 1,1l0 0 1 1 4 2c2,0 1,-1 1,1l0 0c2,0 1,0 1,1l1 0c2,0 1,0 1,1l0 0c2,0 1,0 1,1l1 0 1 1 0 0c2,0 1,0 1,1l0 0c2,0 1,0 1,1l0 0c2,0 1,0 1,1l1 0c2,0 1,0 1,1l3 1c2,0 1,0 1,1l0 0c1,0 1,0 1,1l0 0c2,0 1,0 1,1l1 1c1,0 1,0 1,1l0 0c1,0 1,0 1,1l1 1c1,0 1,0 1,1l1 1c1,0 1,0 1,1l0 0c1,0 1,0 1,1 1,0 1,0 1,1l1 1c1,0 1,0 1,1l1 0c1,0 1,0 1,1 1,0 1,0 1,1l1 1c1,0 1,0 1,1l2 1c1,0 1,0 1,1l1 1c1,0 1,0 1,1 1,0 1,0 1,1l2 1c1,0 1,0 1,1 1,0 1,0 1,1l2 1c1,0 1,0 1,1 1,0 1,0 1,1l3 2c1,0 1,0 1,1 1,0 1,0 1,1 1,0 1,0 1,1 1,0 1,0 1,1l7 6c1,0 1,0 1,1l6 7c1,0 1,0 1,1 1,0 1,0 1,1 1,0 1,0 1,1 1,0 1,0 1,1l2 3c1,0 1,0 1,1 1,0 1,0 1,1l1 2c1,0 1,0 1,1l1 2c1,0 1,0 1,1 1,0 1,0 1,1l1 1c1,0 1,0 1,1 1,0 1,0 1,1l1 1c1,0 1,0 1,1l1 1c1,0 1,0 1,1l1 1c1,0 1,0 1,1l1 1c1,0 1,0 1,1l1 1c1,0 1,0 1,1l0 1c1,0 1,0 1,1l1 2c1,0 1,0 1,1l0 0c1,0 1,0 1,1l2 3c1,0 1,0 1,1l0 0c1,0 1,0 1,1l0 0c1,0 1,0 1,1l0 0c1,0 1,0 1,1l0 0 1 1 0 0c1,0 1,0 1,1l0 0 1 1 0 0c1,0 1,0 1,1l0 0c1,0 1,0 1,1l0 0c1,0 1,0 1,1l0 0c1,0 1,0 1,1l0 1 1 1 0 1 1 1 0 0c1,0 1,0 1,1l0 1 1 1 0 1 1 1 0 1 1 1 0 1 1 2 1 3 1 2 2 6 1 2 0 1 1 2 0 1 1 2 0 1 1 2 0 1 1 2 0 1 1 2 0 1 1 2 0 2 1 2 0 2 1 3 0 2 1 2 0 2 1 3 0 2 1 3 1 11 1 6 0 4c2,4 2,26 0,30l0 4zm-903 -399l0 1062c0,40 13,81 28,116 9,21 28,48 42,65 2,2 2,3 4,5l32 31c51,41 117,68 184,68l1093 0c11,0 23,-1 33,-3 47,-7 92,-23 130,-50l20 -15c12,-9 27,-24 36,-36 3,-4 6,-6 8,-10 13,-17 26,-36 34,-56 7,-17 14,-34 19,-53 4,-18 9,-41 9,-63l0 -1062c0,-40 -13,-81 -28,-116 -4,-8 -8,-16 -12,-23 -1,-2 -2,-3 -3,-6 -9,-14 -15,-24 -26,-36l-17 -19c-51,-51 -130,-85 -202,-85l-1093 0c-38,0 -84,11 -117,27 -27,13 -44,24 -66,41 -7,5 -22,20 -27,26 -4,5 -11,11 -17,19 -3,4 -5,7 -8,10 -31,42 -55,109 -55,161z"/>
   <path class="fil0" d="M4067 -625c-1,6 0,162 0,176 0,12 -2,49 0,58l6 0c3,0 3,0 6,1l7 0 55 0 7 0 5 -1 18 -2 2 -1 2 0 2 -1 3 0 2 -1 2 0 2 -1 2 0 2 -1 1 0 2 -1 2 0 2 -1 1 0 2 -1 1 0 2 -1 2 0 2 -1 1 0 2 -1 1 0 2 -1 4 -1 2 -1 1 0 2 -1 1 0 1 -1 1 0 1 -1 1 0 1 -1 0 0c0,-1 0,-1 1,-1l7 -3c0,-1 0,-1 1,-1l0 0c0,-1 0,-1 1,-1l0 0 1 -1 1 -1c0,-1 0,-1 1,-1l1 -1c0,-1 0,-1 1,-1l1 -1c0,-1 0,-1 1,-1l1 -1c0,-1 0,-1 1,-1l2 -1c0,-1 0,-1 1,-1 0,-1 0,-1 1,-1l2 -2c0,-1 0,-1 1,-1 0,-1 0,-1 1,-1 0,-1 0,-1 1,-1 0,-1 0,-1 1,-1 0,-1 0,-1 1,-1 0,-1 0,-1 1,-1l5 -5c0,-1 0,-1 1,-1 0,-1 0,-1 1,-1 0,-1 0,-1 1,-1 0,-1 0,-1 1,-1 0,-1 0,-1 1,-1 0,-1 0,-1 1,-1l1 -1c0,-1 0,-1 1,-1 0,-1 0,-1 1,-1l1 -1c0,-1 0,-1 1,-1l1 -1c0,-1 0,-1 1,-1l0 0c0,-1 0,-1 1,-1l1 -1c0,-2 0,-1 1,-1l0 0 1 -1 0 0c0,-2 0,-1 1,-1l1 -2 1 -1 0 -1 1 -1 0 -1 1 -1 0 -1 1 -2 0 -1 1 -2 0 -1 1 -2 0 -2 1 -2 0 -1 1 -2 0 -2 1 -3 0 -3 1 -3 1 -13 0 -22 0 -3c-1,-2 -1,-2 -1,-5l0 -3 -1 -2 0 -1c-1,-1 -1,1 -1,-2l0 -2 -1 -2 0 -1 -1 -2 0 -1 -1 -2 0 -1 -1 -2 0 -1 -1 -1 0 -1 -1 -2 0 -1 -1 -1 -1 -3 -1 -1 0 0c-1,0 -1,0 -1,-1l0 0c-1,0 -1,0 -1,-1l0 0c-1,0 -1,0 -1,-1l0 0c-1,0 -1,0 -1,-1l0 -1c-1,0 -1,0 -1,-1l-2 -3c-1,0 -1,0 -1,-1l-1 -1c-1,0 -1,0 -1,-1l-1 -2c-1,0 -1,0 -1,-1 -1,0 -1,0 -1,-1l-1 -2c-1,0 -1,0 -1,-1 -1,0 -1,0 -1,-1 -1,0 -1,0 -1,-1l-8 -8c-1,0 -1,0 -1,-1 -1,0 -1,0 -1,-1 -1,0 -1,0 -1,-1l-2 -1c-1,0 -1,0 -1,-1l-2 -1c-1,0 -1,0 -1,-1l-1 -1c-1,0 -1,0 -1,-1l-1 -1c-1,0 -1,0 -1,-1l-3 -2c-2,0 -1,0 -1,-1l0 0c-2,0 -1,0 -1,-1l0 0c-2,0 -1,0 -1,-1l0 0c-2,0 -1,0 -1,-1l0 0c-2,0 -1,1 -1,-1l0 0 -1 -1 -1 0 -1 -1 0 0 -1 -1 -1 0c-2,0 -2,1 -2,-1l0 0 -2 -1 -1 0 -2 -1 -1 0 -1 -1 -3 -1 -2 -1 -2 0 -2 -1 -1 0 -2 -1 -1 0 -2 -1 -2 0 -2 -1 -1 0 -2 -1 -6 -1 -2 -1 -8 -1 -4 -1 -2 0c-1,0 -2,0 -3,0 -3,0 -2,0 -3,-1l-5 0 -53 0c-10,-1 -31,-1 -40,1z"/>
  </g>
  <g id="_291926560">
   <path class="fil0" d="M3948 596c39,-2 118,-5 153,2 5,66 1,438 1,534 0,21 1,21 -20,21 -41,0 -94,3 -134,-2 -6,-47 -2,-457 -3,-538l2 -17zm-759 554c-6,-18 48,-156 59,-186l127 -366c10,-29 42,-114 45,-140 3,-25 -6,-41 18,-41l175 1c10,14 176,490 196,548 10,28 65,168 61,184 -31,3 -106,1 -142,1 -26,0 -22,-11 -30,-35l-48 -138 -260 0c-9,37 -32,98 -45,140 -7,21 -4,33 -29,33 -34,0 -98,2 -129,-2zm824 -788c121,-18 132,162 26,173 -122,14 -136,-157 -26,-173zm-1172 -83l0 1072c0,79 41,147 91,197 44,44 117,84 203,84l1085 0c118,0 220,-75 265,-167 13,-27 29,-74 29,-114l0 -1072c0,-142 -135,-281 -294,-281l-1085 0c-118,0 -220,75 -265,167 -13,27 -29,74 -29,114z"/>
   <polygon class="fil0" points="3433,837 3607,837 3522,551 "/>
  </g>
  <path class="fil0" d="M3121 -2737l1123 0c152,0 277,124 277,277l0 1081c0,152 -124,277 -277,277l-1123 0c-152,0 -277,-124 -277,-277l0 -1081c0,-152 124,-277 277,-277zm469 1414l31 124 149 0 29 -126 -209 2zm78 -88l6 18 4 8 36 0 4 -2 5 -12c22,-57 80,-300 92,-362 33,-168 57,-340 45,-512 -5,-65 -17,-138 -41,-198 -19,-47 -46,-100 -95,-121 -53,-23 -105,32 -128,76 -122,235 -44,640 13,880l19 82c13,48 27,90 40,143l0 0zm-15 12l-21 -17c-253,-238 -600,-1036 -53,-1184 22,-6 18,-5 39,-6 -430,185 -140,907 35,1207l0 0zm92 0l21 -17c253,-238 600,-1036 53,-1184 -22,-6 -18,-5 -39,-6 430,185 140,907 -35,1207l0 0zm-342 -1143c-108,50 -190,159 -208,277l-4 50 0 40 6 44 3 21c42,233 236,539 407,701 -236,-315 -591,-812 -204,-1134l0 0zm593 0c108,50 190,159 208,277l4 50 -1 40 -6 44 -3 21c-42,233 -236,539 -407,701 236,-315 592,-812 204,-1134l0 0z"/>
  <g id="_750097456">
   <path class="fil0" d="M838 522c49,0 204,-3 242,4 66,13 114,59 138,107 45,91 12,202 -69,256 -22,15 -50,26 -78,30l-11 2c0,0 -1,0 -1,1 23,5 36,6 57,15 17,7 34,17 46,27 24,19 48,46 63,82 65,161 -91,328 -260,262 -34,-13 -66,-40 -83,-62 -35,-47 -29,-56 -42,-104l-1 180c0,58 0,115 0,173 0,60 -6,99 -34,140 -21,30 -54,60 -97,76 -143,52 -295,-69 -267,-224 9,-50 35,-88 61,-112 60,-54 105,-47 120,-53 -222,-28 -238,-298 -78,-377 30,-15 40,-15 73,-23l-8 -3c-19,-3 -22,-3 -43,-11 -185,-70 -167,-343 30,-384 34,-7 82,-4 118,-4 41,0 82,0 122,0zm-506 -207c-60,7 -110,24 -153,52 -87,57 -144,144 -156,253 -3,30 -2,162 -2,202 0,136 0,272 0,408 0,68 0,136 0,204 0,38 -2,176 1,203 14,122 79,206 154,254 40,26 92,47 151,53 32,3 161,2 202,2l612 0c38,0 176,2 203,-1 173,-20 291,-148 308,-305 3,-31 2,-161 2,-202l0 -714c0,-31 2,-70 -1,-101 -19,-174 -149,-290 -305,-308 -39,-4 -580,-2 -610,-2 -40,0 -375,-2 -406,1z"/>
   <path class="fil0" d="M839 1103c3,-11 4,-24 8,-37 17,-55 53,-99 104,-124 27,-14 41,-13 72,-20l-185 0 1 180z"/>
  </g>
 </g>
</svg>
