<?xml version="1.0" encoding="UTF-8"?>
<!DOCTYPE svg PUBLIC "-//W3C//DTD SVG 1.1//EN" "http://www.w3.org/Graphics/SVG/1.1/DTD/svg11.dtd">
<!-- Creator: CorelDRAW X6 -->
<svg xmlns="http://www.w3.org/2000/svg" xml:space="preserve" width="35.556mm" height="5.549mm" version="1.1" style="shape-rendering:geometricPrecision; text-rendering:geometricPrecision; image-rendering:optimizeQuality; fill-rule:evenodd; clip-rule:evenodd"
viewBox="0 0 3556 555"
 xmlns:xlink="http://www.w3.org/1999/xlink">
 <defs>
  <style type="text/css">
   <![CDATA[
    .fil1 {fill:#FEFEFE}
    .fil0 {fill:#FEFEFE;fill-rule:nonzero}
   ]]>
  </style>
 </defs>
 <g id="Слой_x0020_1">
  <metadata id="CorelCorpID_0Corel-Layer"/>
  <g id="_177322864">
   <path class="fil0" d="M987 122l7 144c7,-9 14,-17 19,-24 6,-6 32,-42 79,-109l21 -29c7,-10 16,-14 27,-12 11,2 17,7 17,19 -1,15 -15,44 -45,84 -29,41 -57,73 -81,98 54,19 102,52 145,97 44,45 65,79 65,102 0,8 -3,14 -6,19 -4,4 -10,6 -17,6 -2,0 -4,-1 -6,-1 -2,-1 -16,-15 -42,-42l-34 -37c-18,-19 -37,-36 -58,-50 -21,-15 -49,-31 -83,-49 3,43 6,74 9,92 3,18 4,31 4,38 -1,19 -4,32 -12,41 -8,7 -19,11 -34,11 -12,0 -21,-8 -24,-24 -3,-16 -6,-95 -7,-236l-2 -117c-1,-16 2,-28 7,-35 5,-7 12,-11 22,-11 9,0 16,2 21,6 5,4 7,11 8,20l1 -1 -1 -1 0 1zm398 259l-30 17c-17,69 -28,104 -34,106 -6,2 -12,3 -19,2 -6,0 -12,-3 -17,-10 -5,-6 -7,-16 -7,-28 0,-9 8,-38 24,-88 16,-50 43,-127 80,-232 15,-42 26,-68 33,-75 7,-8 16,-12 26,-12 9,0 17,6 27,16 9,11 26,50 49,118l19 54c98,-41 148,-62 150,-62 1,0 2,-1 3,-1 3,1 6,2 9,3 3,2 3,4 3,7 0,2 0,2 0,2 0,0 -51,28 -153,84l17 58c27,90 40,135 40,135 0,0 1,1 1,1 -1,9 -4,17 -12,24 -7,7 -15,11 -24,11 -6,0 -13,-2 -19,-7 -6,-4 -22,-50 -47,-137l-16 -54c-18,12 -37,24 -55,36 -19,12 -35,21 -47,28l-2 1 0 1 1 2zm-13 -43l28 -15c15,-8 29,-16 42,-24 13,-7 24,-15 35,-22 -26,-77 -39,-115 -39,-116 -1,-1 -2,-1 -3,-1 -1,0 -2,1 -2,1 -1,1 -21,60 -61,177l-1 0 1 -1 0 1zm321 -32l46 -144c16,-51 28,-80 34,-87 6,-7 14,-11 22,-11 11,0 21,7 31,22 10,15 26,52 47,112l51 142c21,59 34,95 38,108 4,14 6,23 6,28 0,11 -3,18 -10,24 -6,6 -14,9 -22,9 -7,0 -15,-2 -20,-7 -6,-4 -11,-17 -18,-38l-15 -46c-11,-35 -25,-75 -41,-118 -15,-44 -26,-75 -32,-92 -6,-15 -11,-26 -15,-32 -4,-7 -6,-11 -9,-11 -4,0 -9,7 -15,21 -6,14 -11,33 -17,59 -26,105 -39,160 -40,164 -1,4 -2,7 -2,11l-9 48c-3,16 -7,28 -14,34 -6,6 -14,9 -24,9 -6,0 -12,-3 -16,-9 -4,-6 -6,-15 -7,-27 0,-7 4,-26 12,-55 8,-29 19,-67 35,-114l1 1 1 1 2 -2zm422 176l-1 9c-1,9 -2,15 -6,17 -3,2 -7,4 -14,4 -14,0 -24,-3 -31,-11 -7,-7 -11,-16 -11,-28l-10 -196c-1,-11 -2,-25 -4,-42 -2,-17 -4,-31 -6,-41 -5,-26 -5,-46 1,-60 6,-14 15,-21 30,-21 12,0 22,3 28,10 7,6 11,16 11,29 0,3 -1,11 -2,22 -1,11 -2,22 -2,32 0,16 2,41 4,78 3,37 5,67 6,90 22,-36 36,-58 41,-67 5,-9 9,-16 13,-22l24 -44c19,-34 44,-69 74,-102 29,-34 52,-50 67,-50 6,0 10,1 14,2 4,2 6,4 6,7 0,9 -1,16 -4,24 -2,7 -6,14 -9,17l15 305c2,34 1,55 -3,65 -3,9 -10,14 -19,14 -11,-1 -19,-4 -24,-11 -6,-7 -9,-17 -11,-31l-4 -31c-2,-16 -3,-25 -3,-26 0,-1 -3,-79 -6,-236 -8,9 -15,17 -21,26 -6,9 -21,34 -46,78l-28 49c-47,83 -71,126 -72,130 -1,3 -1,6 -1,10l1 -1 1 0 2 2zm278 -308l39 -16c118,-50 200,-84 248,-99 48,-16 94,-24 139,-24 9,0 15,1 17,2 2,1 2,3 2,5 0,2 -1,5 -2,6 -2,2 -4,3 -6,4l-23 6c-28,8 -64,20 -107,37 -43,16 -80,31 -110,44 2,52 4,94 5,127 1,34 2,58 2,73 -1,77 -3,123 -9,141 -6,18 -14,27 -26,27 -8,1 -14,-4 -19,-12 -4,-9 -6,-74 -6,-196l0 -140c-11,4 -19,8 -29,12 -9,4 -32,16 -71,35l-32 16c-10,6 -19,6 -27,2 -8,-4 -12,-11 -12,-21 0,-6 2,-12 6,-16 4,-4 11,-9 19,-13l0 1 1 -1 1 0zm449 -50l7 144c7,-9 14,-17 19,-24 6,-6 32,-42 79,-109l21 -29c7,-10 16,-14 27,-12 11,2 17,7 17,19 -1,15 -15,44 -45,84 -29,41 -57,73 -81,98 54,19 102,52 145,97 44,45 65,79 65,102 0,8 -2,14 -6,19 -4,4 -10,6 -17,6 -2,0 -4,-1 -6,-1 -2,-1 -16,-15 -42,-42l-34 -37c-18,-19 -37,-36 -58,-50 -21,-15 -49,-31 -83,-49 3,43 6,74 9,92 3,18 4,31 4,38 -1,19 -4,32 -12,41 -8,7 -19,11 -34,11 -12,0 -21,-8 -24,-24 -3,-16 -6,-95 -7,-236l-2 -117c-1,-16 2,-28 7,-35 5,-7 12,-11 22,-11 9,0 16,2 21,6 5,4 7,11 8,20l1 -1 0 -1 -1 1zm398 259l-30 17c-17,69 -28,104 -34,106 -6,2 -12,3 -19,3 -6,0 -12,-3 -17,-10 -5,-6 -7,-16 -7,-28 0,-9 8,-38 24,-88 16,-50 43,-127 80,-232 15,-42 26,-68 33,-75 7,-8 16,-12 26,-12 9,0 17,6 27,16 9,11 26,50 49,118l19 54c98,-41 148,-62 150,-62 1,0 2,-1 3,-1 3,1 6,2 9,3 2,2 3,4 3,7 0,2 0,3 0,3 0,0 -51,28 -153,84l17 58c27,90 40,135 40,135 0,0 1,1 1,1 -1,9 -4,17 -12,24 -7,7 -15,11 -24,11 -6,0 -13,-2 -19,-7 -6,-4 -22,-50 -47,-137l-16 -54c-18,12 -37,24 -55,36 -19,12 -35,21 -47,28l-2 1 0 1 1 0zm-13 -43l28 -15c15,-8 29,-16 42,-24 13,-7 24,-15 35,-22 -26,-77 -39,-115 -39,-116 -1,-1 -2,-1 -2,-1 -1,0 -2,1 -3,1 -1,1 -21,60 -61,177l-1 0 1 -1 0 1z"/>
   <polygon class="fil0" points="458,0 705,0 523,267 719,553 465,553 302,267 "/>
   <polygon class="fil0" points="296,3 0,3 0,4 220,81 210,488 0,553 0,555 296,555 296,133 "/>
   <path class="fil1" d="M146 282c6,0 11,5 11,11 0,6 -6,11 -11,11 -6,0 -11,-6 -11,-11 0,-6 6,-11 11,-11z"/>
  </g>
 </g>
</svg>
