<?xml version="1.0" encoding="UTF-8"?>
<!DOCTYPE svg PUBLIC "-//W3C//DTD SVG 1.1//EN" "http://www.w3.org/Graphics/SVG/1.1/DTD/svg11.dtd">
<!-- Creator: CorelDRAW X6 -->
<svg xmlns="http://www.w3.org/2000/svg" xml:space="preserve" width="13.1232mm" height="13.1232mm" version="1.1" style="shape-rendering:geometricPrecision; text-rendering:geometricPrecision; image-rendering:optimizeQuality; fill-rule:evenodd; clip-rule:evenodd"
viewBox="0 0 1312 1312"
 xmlns:xlink="http://www.w3.org/1999/xlink">
 <defs>
  <style type="text/css">
   <![CDATA[
    .fil1 {fill:#2B2A29}
    .fil0 {fill:#FEFEFE}
   ]]>
  </style>
 </defs>
 <g id="Слой_x0020_1">
  <metadata id="CorelCorpID_0Corel-Layer"/>
  <path class="fil0" d="M554 656c15,10 87,72 102,72 11,0 21,-10 27,-15l74 -57 53 49c3,3 5,6 9,9 5,5 5,3 10,7l180 167c3,3 5,6 9,9 7,6 22,13 25,27 -16,0 -21,7 -40,7l-695 0c-18,0 -24,-7 -40,-7 3,-12 17,-20 24,-25l117 -109c3,-3 5,-6 9,-9l46 -41c6,-6 11,-12 17,-17l73 -66zm737 -29l0 55c-3,75 -20,149 -48,219 -20,48 -40,82 -69,122 -25,37 -74,94 -109,119l-55 42c-34,23 -49,30 -86,48l-54 22c-63,21 -125,33 -188,36l-55 0c-62,-3 -125,-15 -187,-37 -43,-15 -78,-34 -117,-57 -5,-3 -7,-5 -12,-8 -42,-28 -111,-83 -141,-125 -32,-45 -49,-57 -78,-116 -5,-9 -8,-16 -12,-25 -5,-10 -8,-17 -12,-28 -12,-32 -19,-50 -28,-86 -17,-69 -18,-103 -18,-172l0 -3c0,-48 8,-96 18,-135 22,-86 60,-163 114,-233 3,-4 5,-7 9,-11l17 -20c10,-10 31,-37 47,-50 5,-4 6,-3 11,-9 4,-4 5,-5 9,-8 5,-4 6,-5 11,-9 25,-21 76,-54 105,-68 9,-5 16,-8 25,-12 29,-15 82,-33 113,-40 71,-18 104,-18 174,-18l3 0c111,0 255,48 345,116l63 51c17,15 38,40 47,50l26 31c34,45 46,66 72,119 14,29 33,83 40,113 10,42 17,84 18,126zm-494 -1c5,-7 24,-20 32,-25l229 -175 0 442 -113 -105c-7,-7 -11,-8 -17,-15l-47 -45c-14,-15 -75,-65 -82,-76zm-543 241l0 -442 195 149c14,12 58,42 65,51l-32 30c-5,4 -4,3 -9,6l-106 98c-6,6 -10,10 -16,16l-65 60c-3,3 -5,5 -7,7l-27 23zm25 -486l754 0 -233 181c-10,7 -138,109 -144,109 -5,0 -14,-9 -23,-16l-318 -245c-5,-4 -8,-6 -13,-10 -6,-5 -19,-14 -23,-19z"/>
  <path class="fil1" d="M2612 927c-8,0 -18,-9 -27,-15l-39 -29c-2,1 -3,2 -5,4l-14 13c-5,5 -12,14 -20,15 0,-4 1,-4 1,-7 0,-2 0,-5 0,-8l2 -23c0,-4 1,-4 1,-8 1,-16 -1,-9 7,-17l52 -47c2,-1 3,-3 4,-4l22 -19c2,-1 3,-3 5,-4l13 -12c3,-2 3,-2 3,-6 -9,0 -15,5 -24,12 -2,1 -3,2 -4,3l-100 63c-14,8 -2,7 -33,-2 -4,-1 -5,-2 -9,-3l-24 -8c-3,-1 -4,-3 -7,-4 0,-5 0,-6 4,-9 6,-4 87,-34 102,-40l111 -43c4,-2 13,-5 16,-5 17,0 9,26 6,38 -2,8 -4,16 -5,25 -8,40 -18,84 -26,123 -1,7 -3,19 -11,19zm-73 -341l19 0c23,1 46,5 68,13 4,1 6,3 10,4 26,10 45,25 66,42 23,20 49,59 60,90 11,32 13,49 13,84 0,27 -9,64 -21,88 -10,19 -13,26 -26,42l-12 15c-17,21 -47,39 -71,52 -27,14 -60,21 -93,21l-4 0c-19,0 -37,-2 -54,-7 -7,-2 -14,-4 -21,-6l-41 -20 -31 -23c-2,-2 -2,-1 -4,-3 -9,-7 -25,-27 -32,-36l-11 -17c-6,-11 -9,-15 -14,-28 -13,-34 -17,-54 -17,-93 0,-25 6,-47 13,-69 6,-17 18,-40 28,-54 16,-22 40,-46 63,-60l17 -10c9,-4 19,-9 28,-12 7,-2 13,-4 21,-6 15,-4 30,-6 45,-7z"/>
  <path class="fil1" d="M3161 788c0,14 1,13 11,26 10,14 34,37 47,47 8,6 16,15 28,15 18,0 31,-33 45,-33 5,0 22,19 26,23 4,4 24,22 24,26l0 4c0,4 -26,33 -53,33 -24,0 -49,-12 -69,-24 -15,-9 -19,-12 -31,-22 -7,-6 -28,-25 -33,-32 -2,-3 -3,-4 -5,-6 -13,-17 -25,-33 -34,-53 -8,-17 -11,-24 -11,-41 0,-13 6,-26 12,-34 5,-6 18,-22 26,-22 5,0 19,16 24,20 8,8 15,15 22,22 10,10 2,15 -9,25 -5,5 -20,17 -20,25zm53 -201l19 0c18,1 35,3 48,7 31,9 47,16 73,34 18,12 42,36 54,54 14,21 19,30 28,53 3,7 4,13 6,20 4,12 7,32 7,47 0,45 -4,67 -21,106 -1,3 -3,6 -5,9 -14,24 -18,31 -40,53 -32,32 -61,47 -103,59 -13,4 -30,6 -47,7l-19 0c-18,-1 -35,-3 -48,-7 -17,-5 -23,-7 -39,-14 -39,-17 -77,-54 -98,-91 -9,-15 -10,-20 -17,-37 -11,-29 -13,-55 -13,-86 0,-21 6,-50 13,-68 3,-7 5,-12 8,-19 17,-39 54,-77 91,-98 15,-9 20,-10 37,-17 7,-3 13,-4 20,-6 13,-4 30,-6 47,-7z"/>
 </g>
</svg>
