<?xml version="1.0" encoding="UTF-8"?>
<!DOCTYPE svg PUBLIC "-//W3C//DTD SVG 1.1//EN" "http://www.w3.org/Graphics/SVG/1.1/DTD/svg11.dtd">
<!-- Creator: CorelDRAW X6 -->
<svg xmlns="http://www.w3.org/2000/svg" xml:space="preserve" width="13.1232mm" height="13.1232mm" version="1.1" style="shape-rendering:geometricPrecision; text-rendering:geometricPrecision; image-rendering:optimizeQuality; fill-rule:evenodd; clip-rule:evenodd"
viewBox="0 0 1312 1312"
 xmlns:xlink="http://www.w3.org/1999/xlink">
 <defs>
  <style type="text/css">
   <![CDATA[
    .fil0 {fill:#727271}
    .fil1 {fill:#FEFEFE}
   ]]>
  </style>
 </defs>
 <g id="Слой_x0020_1">
  <metadata id="CorelCorpID_0Corel-Layer"/>
  <path class="fil0" d="M2844 1885c15,10 87,72 102,72 11,0 21,-10 27,-15l74 -57 53 49c3,3 5,6 9,9 5,5 5,3 10,7l180 167c3,3 5,6 9,9 7,6 22,13 25,27 -16,0 -21,7 -40,7l-695 0c-18,0 -24,-7 -40,-7 3,-12 17,-20 24,-25l117 -109c3,-3 5,-6 9,-9l46 -41c6,-6 11,-12 17,-17l73 -66zm737 -29l0 55c-3,75 -20,149 -48,219 -20,48 -40,82 -69,122 -25,37 -74,94 -109,119l-55 42c-34,23 -49,30 -86,48l-54 22c-63,21 -125,33 -188,36l-55 0c-62,-3 -125,-15 -187,-37 -43,-15 -78,-34 -117,-57 -5,-3 -7,-5 -12,-8 -42,-28 -111,-83 -141,-125 -32,-45 -49,-57 -78,-116 -5,-9 -8,-16 -12,-25 -5,-10 -8,-17 -12,-28 -12,-32 -19,-50 -28,-86 -17,-69 -18,-103 -18,-172l0 -3c0,-48 8,-96 18,-135 22,-86 60,-163 114,-233 3,-4 5,-7 9,-11l17 -20c10,-10 31,-37 47,-50 5,-4 6,-3 11,-9 4,-4 5,-5 9,-8 5,-4 6,-5 11,-9 25,-21 76,-54 105,-68 9,-5 16,-8 25,-12 29,-15 82,-33 113,-40 71,-18 104,-18 174,-18l3 0c111,0 255,48 345,116l63 51c17,15 38,40 47,50l26 31c34,45 46,66 72,119 14,29 33,83 40,113 10,42 17,84 18,126zm-494 -1c5,-7 24,-20 32,-25l229 -175 0 442 -113 -105c-7,-7 -11,-8 -17,-15l-47 -45c-14,-15 -75,-65 -82,-76zm-543 241l0 -442 195 149c14,12 58,42 65,51l-32 30c-5,4 -4,3 -9,6l-106 98c-6,6 -10,10 -16,16l-65 60c-3,3 -5,5 -7,7l-27 23zm25 -486l754 0 -233 181c-10,7 -138,109 -144,109 -5,0 -14,-9 -23,-16l-318 -245c-5,-4 -8,-6 -13,-10 -6,-5 -19,-14 -23,-19z"/>
  <path class="fil0" d="M4733 1018c-24,0 -52,-24 -75,-42l-111 -82c-6,4 -8,7 -13,12l-39 36c-15,15 -33,39 -58,42 0,-12 2,-10 3,-20 1,-7 -1,-15 0,-22l5 -65c0,-12 2,-11 3,-22 2,-45 -3,-26 20,-49l148 -133c5,-4 8,-8 12,-12l62 -55c5,-4 8,-7 13,-12l36 -33c7,-5 8,-4 9,-16 -27,0 -41,15 -69,33 -5,3 -8,4 -12,7l-282 177c-39,22 -6,21 -92,-5 -10,-3 -15,-4 -25,-7l-68 -21c-10,-4 -12,-7 -20,-12 0,-14 -1,-18 11,-26 18,-12 246,-97 288,-113l311 -120c11,-4 36,-15 46,-15 49,0 24,73 17,108 -5,22 -10,45 -15,69 -22,113 -52,236 -74,348 -4,20 -9,52 -32,52zm-206 -960l53 0c65,3 129,15 191,37 10,4 18,7 28,11 73,29 128,70 186,119 66,56 138,168 168,254 31,91 36,138 36,237 0,75 -25,180 -60,248 -28,55 -38,73 -74,120l-34 41c-49,58 -131,111 -199,145 -77,39 -170,58 -263,59l-10 0c-53,0 -105,-7 -154,-19 -21,-5 -41,-12 -59,-18l-117 -57 -88 -66c-5,-5 -5,-3 -10,-7 -24,-20 -70,-76 -89,-102l-30 -47c-16,-31 -25,-43 -38,-78 -38,-96 -47,-153 -47,-261 0,-69 16,-134 36,-194 16,-48 51,-114 79,-152 45,-62 112,-131 178,-170l49 -28c25,-12 52,-26 79,-35 20,-7 37,-12 59,-18 42,-11 85,-17 128,-18z"/>
  <path class="fil1" d="M480 589c0,40 3,36 31,73 29,39 96,104 131,131 23,18 46,41 78,41 51,0 87,-92 127,-92 15,0 61,53 74,65 11,11 68,63 68,74l0 10c0,11 -73,94 -149,94 -69,0 -137,-33 -194,-67 -43,-26 -53,-34 -89,-62 -21,-16 -79,-71 -94,-90 -6,-8 -9,-10 -15,-17 -38,-48 -70,-93 -95,-150 -21,-48 -30,-67 -30,-117 0,-37 18,-74 34,-95 14,-18 52,-62 72,-62 15,0 54,46 66,58 22,22 41,42 63,63 29,29 5,41 -25,71 -14,14 -55,49 -55,71zm149 -568l53 0c50,2 98,8 135,20 87,26 132,44 207,96 51,35 118,102 152,153 39,58 53,85 78,150 7,18 12,37 18,57 10,34 19,90 19,132 0,128 -10,189 -60,300 -4,8 -9,18 -13,26 -40,67 -51,89 -112,150 -90,90 -171,131 -290,166 -37,11 -84,17 -133,19l-53 0c-50,-2 -98,-8 -135,-20 -48,-14 -65,-19 -111,-40 -109,-49 -219,-152 -278,-256 -24,-42 -29,-56 -48,-103 -32,-81 -36,-155 -36,-244 0,-60 18,-141 38,-193 8,-20 14,-35 22,-53 49,-109 152,-219 256,-278 42,-24 56,-29 103,-48 19,-8 36,-11 57,-18 37,-11 84,-17 133,-19z"/>
 </g>
</svg>
